<svg width="605" height="564" viewBox="0 0 605 564" fill="none" xmlns="http://www.w3.org/2000/svg">
<path d="M504.573 126.806C497.704 126.596 490.85 127.598 484.284 129.772C473.033 133.134 461.413 135.705 450.347 140.254H447.764C434.669 143.616 421.573 147.373 408.293 150.34C391.509 154.097 374.724 157.657 357.756 161.019C340.787 164.382 326.585 166.557 310.722 168.93C300.394 170.512 290.065 172.49 279.551 173.281C264.427 174.468 249.118 176.05 233.994 177.039C218.869 178.027 204.298 177.038 189.543 178.818L180.689 179.807C162.245 179.807 145.092 182.576 127.201 182.18C119.823 182.18 112.261 182.18 104.698 182.18H63.5675C62.0022 181.686 60.3372 181.686 58.772 182.18C59.8786 183.367 61.1697 183.169 62.4608 183.367C63.9918 183.16 65.5409 183.16 67.0719 183.367C69.888 184.533 72.9281 184.941 75.9253 184.553C76.7539 184.465 77.5906 184.56 78.3838 184.832C79.1769 185.104 79.9096 185.548 80.5364 186.136C80.7646 186.298 80.9518 186.518 81.0814 186.777C81.2109 187.036 81.2787 187.325 81.2787 187.619C81.2787 187.913 81.2109 188.202 81.0814 188.461C80.9518 188.72 80.7646 188.94 80.5364 189.102C78.7263 191.033 76.5621 192.539 74.181 193.527C71.7998 194.514 69.2535 194.96 66.7031 194.837H64.3053C65.5335 194.747 66.766 194.747 67.9942 194.837C68.1916 194.745 68.3597 194.593 68.4777 194.4C68.5957 194.207 68.6585 193.981 68.6585 193.75C68.6585 193.519 68.5957 193.293 68.4777 193.1C68.3597 192.906 68.1916 192.754 67.9942 192.662C66.0526 190.607 63.8848 188.815 61.5386 187.323C60.5936 186.52 59.4238 186.084 58.2186 186.084C57.0134 186.084 55.8435 186.52 54.8986 187.323C53.423 188.905 51.9475 188.905 51.0253 187.323C49.9835 186.338 48.7324 185.643 47.3818 185.299C46.0311 184.954 44.6223 184.97 43.2787 185.345C41.8149 185.639 40.3014 185.412 38.9693 184.697C37.6373 183.983 36.5597 182.822 35.9009 181.389C35.9009 181.389 35.9009 181.389 35.9009 180.401V206.704C37.1372 206.37 38.3189 205.837 39.4053 205.121C40.4786 203.993 41.8348 203.225 43.3086 202.909C44.7823 202.593 46.3099 202.743 47.7053 203.342C53.0067 205.47 58.7607 205.949 64.3053 204.726C64.9062 204.528 65.5488 204.528 66.1497 204.726C69.7515 205.322 73.4358 204.914 76.8475 203.539C77.338 203.292 77.8733 203.164 78.4152 203.164C78.9572 203.164 79.4924 203.292 79.983 203.539C81.3172 204.599 82.9337 205.171 84.5941 205.171C86.2545 205.171 87.871 204.599 89.2052 203.539C89.2052 203.539 91.7874 203.539 93.0785 203.539H107.281C111.334 203.243 115.401 203.243 119.454 203.539C126.867 204.362 134.321 204.692 141.772 204.528C147.417 203.147 153.28 203.147 158.925 204.528C164.695 205.023 170.493 205.023 176.263 204.528C179.952 204.528 184.009 204.528 187.145 201.759H188.436H199.872H206.327C211.149 200.87 216.077 200.87 220.898 201.759C221.738 202.047 222.641 202.047 223.48 201.759C225.201 201.662 226.925 201.662 228.645 201.759C236.76 201.759 244.876 201.759 252.991 200.771C255.561 200.378 258.169 200.378 260.738 200.771C264.275 201.465 267.899 201.465 271.436 200.771H277.891C279.793 200.967 281.708 200.967 283.609 200.771C290.449 198.737 297.545 197.869 304.636 198.199C305.674 198.384 306.733 198.384 307.771 198.199C313.838 196.699 320.005 195.708 326.216 195.233L345.767 191.673L365.502 188.509C369.28 187.85 372.987 186.79 376.569 185.345C377.419 185.14 378.301 185.14 379.151 185.345C383.434 185.306 387.7 184.776 391.878 183.763C405.896 180.796 419.913 177.434 433.931 174.072C447.949 170.71 460.675 167.348 474.14 164.381C482.503 161.711 491.09 159.923 499.777 159.042L521.357 154.295C523.739 153.871 526.169 153.871 528.551 154.295L524.309 157.46C524.206 157.847 524.206 158.258 524.309 158.646C524.61 158.739 524.93 158.739 525.231 158.646C528.673 158.475 532.053 157.603 535.191 156.075C536.297 156.075 536.113 154.889 535.191 153.109C536.851 150.933 539.433 150.933 541.646 150.34L555.48 147.176C556.946 146.924 558.373 146.459 559.722 145.791C561.013 145.791 562.857 145.791 563.595 144.605C564.333 143.418 562.673 143.616 561.935 143.616C557.698 143.314 553.53 142.313 549.577 140.649L525.231 131.948C519.384 129.43 513.053 128.48 506.786 129.179L504.573 126.806ZM262.398 182.576C261.218 183.576 259.814 184.23 258.327 184.473C256.839 184.716 255.318 184.539 253.914 183.96C256.512 182.271 259.568 181.574 262.583 181.983L262.398 182.576Z" fill="#FFDA00"/>
<path d="M464.476 0.380583C458.388 0.380583 452.117 1.97065 446.03 2.76557C442.37 2.92078 438.864 4.38962 436.069 6.93878C433.117 9.52229 429.428 8.52884 426.108 9.32377H425.001C422.603 7.13772 421.496 6.93898 419.836 9.32377C419.625 9.92397 419.293 10.4666 418.866 10.9134C418.438 11.3601 417.924 11.6999 417.361 11.9086C416.797 12.1173 416.198 12.1895 415.606 12.1206C415.013 12.0516 414.442 11.8433 413.933 11.5098C411.904 11.5098 409.506 8.92632 408.03 11.5098C406.555 14.0934 406.739 11.5098 406.37 11.5098C405.222 10.6894 403.874 10.2517 402.496 10.2517C401.119 10.2517 399.771 10.6894 398.623 11.5098C396.778 11.5098 395.302 13.8945 393.273 13.2984C392.61 12.9618 391.885 12.7874 391.152 12.7874C390.419 12.7874 389.694 12.9618 389.031 13.2984C386.448 14.6895 383.681 15.4845 381.099 17.0743C378.516 18.6642 375.381 18.4652 373.351 20.2538C371.699 22.6083 370.393 25.2223 369.478 28.0043C368.371 28.0043 367.449 30.9853 366.157 28.0043C365.95 27.7506 365.694 27.5474 365.408 27.4082C365.122 27.269 364.811 27.1971 364.497 27.1971C364.183 27.1971 363.873 27.269 363.587 27.4082C363.3 27.5474 363.045 27.7506 362.837 28.0043C361.766 28.7423 360.775 29.6091 359.886 30.5879C358.989 31.7522 357.746 32.5464 356.367 32.8362C354.989 33.1259 353.56 32.8934 352.323 32.1778C352.323 32.1778 350.109 32.1778 349.371 32.1778C348.978 31.8692 348.523 31.6637 348.042 31.5774C347.562 31.4911 347.07 31.5266 346.604 31.6808C346.139 31.8351 345.713 32.104 345.361 32.4662C345.009 32.8284 344.74 33.274 344.575 33.7677C343.762 35.6295 342.484 37.2117 340.886 38.3385C340.886 38.3385 338.673 37.146 336.828 37.3448C334.983 37.5435 332.77 37.345 331.294 39.1336C329.818 40.9222 331.294 39.1336 330.187 39.1336C329.081 39.1336 330.187 39.1336 330.187 39.1336C330.187 39.1336 330.187 37.9412 330.187 36.9475C330.187 35.9539 325.76 36.9474 324.469 38.736C323.178 40.5246 319.857 39.9283 317.644 40.127C315.43 40.3257 316.353 38.7359 316.722 37.9409C317.067 37.2109 317.596 36.6002 318.249 36.1785C318.901 35.7568 319.65 35.5413 320.411 35.5562C322.255 35.5562 324.1 35.5562 325.945 35.5562C327.789 35.5562 323.916 33.569 322.993 32.5754L321.702 31.1841C318.751 31.1841 316.168 33.3701 313.032 32.9726C311.809 32.6058 310.501 32.7764 309.395 33.4469C308.288 34.1174 307.474 35.2334 307.13 36.55C306.592 38.1895 305.547 39.5791 304.169 40.4842C302.791 41.3894 301.165 41.7547 299.567 41.5183H295.877C294.402 41.5183 293.848 43.7043 292.188 43.3068H290.897C289.237 42.3131 287.392 41.5182 285.916 43.3068C285.651 43.7168 285.469 44.1821 285.381 44.6726C285.294 45.1631 285.302 45.6681 285.406 46.1548C285.511 46.6416 285.708 47.0994 285.987 47.4988C286.265 47.8982 286.618 48.2305 287.023 48.474L289.421 49.6664C287.392 52.0511 284.81 51.4548 282.227 51.6535C279.645 51.8522 280.936 51.6535 280.567 50.0636C278.942 52.3274 276.666 53.9462 274.096 54.6656C271.525 55.385 268.805 55.1644 266.363 54.0385C266.363 51.6537 265.441 49.4675 265.072 47.0827C262.75 47.4805 260.385 47.4805 258.063 47.0827C256.402 47.0827 256.034 48.2751 256.218 49.865H257.878C257.934 50.2602 257.934 50.6621 257.878 51.0573C256.956 52.8459 255.665 54.4359 256.587 56.8207C257.509 59.2055 255.665 56.8207 255.111 56.8207C249.946 54.2372 248.655 54.2372 244.966 56.8207C242.516 58.1644 239.778 58.7817 237.034 58.6092C237.034 58.6092 237.034 58.6092 237.034 57.6155C237.034 56.6219 237.034 53.6408 239.616 53.8396C240.526 54.1602 241.504 54.1802 242.425 53.8969C243.345 53.6135 244.166 53.0398 244.781 52.2497C242.978 52.8474 241.05 52.8474 239.247 52.2497C235.743 49.6662 232.422 51.0573 228.918 52.2497C228.697 52.2964 228.487 52.3911 228.302 52.5277C228.116 52.6644 227.958 52.84 227.837 53.0445C227.716 53.2489 227.635 53.4779 227.599 53.7171C227.563 53.9562 227.572 54.2006 227.626 54.4357C227.626 55.4294 229.286 56.4232 227.626 57.4169C225.966 58.4106 225.782 57.4167 224.859 58.8079L223.568 60.1991C223.568 60.1991 222.277 60.1991 221.724 60.1991C220.143 61.0255 218.408 61.4549 216.651 61.4549C214.894 61.4549 213.159 61.0255 211.578 60.1991C211.578 60.1991 210.102 60.1991 209.365 60.1991C207.383 61.5515 205.147 62.4134 202.818 62.7227C200.49 63.032 198.126 62.7808 195.899 61.9877C195.338 61.6388 194.702 61.4552 194.054 61.4552C193.407 61.4552 192.77 61.6388 192.21 61.9877C189.074 64.7699 186.307 63.3788 183.724 61.9877C183.543 63.1294 182.966 64.1545 182.11 64.8554C181.254 65.5563 180.183 65.881 179.113 65.7636C176.534 65.5686 173.945 65.5686 171.365 65.7636C169.477 66.1602 167.535 66.1602 165.647 65.7636C164.645 65.2217 163.54 64.9394 162.419 64.9394C161.298 64.9394 160.193 65.2217 159.191 65.7636C157.346 65.7636 155.502 62.7825 157.162 60.3978C158.822 58.013 158.269 58.6092 157.162 57.6155C155.871 55.4295 155.871 55.4295 158.269 54.2371H159.375V53.0448H158.269C155.325 53.7153 152.631 55.305 150.521 57.6155C149.414 58.6754 149.414 59.868 150.521 61.1929C150.521 61.1929 152.366 62.385 152.55 63.7762C152.735 65.1673 152.55 65.7635 152.55 65.9622C152.261 66.1051 151.946 66.179 151.628 66.179C151.31 66.179 150.995 66.1051 150.706 65.9622C149.807 64.9942 149.003 63.9285 148.308 62.7824C148.308 62.7824 146.832 60.9939 145.725 60.9939C145.192 61.0486 144.654 60.9889 144.142 60.8184C143.63 60.6478 143.155 60.3697 142.743 60.0002C142.331 59.6307 141.992 59.177 141.744 58.6653C141.496 58.1537 141.344 57.5944 141.298 57.0193C141.298 55.6282 139.822 55.6282 138.716 57.0193L135.58 59.2054C138.531 63.5775 138.531 63.975 134.288 65.1674C132.849 65.6688 131.3 65.6688 129.861 65.1674C128.852 64.5395 127.707 64.2089 126.541 64.2089C125.375 64.2089 124.23 64.5395 123.221 65.1674C122.744 65.464 122.203 65.6199 121.653 65.6199C121.102 65.6199 120.562 65.464 120.085 65.1674C116.898 64.7663 113.679 64.7663 110.493 65.1674C107.738 65.6618 104.908 65.2461 102.376 63.9751C102.083 63.6318 101.726 63.3577 101.329 63.1703C100.933 62.9829 100.504 62.8862 100.071 62.8862C99.6374 62.8862 99.2088 62.9829 98.812 63.1703C98.4151 63.3577 98.0586 63.6318 97.7649 63.9751C97.2792 64.5474 96.676 64.9893 96.0033 65.2654C95.3307 65.5415 94.6073 65.6438 93.8912 65.5647C92.2764 65.4897 90.6923 65.0639 89.2341 64.3126C87.7759 63.5613 86.4738 62.5002 85.406 61.1929C84.4109 60.2946 83.6989 59.0855 83.3685 57.7329C83.0381 56.3802 83.1056 54.9506 83.5614 53.6409C83.5614 52.4485 83.5614 52.2499 82.639 51.8524C80.0234 51.2629 77.3228 51.2629 74.7072 51.8524C75.8139 53.8397 78.0275 51.8524 78.7654 54.6347H73.2315C72.1714 54.5264 71.106 54.7738 70.1815 55.343C69.2569 55.9122 68.5182 56.7752 68.0666 57.8141C69.3578 57.8141 71.3869 57.8142 71.018 60.0002C70.6491 62.1863 68.9889 61.1927 67.8821 61.3915C66.4292 61.7868 64.9079 61.7868 63.455 61.3915C59.9671 60.2528 56.2441 60.2528 52.7562 61.3915C52.4627 61.3915 52.1811 61.5172 51.9736 61.7408C51.766 61.9644 51.6494 62.2676 51.6494 62.5838L57.7367 64.5713C58.5419 64.9507 59.211 65.6013 59.6435 66.4256C60.0759 67.2499 60.2483 68.2031 60.1347 69.142C60.1347 70.3344 58.4745 70.3343 57.3677 70.533C56.5803 70.3226 55.7571 70.3226 54.9697 70.533C54.1143 71.2109 53.0802 71.5767 52.0183 71.5767C50.9564 71.5767 49.9223 71.2109 49.0669 70.533L31.9119 69.142C28.2876 68.7941 24.7041 68.0618 21.2132 66.956C17.8929 66.956 13.8347 66.956 11.0678 64.1737C11.0678 64.1737 10.1454 64.1737 9.96097 64.1737C9.1088 64.6609 8.15874 64.9157 7.19401 64.9157C6.22928 64.9157 5.2793 64.6609 4.42712 64.1737C3.00373 63.5751 1.42339 63.5751 0 64.1737V69.7382C4.61155 69.7382 8.85421 72.9181 13.6502 73.3155C18.3039 74.0997 22.8351 75.5706 27.116 77.6874C28.4072 77.6874 30.2518 79.2775 31.3586 78.88C33.8247 78.0787 36.4554 78.0787 38.9215 78.88C40.5817 78.88 41.6884 78.8798 42.4263 77.0912C43.1641 75.3026 44.0865 75.7002 45.1932 75.7002H54.7853C59.9502 75.7002 65.1151 75.7001 70.0956 77.0912C78.2119 77.0912 86.5128 77.0912 94.6291 77.0912C98.0359 77.1829 101.43 77.582 104.775 78.2838C106.91 79.3649 109.24 79.9253 111.6 79.9253C113.959 79.9253 116.289 79.3649 118.425 78.2838C119.699 77.9691 121.024 77.9691 122.298 78.2838C126.541 78.2838 130.784 78.2838 135.026 78.2838H153.473H173.394C180.773 78.2838 187.967 77.0913 195.161 76.2964H200.326C208.127 74.8704 216.024 74.1392 223.937 74.1103H225.044C227.968 72.602 231.239 72.0493 234.451 72.5204C237.453 72.9196 240.489 72.9196 243.49 72.5204C245.363 71.9965 247.278 71.6637 249.208 71.5267C257.557 70.9574 265.87 69.8961 274.111 68.3472C282.965 66.9561 292.557 65.1675 300.858 63.9751C306.398 63.7556 311.873 62.6158 317.09 60.5964C318.19 60.4069 319.311 60.4069 320.411 60.5964C333.508 57.8141 347.158 57.218 360.255 53.2434H361.546L387.739 49.0702C390.714 48.7979 393.574 47.7026 396.04 45.8904C397.672 44.7881 399.49 44.045 401.39 43.7043L411.72 42.512C424.263 40.7234 436.806 39.7298 448.612 36.9475C458.02 34.7615 467.058 34.1652 477.388 32.5754C489.591 30.466 501.922 29.3367 514.281 29.197C522.483 28.938 530.614 27.4669 538.445 24.8248C540.527 24.5358 542.635 24.5358 544.717 24.8248C545.824 24.8248 547.115 24.8248 547.853 24.8248C552.095 22.8375 556.707 22.6387 560.949 21.0489C566.434 18.8916 572.281 18.0109 578.104 18.4653C579.328 18.6583 580.57 18.6583 581.794 18.4653C582.473 18.4099 583.134 18.2049 583.737 17.863C584.34 17.5212 584.872 17.05 585.298 16.4781C587.143 14.4908 586.59 12.3046 584.007 11.3109C578.766 9.88918 573.353 9.35281 567.959 9.72102C561.134 9.72102 553.94 12.3045 547.115 9.72102C542.688 10.7147 538.076 9.72116 533.649 11.1123C528.31 11.6146 522.94 11.6146 517.601 11.1123C515.059 11.2198 512.53 10.6748 510.222 9.52239C506.718 6.74014 505.242 11.5096 502.659 11.3109H500.446C495.742 11.9407 491.108 13.0724 486.611 14.6893C484.349 15.5865 481.864 15.5865 479.602 14.6893C476.135 13.4023 472.369 13.4023 468.903 14.6893C467.612 14.6893 466.505 14.6894 465.398 13.497C465.301 13.3157 465.25 13.1101 465.25 12.9008C465.25 12.6915 465.301 12.4859 465.398 12.3046H467.243C473.589 12.0857 479.843 10.6034 485.689 7.9325C485.689 7.9325 486.796 7.93266 486.611 6.54153C486.438 6.45315 486.249 6.4072 486.058 6.4072C485.866 6.4072 485.677 6.45315 485.504 6.54153C478.679 -0.612823 471.485 -0.414345 464.476 0.380583ZM311.926 34.5625C311.926 35.7549 311.926 36.5499 310.265 36.7486C308.605 36.9473 310.265 35.1588 310.265 34.3639C310.265 33.569 311.557 34.1651 311.926 34.5625ZM308.79 38.1399C308.958 38.0352 309.149 37.9801 309.343 37.9801C309.537 37.9801 309.728 38.0352 309.896 38.1399C309.896 38.1399 309.896 38.1399 308.974 38.1399H308.79ZM231.316 54.8333C231.316 54.8333 232.422 54.8334 232.238 56.2246L231.316 54.8333ZM208.996 58.4106C208.996 58.4106 209.18 58.6094 208.996 58.4106V58.4106ZM73.7849 58.4106C73.8052 58.073 73.9053 57.7464 74.0755 57.4621C74.2457 57.1778 74.4805 56.9451 74.7575 56.7859C75.0346 56.6266 75.3449 56.5463 75.6589 56.5524C75.9729 56.5585 76.2802 56.6508 76.5518 56.8207L78.3964 58.4106L79.6877 61.5901C79.0775 61.8803 78.4178 62.0304 77.7508 62.0304C77.0838 62.0304 76.4241 61.8803 75.814 61.5901C74.3383 61.9876 73.6004 60.0003 73.7849 58.2117V58.4106ZM63.0861 62.5838L64.1928 61.1929V62.9814L63.0861 62.5838ZM260.092 52.8458C259.894 52.2687 259.894 51.6345 260.092 51.0573C260.092 51.0573 260.092 49.8649 261.383 50.0636C262.674 50.2623 264.15 51.6536 265.994 51.4549C263.412 53.6409 261.567 54.2371 260.645 52.6472L260.092 52.8458ZM291.081 46.6852H289.421H291.081ZM370.031 28.9981V28.0043C370.031 28.0043 369.847 27.8058 369.662 28.7994L370.031 28.9981ZM380.545 25.0235L374.274 23.6325C375.36 22.5811 376.705 21.8907 378.147 21.6451C379.439 22.2413 380.177 22.2413 380.177 24.8248L380.545 25.0235ZM400.467 19.2604C400.467 20.6515 398.807 22.0426 397.885 23.235C396.963 24.4273 396.963 23.235 396.778 23.235C396.594 23.235 396.778 22.2413 396.778 21.6451C397.115 20.796 397.62 20.0361 398.257 19.4184C398.894 18.8006 399.648 18.3397 400.467 18.0677V19.2604ZM418.914 16.2792H421.127H419.098H418.914ZM424.263 15.0869H422.603L424.079 14.0931L424.263 15.0869ZM445.107 9.52239V8.52867C445.903 8.41624 446.709 8.41624 447.505 8.52867C447.752 8.91118 448.084 9.22096 448.471 9.4293C448.858 9.63763 449.287 9.7378 449.719 9.72102C448.187 10.1883 446.551 10.0475 445.107 9.32377V9.52239ZM460.602 7.1377C460.602 7.1377 460.602 7.13746 460.602 8.13112C460.602 9.12478 458.573 8.13112 457.835 8.13112C458.573 5.94507 459.495 6.54131 460.418 6.93878L460.602 7.1377ZM453.408 7.1377V8.13112H450.457C450.457 8.13112 451.563 6.14398 452.67 6.14398C452.907 6.27626 453.101 6.48453 453.224 6.74016L453.408 7.1377Z" fill="#FFDA00"/>
<path d="M124.533 279.381C126.606 279.762 128.724 279.762 130.796 279.381C131.808 278.992 132.916 278.992 133.928 279.381C136.24 279.857 138.617 279.857 140.929 279.381L184.036 278.008C188.265 278.398 192.518 278.398 196.747 278.008C200.55 277.715 204.367 277.715 208.169 278.008C215.906 278.008 223.644 278.008 231.197 277.028H238.934C244.092 277.028 249.619 278.008 254.593 274.674C254.797 274.582 255.016 274.535 255.237 274.535C255.459 274.535 255.678 274.582 255.882 274.674C259.198 276.635 262.883 274.674 266.383 274.674C269.883 274.674 267.672 274.674 267.304 272.909C266.935 271.144 267.304 270.752 268.593 269.967C268.593 268.202 266.567 267.81 265.646 266.437C264.876 266.838 264.282 267.541 263.988 268.398H262.514C262.514 266.633 260.672 266.829 259.382 268.398C257.956 269.173 256.378 269.577 254.777 269.577C253.176 269.577 251.597 269.173 250.171 268.398C249.103 267.872 247.94 267.599 246.763 267.599C245.586 267.599 244.423 267.872 243.355 268.398C240.31 270.55 236.687 271.583 233.039 271.34C228.433 271.34 225.117 275.066 220.88 273.693C219.407 276.635 216.827 275.851 214.617 275.262C212.71 274.989 210.951 274.019 209.643 272.517C209.643 271.144 207.616 270.948 206.511 272.517C206.164 272.788 205.744 272.934 205.314 272.934C204.883 272.934 204.464 272.788 204.116 272.517C203.622 272.087 203.004 271.852 202.366 271.852C201.728 271.852 201.11 272.087 200.616 272.517C200.071 272.905 199.43 273.112 198.774 273.112C198.118 273.112 197.477 272.905 196.932 272.517C195.669 272.119 194.326 272.119 193.063 272.517C182.032 273.432 170.965 273.76 159.903 273.497C158.245 273.497 156.035 273.497 157.877 270.359C159.719 267.222 157.877 269.183 156.956 268.79C154.304 268.004 151.502 268.004 148.85 268.79C148.33 268.884 147.858 269.173 147.52 269.604C147.182 270.036 147.001 270.582 147.008 271.144C147.008 274.282 147.008 274.478 144.245 274.478C141.481 274.478 139.086 274.478 136.507 274.478C134.017 275.033 131.445 275.033 128.954 274.478C127.103 273.806 125.095 273.806 123.243 274.478C118.27 276.243 113.48 279.969 107.769 276.439C104.269 276.439 103.532 276.439 102.979 272.321C102.849 270.064 102.005 267.921 100.584 266.241C100.189 265.808 99.7169 265.464 99.1948 265.229C98.6727 264.994 98.1116 264.873 97.5447 264.873C96.9778 264.873 96.4168 264.994 95.8946 265.229C95.3725 265.464 94.9 265.808 94.5051 266.241C93.0313 268.006 91.5576 267.614 89.8996 267.418C88.2416 267.222 86.7679 264.672 85.2941 263.103C83.8203 261.534 87.5047 263.103 87.6889 261.73C87.8731 260.357 87.6889 259.573 87.6889 259.181C87.6889 258.789 89.1627 260.161 90.0838 260.554C91.0049 260.946 91.1891 260.554 91.7418 260.554C96.8687 262.212 102.246 262.812 107.585 262.319H109.427C109.427 262.319 109.427 262.319 109.427 261.142H107.585C103.466 259.834 99.1641 259.303 94.8735 259.573C92.2944 259.573 90.6365 258.396 89.8996 255.062H93.3998C96.3473 255.062 98.5579 257.416 101.505 256.827C104.169 256.145 106.947 256.145 109.611 256.827C110.84 257.137 112.13 257.018 113.291 256.489C114.452 255.959 115.422 255.047 116.059 253.886C116.313 253.516 116.451 253.069 116.451 252.611C116.451 252.152 116.313 251.706 116.059 251.336C115.783 250.825 115.378 250.406 114.889 250.129C114.4 249.851 113.848 249.726 113.296 249.767H108.874C107.396 250.046 105.874 249.694 104.637 248.787C103.725 246.736 102.329 244.971 100.585 243.665C98.8421 242.359 96.8108 241.556 94.6893 241.334C90.2091 241.479 85.7511 240.61 81.6097 238.785C78.9573 237.711 76.1558 237.115 73.3197 237.02C68.9061 237.411 64.4695 237.411 60.0558 237.02H59.1347C59.0204 237.111 58.9275 237.229 58.8636 237.365C58.7996 237.502 58.7663 237.652 58.7663 237.804C58.7663 237.956 58.7996 238.106 58.8636 238.243C58.9275 238.379 59.0204 238.497 59.1347 238.589L61.1612 239.961C57.1462 241.465 52.8675 242.001 48.6342 241.53C48.4615 241.443 48.2727 241.398 48.0815 241.398C47.8904 241.398 47.7016 241.443 47.5288 241.53C47.1268 241.752 46.7923 242.092 46.564 242.508C46.3358 242.925 46.2232 243.402 46.2393 243.884C46.2101 244.343 46.3195 244.799 46.5515 245.188C46.7835 245.576 47.1259 245.875 47.5288 246.041H49.3711C55.4504 246.041 60.977 248.787 67.7931 248.394C68.0032 248.393 68.2111 248.439 68.4031 248.53C68.5951 248.62 68.7666 248.754 68.9062 248.921C69.0458 249.088 69.1501 249.285 69.2123 249.499C69.2745 249.712 69.2931 249.937 69.2669 250.159C69.2669 250.159 69.2669 250.16 69.2669 251.532C68.1615 255.455 73.6882 256.435 72.5828 260.554C72.5828 260.554 72.5829 260.554 73.6882 261.927C75.2646 263.124 77.1049 263.867 79.0306 264.084L89.8996 265.653H92.2944C92.2944 265.653 92.2944 266.829 92.2944 267.614C92.2944 268.398 92.2944 268.987 91.0049 268.79C89.7153 268.594 84.0045 268.79 81.2412 266.633C80.2177 266.322 79.1329 266.322 78.1094 266.633C73.4539 267.123 68.7643 267.123 64.1087 266.633H62.8192C60.0559 268.987 56.5556 267.614 53.7923 269.379C52.663 270.09 51.3433 270.38 50.0419 270.202C48.7406 270.024 47.532 269.39 46.6077 268.398C45.7692 267.673 44.7806 267.17 43.7236 266.932C42.6666 266.693 41.5715 266.725 40.5285 267.025C37.7685 266.823 34.9986 266.823 32.2386 267.025H30.7648C28.7384 267.025 28.0015 264.084 25.9751 263.888C23.9487 263.691 23.5802 263.888 23.2117 263.888C22.8433 263.888 21.3696 267.026 19.1589 265.849C16.9483 264.672 14.0007 263.692 11.7901 266.829C9.57945 269.967 9.57949 266.829 8.65838 266.829C5.94898 265.504 2.97777 264.898 0 265.064V269.183C6.17005 268.865 12.3537 269.326 18.422 270.556C24.5366 271.408 30.7295 271.408 36.8441 270.556H45.8709C48.2657 270.556 50.4764 270.556 52.8713 270.556C65.1962 270.905 77.495 271.952 89.7153 273.693C101.203 276.332 112.83 278.232 124.533 279.381ZM152.166 268.987H153.824C153.824 268.987 153.824 270.163 152.903 270.359C151.982 270.556 152.35 269.771 152.166 268.987ZM61.7138 241.334C62.2883 241.039 62.9181 240.886 63.5561 240.886C64.194 240.886 64.8237 241.039 65.3982 241.334C65.3982 241.334 66.5036 241.334 65.3982 242.707C64.2929 244.08 65.3983 243.884 63.9245 243.884C62.9562 243.3 62.1833 242.408 61.7138 241.334ZM75.8988 260.554H82.7149C82.7149 260.554 83.8203 260.554 84.3729 262.123C81.7938 262.123 79.0306 262.123 76.6357 263.692L75.8988 260.554ZM77.7411 263.103V261.927H78.8463C78.8463 261.927 80.6885 261.927 81.057 261.927C81.0932 262.158 81.0863 262.395 81.0365 262.624C80.9867 262.853 80.8951 263.069 80.7668 263.261C80.6385 263.452 80.4761 263.614 80.2888 263.739C80.1015 263.863 79.8931 263.947 79.6754 263.986C79.4576 264.024 79.2349 264.017 79.0198 263.964C78.8048 263.911 78.6016 263.813 78.422 263.677C78.2424 263.54 78.0898 263.367 77.973 263.168C77.8561 262.968 77.7773 262.747 77.7411 262.515V263.103ZM30.949 270.163H32.0543C32.0543 270.163 31.3175 269.967 30.949 269.575V270.163Z" fill="#FFDA00"/>
<path d="M43.3641 435.234C38.7387 434.246 34.0604 433.578 29.3572 433.232C26.5993 433.526 23.8214 433.526 21.0635 433.232C19.534 432.733 17.9262 432.582 16.3406 432.789C14.7551 432.996 13.2258 433.555 11.8484 434.433C10.7426 434.433 11.8484 435.834 11.8484 436.635L13.3228 437.636C14.6129 437.636 14.6129 439.838 13.3228 440.438C11.2244 442.766 9.42649 445.393 7.97803 448.245C7.97803 448.245 7.97803 449.246 7.97803 449.446C8.69858 449.85 9.32862 450.421 9.82356 451.118C10.3185 451.815 10.6662 452.622 10.8421 453.482C11.0179 454.341 11.0176 455.232 10.8412 456.091C10.6647 456.951 10.3165 457.758 9.82103 458.455C9.17545 460.188 9.17545 462.126 9.82103 463.859C10.0985 464.484 10.2427 465.168 10.2427 465.861C10.2427 466.555 10.0985 467.239 9.82103 467.863C9.82103 469.465 9.82105 470.465 10.9269 471.466C13.6717 474.121 17.2045 475.613 20.8792 475.67C32.8785 476.77 44.8143 478.574 56.634 481.075C66.5863 483.077 76.5386 483.677 86.6753 484.878C88.1369 485.176 89.6369 485.176 91.0986 484.878C95.3055 484.078 99.6085 484.078 103.815 484.878C118.56 486.68 133.304 487.481 148.048 488.482C155.605 488.482 163.161 488.482 170.533 490.283C177.905 492.085 179.564 490.283 183.987 490.283L225.087 493.486L256.603 494.887L285.538 496.088C303.968 496.088 323.689 494.687 342.856 495.088C349.307 495.088 355.757 494.086 361.287 493.886C375.415 493.456 389.508 492.119 403.492 489.883C416.577 487.881 429.479 485.879 442.38 483.477C455.281 481.075 467.629 478.673 480.346 475.87C493.063 473.068 503.753 470.466 515.548 467.863C520.893 466.662 526.238 466.262 531.398 465.261C539.936 463.647 548.37 461.441 556.648 458.655C563.35 457.182 569.896 454.969 576.184 452.049C577.023 451.758 577.925 451.758 578.764 452.049C581.344 452.049 584.293 452.049 586.32 455.052C588.348 458.054 587.979 455.052 588.716 455.052C589.453 455.052 588.716 453.25 588.716 452.449C587.633 450.473 586.113 448.821 584.293 447.645L573.972 441.639C571.78 440.133 569.175 439.497 566.6 439.838C564.713 440.237 562.773 440.237 560.887 439.838C554.514 437.68 547.796 436.999 541.166 437.836C537.942 438.11 534.699 437.771 531.582 436.835C524.301 434.762 516.809 433.686 509.282 433.632H484.217C477.766 433.632 471.315 433.632 465.786 433.632C454.728 433.632 443.854 434.833 432.98 436.435C422.106 438.036 410.864 439.037 399.806 440.639L387.089 443.041C374.925 444.442 362.761 446.043 350.228 447.044C332.904 448.446 315.579 449.447 298.071 449.847C287.209 450.648 276.31 450.648 265.449 449.847H261.026H257.155C251.571 449.447 245.968 449.447 240.384 449.847C236.954 450.25 233.493 450.25 230.063 449.847C224.733 449.244 219.359 449.244 214.029 449.847C207.053 451.046 199.915 450.428 193.202 448.045C192.353 447.838 191.472 447.838 190.622 448.045C184.877 447.145 179.043 447.145 173.298 448.045C172.076 448.252 170.833 448.252 169.612 448.045H141.966C136.606 448.123 131.248 447.788 125.932 447.044C118.086 445.55 110.118 444.946 102.157 445.243C98.0872 445.22 94.068 444.265 90.3614 442.44C87.7054 441.25 84.7237 441.25 82.0677 442.44C80.005 442.947 77.8641 442.947 75.8014 442.44C64.7432 438.637 53.8694 438.637 43.3641 435.234Z" fill="#FFDA00"/>
<path d="M494.343 268.11H500.06C503.095 266.116 506.734 265.475 510.202 266.324C509.649 267.911 508.727 267.911 507.621 267.911L497.478 269.3C496.556 269.498 495.265 269.498 495.265 270.688C495.403 270.857 495.574 270.992 495.764 271.085C495.955 271.178 496.162 271.226 496.371 271.226C496.581 271.226 496.788 271.178 496.978 271.085C497.169 270.992 497.339 270.857 497.478 270.688C499.549 269.795 501.861 269.795 503.932 270.688C508.543 273.664 512.415 270.688 516.657 269.498C518.058 269.214 519.497 269.214 520.898 269.498C522.764 270.088 524.749 270.088 526.615 269.498C528.641 268.71 530.859 268.71 532.885 269.498C533.807 269.895 535.098 270.49 533.807 271.878C532.516 273.267 533.807 273.267 533.807 273.267C538.59 274.403 543.479 274.935 548.376 274.854C549.194 274.628 550.048 274.6 550.877 274.771C551.706 274.943 552.489 275.31 553.171 275.846C553.639 276.244 553.965 276.805 554.093 277.432C554.277 279.019 552.986 279.019 552.986 279.019H544.134C544.134 280.011 545.794 280.011 545.794 280.011C548.789 279.518 551.836 279.518 554.83 280.011H564.42C568.284 280.104 572.124 280.704 575.853 281.796C577.678 282.48 579.414 283.413 581.017 284.573C584.152 287.152 585.074 289.136 581.017 291.913C577.523 294.17 573.729 295.842 569.768 296.872C563.305 298.488 556.65 299.023 550.036 298.458C542.55 297.762 535.023 297.762 527.537 298.458C518.501 299.648 509.096 300.64 500.06 302.029C486.966 303.616 474.057 305.599 461.149 307.385C451.559 308.773 442.523 310.757 433.118 311.947L431.245 312.205C416.023 314.3 400.959 316.373 385.724 317.898C375.95 319.088 365.992 320.08 356.218 320.08L331.875 322.063L300.894 324.047L272.863 325.832C263.484 326.758 254.063 327.09 244.648 326.824C229.824 326.154 214.977 327.285 200.389 330.196C194.677 331.355 188.862 331.821 183.054 331.584C182.264 331.396 181.446 331.396 180.657 331.584C178.934 332.472 177.032 332.881 175.124 332.774C166.193 334.06 157.206 334.854 148.2 335.155C144.696 335.353 141.377 336.345 138.057 336.345C131.234 337.733 124.411 337.733 117.587 337.733C111.539 339.413 105.194 339.413 99.146 337.733C90.6451 336.503 82.579 335.739 74.3053 334.2C74.54 334.278 74.7688 334.335 74.988 334.361C74.6638 334.814 74.2434 335.176 73.762 335.418C73.2807 335.659 72.7525 335.773 72.2217 335.75L53.5961 331.981C52.6307 332.268 51.6109 332.268 50.6455 331.981C50.3478 331.844 50.0888 331.626 49.8946 331.347C49.74 331.125 49.6307 330.872 49.573 330.603C45.7335 330.321 41.9071 329.854 38.1054 329.204L38.1054 329.204C36.4457 328.807 36.4457 328.807 33.4951 326.427C35.708 324.443 39.5807 323.451 39.5807 319.881C37.0926 318.64 34.3929 317.964 31.6509 317.898V310.955V309.17C32.2712 308.223 32.826 307.229 33.3106 306.195C32.573 306.195 31.8354 306.393 30.5445 306.195C29.2536 305.996 29.2536 304.806 29.2536 304.806C29.2449 304.585 29.2856 304.365 29.372 304.164C29.4585 303.963 29.5884 303.787 29.7508 303.652C29.9132 303.516 30.1034 303.424 30.3056 303.383C30.5078 303.342 30.7162 303.354 30.9133 303.417C32.7574 304.012 31.8353 302.426 32.7574 301.236C33.6795 300.045 36.2612 300.045 36.2612 298.458C36.3432 298.272 36.3858 298.069 36.3858 297.863C36.3858 297.657 36.3432 297.454 36.2612 297.268H34.6015C33.495 296.276 34.6015 295.285 34.6015 295.285C38.8947 295.18 43.1237 296.42 46.7727 298.855C48.4325 300.64 50.8299 298.855 51.1987 298.855H53.5961H62.4479C67.9803 298.855 73.6971 297.863 78.8606 298.855C84.0242 299.847 89.0034 298.855 94.1669 299.847C107.931 302.424 121.972 302.825 135.844 301.037C137.314 300.846 138.8 300.846 140.27 301.037C143.899 301.307 147.541 300.767 150.966 299.45C156.051 297.533 161.455 296.789 166.826 297.268C167.404 297.553 168.033 297.701 168.67 297.701C169.306 297.701 169.935 297.553 170.514 297.268C173.213 295.847 176.176 295.101 179.181 295.086H181.025C182.501 296.078 182.685 295.681 185.636 295.086C188.586 294.491 188.586 294.69 188.586 297.863C189.877 296.276 191.537 295.682 193.012 296.277C194.487 296.872 197.069 297.07 197.069 294.095C197.327 293.955 197.611 293.883 197.899 293.883C198.187 293.883 198.472 293.955 198.729 294.095C200.195 294.347 201.622 294.814 202.971 295.483C205.183 296.475 205.737 295.681 206.474 294.293C207.212 292.904 208.503 291.516 209.056 291.516C209.609 291.516 209.425 289.136 210.716 291.516C212.007 293.896 214.22 293.896 216.248 293.896H216.248H220.674C221.596 294.888 222.149 298.062 222.703 293.896C223.256 289.731 225.469 289.731 227.866 289.731H227.866C234.45 288.435 241.199 288.435 247.783 289.731C256.439 291.224 265.227 291.623 273.969 290.921C275.998 290.723 277.289 289.334 279.317 292.111C281.346 294.888 283.19 294.491 285.587 293.103C292.078 290.238 299.042 288.821 306.057 288.937C311.405 287.747 316.753 287.747 322.101 287.747H322.101H325.974C328.481 288.143 331.028 288.143 333.535 287.747C337.159 287.551 340.791 287.551 344.415 287.747C347.366 287.549 346.444 290.921 347.366 290.921H348.288C351.478 290.723 354.578 289.703 357.324 287.945C359.193 286.357 361.42 285.33 363.779 284.97C367.827 284.564 371.902 284.564 375.95 284.97C379.361 284.967 382.761 284.568 386.092 283.78C390.914 282.892 395.778 282.296 400.661 281.995C408.832 281.524 416.965 280.464 425.004 278.821C430.607 277.291 436.373 276.558 442.154 276.639C444.482 276.562 446.784 276.093 448.977 275.25C451.579 274.272 454.352 273.933 457.091 274.259C459.394 274.857 461.796 274.857 464.099 274.259C468.595 272.689 473.23 271.625 477.93 271.085C483.462 270.292 488.81 269.101 494.343 268.11Z" fill="#FFDA00"/>
<path d="M413.166 78.4862L366.283 87.2031C362.591 87.2031 359.084 89.1841 355.577 90.1746C351.025 93.5856 345.623 95.4493 340.072 95.5237C338.57 95.8025 337.09 96.1998 335.642 96.7123C332.689 98.4953 329.366 96.7123 326.413 98.8915C323.46 101.071 323.829 98.8915 322.537 98.8915C318.915 98.8951 315.332 99.7045 312.016 101.269C308.524 103.703 304.302 104.623 300.203 103.844C299.238 103.547 298.214 103.547 297.249 103.844C295.849 104.516 294.35 104.918 292.82 105.033C288.854 104.243 284.787 104.243 280.822 105.033C280.822 105.033 278.976 105.033 277.868 105.033L278.976 107.806C279.804 108.496 280.548 109.295 281.191 110.184C281.191 110.184 281.191 111.967 281.191 112.363C279.109 113.656 276.777 114.418 274.377 114.59C271.976 114.762 269.571 114.339 267.347 113.353L272.885 111.571C272.885 111.571 272.885 110.382 272.885 109.788C272.972 109.464 272.972 109.121 272.885 108.797C267.234 107.277 261.275 107.763 255.903 110.184C254.427 110.184 252.212 111.372 253.873 113.948C255.534 116.523 253.873 114.938 253.873 115.136C249.376 117.799 244.179 118.776 239.107 117.91C237.261 117.91 234.861 117.91 233.015 116.127C236.656 113.92 240.923 113.216 245.013 114.146H247.044C248.151 114.146 249.997 114.146 249.997 112.165C249.997 110.184 248.151 111.174 247.228 111.174C246.305 111.174 244.644 111.174 243.352 111.174C242.06 111.174 235.6 111.174 233.015 107.41C231.41 106.438 229.598 105.927 227.755 105.927C225.912 105.927 224.1 106.438 222.494 107.41C220.881 108.014 219.124 108.014 217.511 107.41C216.463 107.136 215.363 107.196 214.347 107.583C213.33 107.97 212.441 108.667 211.789 109.589C211.17 110.204 210.443 110.678 209.65 110.985C208.858 111.291 208.016 111.423 207.174 111.373C205.144 111.373 203.298 111.373 201.268 111.373H195.546C193.515 111.373 191.3 113.156 189.455 111.373C187.609 109.59 186.317 112.759 184.102 111.373C181.472 110.391 178.61 110.391 175.98 111.373C173.851 111.865 171.649 111.865 169.52 111.373C167.011 110.971 164.461 110.971 161.952 111.373C157.658 111.872 153.326 111.872 149.031 111.373C147.568 111.077 146.065 111.077 144.601 111.373C142.452 111.575 140.29 111.575 138.141 111.373C131.378 111.768 124.6 111.768 117.837 111.373C116.716 111.298 115.605 111.649 114.699 112.363C110.609 114.445 106.12 115.464 101.594 115.335C101.052 115.164 100.475 115.164 99.9331 115.335C99.9331 115.335 99.9331 115.335 99.9331 116.523C99.9331 117.712 99.933 118.306 98.6409 117.712C97.1627 116.895 95.4969 116.551 93.8419 116.721C91.4824 116.599 89.1364 116.268 86.8278 115.731C86.2823 115.811 85.7268 115.744 85.2113 115.537C84.6958 115.329 84.2365 114.987 83.8745 114.542C82.2133 111.174 79.4446 111.57 76.6759 111.769C75.2129 112.073 73.709 112.073 72.246 111.769C70.3935 111.074 68.3764 111.074 66.524 111.769C64.6715 112.463 62.6544 112.463 60.802 111.769C58.7716 111.769 57.6641 111.769 56.3721 113.75L52.4958 111.571L46.4047 109.391C43.636 111.174 41.6056 109.391 39.2061 107.806L36.2528 106.816C29.4233 105.429 22.5938 105.033 15.9489 103.448C13.5494 103.448 11.3344 103.448 10.4115 100.08C9.48862 96.7123 10.4116 100.08 8.93492 100.08C7.45827 100.08 7.27365 101.467 7.08907 102.656C6.63476 104.321 6.53159 106.074 6.787 107.787C7.04242 109.5 7.65003 111.131 8.56575 112.561C8.56575 113.552 8.56575 113.948 8.56575 114.74L2.65918 120.089C5.15915 122.47 8.08572 124.278 11.2596 125.402C14.4335 126.526 17.788 126.943 21.1172 126.627C23.2665 126.424 25.4282 126.424 27.5775 126.627C33.6687 126.627 39.5752 128.608 46.0355 128.608C47.3205 128.402 48.6268 128.402 49.9117 128.608C53.7017 130.22 57.674 131.286 61.7248 131.778C67.4428 132.928 73.2619 133.393 79.0754 133.164C82.0839 132.868 85.1114 132.868 88.1199 133.164C95.7395 134.553 103.466 135.15 111.192 134.947C115.253 134.947 119.314 134.947 123.375 134.947L143.309 137.127C146.714 137.394 150.103 137.857 153.461 138.514C156.885 139.106 160.374 139.106 163.798 138.514C168.043 138.514 172.289 138.514 176.718 138.514H195.177C204.036 138.514 213.635 138.514 221.756 138.514C232.014 139.402 242.323 139.402 252.581 138.514C254.298 138.309 256.032 138.309 257.749 138.514C268.455 138.514 279.161 137.127 289.866 136.929C296.511 136.929 303.156 136.929 309.801 135.542L361.668 129.004C368.497 129.004 375.327 127.221 382.156 125.835C394.708 123.259 407.444 121.08 420.18 119.297C431.57 118.085 442.861 115.966 453.958 112.957L465.033 109.788C476.662 107.212 488.29 104.637 499.55 101.269C510.809 97.9009 519.115 94.335 529.082 91.1652C533.142 88.4743 537.788 86.9716 542.557 86.8068C545.547 86.4252 548.369 85.1172 550.678 83.0426C551.616 81.9466 552.835 81.1734 554.182 80.8208C555.529 80.4682 556.943 80.5522 558.246 81.0617C562.077 81.6761 565.846 82.6708 569.505 84.0332H570.428C570.428 84.0332 570.428 82.8445 569.505 82.4483C566.466 80.7107 563.771 78.3556 561.569 75.5143C560.835 74.4978 559.878 73.6938 558.782 73.1749C557.686 72.656 556.487 72.4387 555.293 72.5428C552.739 72.8252 550.166 72.2728 547.91 70.9579C545.71 70.0592 543.28 70.0592 541.08 70.9579C535.768 71.8398 530.396 72.2374 525.022 72.1465C517.965 71.3518 510.851 71.3518 503.795 72.1465C499.768 73.1856 495.521 72.4736 491.982 70.1656C490.946 69.9415 489.879 69.9415 488.844 70.1656C481.047 68.4793 473.015 68.4793 465.218 70.1656C446.944 71.7505 430.147 75.3164 413.166 78.4862ZM221.756 117.514C220.649 117.514 219.172 117.514 217.88 117.514C218.385 117.201 218.958 117.036 219.541 117.036C220.124 117.036 220.697 117.201 221.202 117.514H221.756ZM114.515 117.514C114.515 117.514 114.33 118.306 113.961 117.91L114.515 117.514ZM125.221 117.514C125.221 117.514 125.221 116.325 125.221 115.731C125.221 115.137 125.221 115.731 126.143 115.731C127.066 115.731 126.143 115.731 126.143 117.316C126.143 118.901 125.22 118.703 124.667 118.108L125.221 117.514ZM149.585 116.127C142.94 117.91 142.94 117.91 139.433 116.127C142.387 115.731 145.155 117.118 149.216 116.721L149.585 116.127ZM166.382 119.099C163.247 118.903 160.104 118.903 156.968 119.099C156.968 119.099 155.492 119.099 155.492 118.108C155.492 117.118 155.492 116.721 157.153 116.721H173.027C173.027 116.721 174.319 116.721 174.503 117.712C173.357 118.849 171.946 119.634 170.42 119.982C168.893 120.331 167.307 120.231 165.828 119.693L166.382 119.099ZM190.377 117.514L195.361 115.335C196.151 115.14 196.971 115.14 197.761 115.335C198.033 115.403 198.289 115.53 198.513 115.71C198.737 115.889 198.924 116.115 199.063 116.376C199.201 116.636 199.288 116.924 199.318 117.223C199.348 117.521 199.321 117.822 199.237 118.108C199.076 118.525 198.786 118.87 198.417 119.086C198.048 119.302 197.621 119.377 197.207 119.297C194.438 119.693 192.223 118.703 189.824 118.108L190.377 117.514ZM206.99 118.901C206.99 118.901 205.882 118.901 205.698 117.91C205.547 117.678 205.466 117.401 205.466 117.118C205.466 116.834 205.547 116.558 205.698 116.325H209.02H210.497C210.578 116.476 210.62 116.647 210.62 116.82C210.62 116.994 210.578 117.165 210.497 117.316C209.071 117.877 207.709 118.608 206.436 119.495L206.99 118.901ZM259.041 114.344H260.149C260.149 114.344 258.488 115.731 258.488 114.938L259.041 114.344ZM290.051 109.589H296.696C293.927 112.165 290.974 111.174 288.39 111.769C285.805 112.363 288.759 110.184 289.497 110.184L290.051 109.589ZM305.002 109.589C305.002 109.589 305.002 109.59 305.002 108.599C305.002 107.608 304.448 109.986 304.448 110.382L305.002 109.589Z" fill="#FFDA00"/>
<path d="M498.532 490.576H500.377C506.28 491.169 511.629 489.588 518.639 496.107C521.395 496.059 524.119 496.737 526.571 498.083C528.997 499.071 531.545 499.67 534.134 499.861C535.241 500.058 535.979 500.256 536.163 502.034C536.348 503.812 534.688 503.812 534.688 503.812H533.396C533.48 504.159 533.672 504.466 533.94 504.682C534.208 504.897 534.537 505.008 534.872 504.997H549.076C550.337 504.72 551.639 504.755 552.886 505.097C554.132 505.439 555.289 506.081 556.27 506.972C556.635 507.198 557.048 507.316 557.469 507.316C557.89 507.316 558.304 507.198 558.668 506.972C560.882 505.59 562.911 505.194 562.911 508.948C562.911 508.948 564.571 509.343 564.571 508.948V507.17C564.657 507.047 564.769 506.948 564.897 506.879C565.025 506.81 565.166 506.775 565.309 506.775C565.452 506.775 565.594 506.81 565.722 506.879C565.85 506.948 565.961 507.047 566.047 507.17C566.174 507.553 566.174 507.972 566.047 508.355C566.969 509.145 565.863 510.923 566.969 510.923C570.701 509.738 574.674 509.738 578.406 510.923L576.193 512.504C574.495 514.1 572.375 515.091 570.127 515.339C567.879 515.586 565.615 515.079 563.649 513.886C563.51 513.718 563.34 513.584 563.149 513.491C562.958 513.399 562.752 513.351 562.542 513.351C562.333 513.351 562.126 513.399 561.935 513.491C561.744 513.584 561.574 513.718 561.435 513.886C561.325 514.539 561.325 515.209 561.435 515.862C561.62 517.245 563.833 517.837 562.911 519.418C561.989 520.998 559.96 520.998 558.3 520.998H558.299C548.183 522.866 537.943 523.857 527.678 523.961C526.573 523.867 525.463 523.867 524.358 523.961C515.849 526.069 507.223 527.587 498.532 528.505L492.814 529.492C484.064 531.729 475.192 533.378 466.251 534.431C465.235 534.055 464.131 534.055 463.115 534.431C456.734 538.281 449.588 540.448 442.27 540.752C436.183 541.542 430.095 543.321 423.823 544.703C417.552 546.086 413.309 547.469 405.377 548.456C397.445 549.444 388.221 552.012 381.765 552.605C375.309 553.198 367.746 554.581 363.318 554.581H349.852C345.647 555.411 341.395 555.938 337.124 556.161C334.118 556.455 331.092 556.455 328.085 556.161C327.484 555.963 326.842 555.963 326.241 556.161C320.92 557.845 315.351 558.449 309.823 557.939H297.648C294.661 558.529 291.597 558.529 288.61 557.939C286.731 557.445 284.769 557.445 282.891 557.939C277.567 558.736 272.166 558.736 266.842 557.939C262.396 557.403 257.896 557.738 253.561 558.927H249.134H217.59C212.892 558.83 208.196 559.227 203.571 560.112C199.09 560.509 194.585 560.509 190.104 560.112C185.677 559.914 181.619 561.692 177.376 561.692H158.93H157.638C153.61 563.747 149.022 564.168 144.726 562.877C143.251 562.782 141.773 562.782 140.299 562.877L113.366 560.902C97.3179 559.717 81.2693 557.346 65.2207 557.346C61.3469 557.149 57.4731 555.963 53.5993 555.963C53.1762 555.939 52.7709 555.774 52.4401 555.49C52.1093 555.207 51.8696 554.82 51.7547 554.383C51.5702 552.802 53.4149 552.802 53.4149 552.802C54.3639 552.277 55.1373 551.448 55.6284 550.432L49.1721 547.666C48.9547 544.771 48.2022 541.951 46.9585 539.37C46.0456 537.828 45.4717 536.085 45.2799 534.271C45.0882 532.457 45.2837 530.621 45.8517 528.9C46.5896 527.912 46.9585 527.319 48.6187 527.912C50.2789 528.505 50.2789 527.122 50.2789 526.134C49.8595 525.102 49.4901 524.047 49.1721 522.973C49.03 522.643 48.9757 522.277 49.0154 521.916C49.055 521.555 49.187 521.212 49.3969 520.926C49.6067 520.64 49.8863 520.422 50.2046 520.295C50.523 520.168 50.8679 520.138 51.2013 520.208C54.7061 520.8 58.7644 519.615 62.0848 522.776C63.462 523.887 65.1589 524.446 66.8809 524.356C73.5217 522.776 79.4246 524.356 85.3275 524.356C88.3817 523.272 91.6812 523.272 94.7353 524.356C96.3955 525.542 98.4246 524.356 100.454 524.356C107.988 522.578 115.793 522.578 123.328 524.356H125.726C135.502 522.776 144.541 524.356 153.949 524.356C155.851 524.162 157.766 524.162 159.667 524.356C159.667 524.356 159.852 525.739 159.667 525.739H158.192L156.532 526.727C158.178 527.054 159.866 527.054 161.512 526.727C162.888 526.23 164.379 526.23 165.755 526.727C167.639 527.043 169.563 526.546 171.104 525.344C171.896 524.523 172.954 524.064 174.056 524.064C175.158 524.064 176.216 524.523 177.007 525.344C177.556 525.9 178.282 526.209 179.037 526.209C179.791 526.209 180.517 525.9 181.066 525.344C182.134 524.673 183.243 524.079 184.386 523.566C185.44 522.977 186.61 522.67 187.799 522.67C188.987 522.67 190.158 522.977 191.211 523.566L193.978 525.344C194.313 525.622 194.703 525.814 195.118 525.905C195.533 525.996 195.962 525.984 196.372 525.869C196.782 525.755 197.162 525.541 197.482 525.244C197.803 524.948 198.056 524.576 198.221 524.159C198.567 523.433 199.096 522.826 199.748 522.407C200.4 521.988 201.15 521.773 201.91 521.788H218.512C219.155 521.796 219.788 521.959 220.364 522.267C220.939 522.575 221.441 523.02 221.833 523.566H223.493C225.707 519.022 226.444 521.591 227.736 523.566C228.078 523.995 228.502 524.34 228.979 524.579C229.457 524.817 229.976 524.943 230.503 524.949H236.221C237.881 520.998 241.202 522.183 243.784 520.998C246.003 519.561 248.574 518.873 251.163 519.023H274.775V520.8C274.775 521.986 273.852 520.8 274.775 521.986C275.697 523.171 279.202 521.788 279.386 520.8C279.571 519.813 279.571 518.825 280.677 518.825H283.813H306.318C307.948 519.304 309.669 519.304 311.299 518.825C312.324 518.512 313.41 518.512 314.435 518.825C320.224 520.005 326.17 520.005 331.959 518.825C336.755 517.64 341.367 517.64 346.163 517.64H346.163C358.958 516.754 371.703 515.172 384.348 512.899C394.493 511.318 404.27 507.762 414.231 507.762C417.649 507.422 421.004 506.558 424.192 505.195C428.291 503.645 432.481 502.391 436.736 501.441L448.542 498.478C453.356 496.497 458.567 495.885 463.668 496.7C466.066 498.28 468.095 496.7 470.493 496.7C473.073 496.894 475.662 496.894 478.241 496.7C478.794 496.7 477.872 499.268 480.086 496.7C482.299 494.132 486.542 496.107 488.387 494.132C490.231 492.156 491.707 494.527 493.921 494.132C496.134 493.737 496.503 490.576 498.532 490.576Z" fill="#FFDA00"/>
<path d="M249.978 245.119C247.634 242.948 244.898 242.554 243.14 240.384C242.457 239.985 241.682 239.776 240.893 239.776C240.104 239.776 239.329 239.985 238.646 240.384H234.738C229.268 240.384 229.268 240.384 231.222 245.908C231.222 248.078 232.589 248.275 234.738 247.881L249.978 245.119Z" fill="#FFDA00"/>
<path d="M45.2088 253.106C45.1861 252.71 45.0312 252.331 44.7658 252.022C44.5003 251.713 44.1377 251.489 43.7288 251.382C40.8274 250.606 37.7503 250.606 34.8489 251.382C33.6065 251.933 32.2477 252.219 30.8715 252.219C29.4953 252.219 28.1365 251.933 26.894 251.382C26.4598 251.1 25.9432 250.949 25.414 250.949C24.8848 250.949 24.3684 251.1 23.9341 251.382C26.339 254.657 26.339 254.657 28.559 254.829H38.7339C39.6817 254.998 40.6586 254.962 41.5889 254.723C42.5193 254.484 43.378 254.048 44.0988 253.45C44.0988 253.45 45.2088 253.623 45.2088 253.106Z" fill="#FFDA00"/>
<path d="M178.908 249.212C178.908 246.882 178.908 245.611 180.706 244.975C182.505 244.34 181.785 243.704 182.145 242.857C182.505 242.01 177.828 242.857 176.03 244.975C174.231 247.094 173.332 246.246 172.793 247.941C172.253 249.636 171.534 247.941 171.174 247.941C170.814 247.941 167.037 246.67 164.879 247.941C164.879 251.755 164.879 252.178 167.577 252.178C170.799 251.661 174.066 251.661 177.289 252.178C178.548 251.755 179.267 250.695 178.908 249.212Z" fill="#FFDA00"/>
<path d="M61.5508 254.26C61.5508 253.129 62.8566 253.317 63.6028 253.317C64.3489 253.317 65.8412 253.317 66.4008 252.186C66.9604 251.055 64.5354 252.186 63.4162 250.867C58.7514 250.592 54.0758 251.166 49.6123 252.563C49.6123 252.563 48.6796 252.563 49.6123 254.071C50.0183 254.607 50.5255 255.055 51.1046 255.391C52.97 255.391 54.4623 258.03 56.8873 257.653C57.8647 257.471 58.7899 257.073 59.5964 256.486C60.4028 255.899 61.0703 255.139 61.5508 254.26Z" fill="#FFDA00"/>
<path d="M215.407 245.334C216.772 246.558 218.342 247.397 220.004 247.789C221.665 248.182 223.377 248.12 225.016 247.606C225.016 247.606 226.196 247.606 226.028 246.367C225.859 245.127 226.028 245.127 225.016 244.714H223.667V243.268C219.79 240.17 217.767 240.17 215.407 245.334Z" fill="#FFDA00"/>
<path d="M95.7363 57.5766C96.5591 58.3487 97.5717 58.8808 98.6671 59.117C99.7626 59.3532 100.9 59.2848 101.961 58.9187C103.672 58.416 105.318 57.7082 106.865 56.81C108.751 55.6598 106.865 54.7012 106.865 53.7427C104.902 54.5987 102.774 54.9919 100.64 54.8928C99.6517 54.7819 98.6531 54.9792 97.7771 55.4586C96.9012 55.9379 96.1895 56.6766 95.7363 57.5766Z" fill="#FFDA00"/>
<path d="M127.17 245.902C126.973 245.709 126.73 245.555 126.458 245.449C126.186 245.343 125.891 245.288 125.593 245.288C125.295 245.288 125 245.343 124.728 245.449C124.456 245.555 124.213 245.709 124.016 245.902C123.484 246.143 123.043 246.51 122.745 246.96C122.447 247.41 122.304 247.924 122.333 248.442C122.427 248.864 122.653 249.257 122.986 249.577C123.32 249.896 123.749 250.131 124.226 250.256C125.226 250.615 126.298 250.8 127.381 250.8C128.464 250.8 129.536 250.615 130.535 250.256C131.444 249.732 132.15 248.986 132.563 248.113C132.975 247.24 133.075 246.28 132.849 245.358C132.237 245.464 131.659 245.68 131.151 245.993C130.644 246.306 130.219 246.707 129.904 247.172C128.642 248.26 128.012 248.442 127.17 245.902Z" fill="#FFDA00"/>
<path d="M228.313 264.841H230.033C230.033 264.841 230.033 263.433 230.033 263.232C228.811 263.068 227.635 262.587 226.593 261.824H225.561C225.561 263.835 222.464 263.634 221.26 265.243C220.056 266.852 221.26 265.243 221.26 265.243C221.887 265.357 222.525 265.357 223.152 265.243L228.313 264.841Z" fill="#FFDA00"/>
<path d="M206.018 250L207.302 248.6C207.471 248.014 207.471 247.386 207.302 246.8C206.701 246.621 206.068 246.621 205.467 246.8C202.255 247.824 198.892 248.164 195.562 247.8C193.911 247.8 193.911 249.4 194.461 250.8C198.073 249.801 201.856 249.801 205.467 250.8C205.467 250.8 205.651 250.2 206.018 250Z" fill="#FFDA00"/>
<path d="M42.3609 59.2547C41.5757 58.1403 40.5344 57.2784 39.3454 56.7584C39.1486 56.5829 38.9899 56.3609 38.8809 56.109C38.7719 55.857 38.7153 55.5813 38.7153 55.3021C38.7153 55.0228 38.7719 54.7471 38.8809 54.4952C38.9899 54.2432 39.1486 54.0215 39.3454 53.846C39.3454 52.3898 39.3454 51.7657 38.2146 50.9336C36.1719 50.0396 34.0032 49.5466 31.8066 49.4772C29.4093 49.5317 27.0502 48.8085 25.0217 47.3971C24.0881 46.8354 23.0635 46.4819 22.0062 46.3569C20.5248 46.0442 19.1151 45.4077 17.8599 44.4847C14.3118 42.0776 10.3178 40.5842 6.17483 40.1159C5.36865 39.9112 4.53088 39.9112 3.72471 40.1159C2.78236 40.1159 2.02852 40.1159 1.84005 41.7802C1.67961 41.9364 1.55111 42.1284 1.4631 42.3436C1.37509 42.5588 1.32959 42.7922 1.32959 43.0283C1.32959 43.2644 1.37509 43.4978 1.4631 43.713C1.55111 43.9282 1.67961 44.1203 1.84005 44.2765C2.60602 44.7153 3.2534 45.3698 3.71673 46.1734C4.18005 46.9771 4.44286 47.9014 4.4786 48.8532C6.9287 50.3094 9.00183 51.7655 8.05949 55.3021C7.9595 55.5289 7.90757 55.778 7.90757 56.0303C7.90757 56.2825 7.9595 56.5316 8.05949 56.7584C8.05949 58.0066 9.37878 58.4227 10.1327 56.7584C10.8865 55.0942 12.2058 55.5103 12.9597 56.7584C13.7136 58.0066 14.279 58.4227 15.0329 56.7584C15.7868 55.0942 17.2945 56.7584 18.2368 56.7584C18.4504 57.1788 18.7395 57.5464 19.0864 57.839C19.4334 58.1316 19.8309 58.343 20.2545 58.4599C20.6781 58.5768 21.1188 58.5968 21.5497 58.5189C21.9806 58.441 22.3925 58.2666 22.7601 58.0066C24.1916 57.4399 25.5784 56.744 26.9064 55.9261C27.1363 55.6206 27.4244 55.375 27.7502 55.2062C28.0759 55.0375 28.4313 54.95 28.7911 54.95C29.151 54.95 29.5064 55.0375 29.8321 55.2062C30.1578 55.375 30.4459 55.6206 30.6758 55.9261C32.5605 58.2145 35.3875 55.9263 37.6491 57.3825C39.9108 58.8387 41.2301 57.3824 42.5494 55.3021L42.3609 59.2547ZM6.74021 46.3569C6.92868 47.6051 6.92868 46.773 6.74021 46.3569V46.3569Z" fill="#FFDA00"/>
<path d="M50.2197 64.7669C47.9865 62.4046 46.1254 59.6486 42.5895 59.2549C42.4706 60.2437 42.6169 61.2479 43.0118 62.153C43.4067 63.058 44.0343 63.8276 44.8228 64.3734C46.4977 65.7514 48.5448 66.5387 49.1031 68.901L50.4058 66.5385C50.4058 66.5385 50.778 65.3575 50.2197 64.7669Z" fill="#FFDA00"/>
<path d="M49.1463 105.731C45.7058 104.396 42.0006 104.396 38.5601 105.731C41.9279 106.973 45.4402 107.563 48.9638 107.477C48.9638 107.477 49.3288 105.731 49.1463 105.731Z" fill="#FFDA00"/>
<path d="M254.665 253.712C254.665 253.712 253.024 253.712 252.659 255.139C252.295 256.565 256.487 257.991 259.222 257.635C259.307 257.283 259.307 256.917 259.222 256.565C258.128 253.356 257.946 253.356 254.665 253.712Z" fill="#FFDA00"/>
<path d="M55.5143 56.4493C56.6415 56.4493 58.1445 56.4493 59.8354 54.8932C56.8294 54.8932 55.5142 52.9483 53.2597 52.3647C53.0719 56.4495 53.0719 56.6439 55.5143 56.4493Z" fill="#FFDA00"/>
<path d="M73.1318 107.977C73.1318 107.977 73.1318 107.977 73.1318 108.59C74.8564 108.955 76.7259 108.955 78.4505 108.59C77.4006 108.004 76.1005 107.621 74.7078 107.486L73.1318 107.977Z" fill="#FFDA00"/>
<path d="M239.327 108.471C239.354 108.215 239.341 107.955 239.286 107.707C239.232 107.458 239.139 107.225 239.012 107.022C238.885 106.819 238.726 106.649 238.546 106.522C238.366 106.396 238.167 106.315 237.961 106.285C237.007 106.003 236.007 106.058 235.077 106.444C234.146 106.83 233.32 107.532 232.692 108.471C234.284 109.181 235.914 109.749 237.571 110.17C237.779 110.248 238 110.262 238.214 110.212C238.428 110.163 238.629 110.05 238.801 109.883C238.973 109.717 239.11 109.502 239.202 109.257C239.293 109.011 239.336 108.741 239.327 108.471Z" fill="#FFDA00"/>
<path d="M274.968 102.569C274.403 102.179 273.763 101.974 273.111 101.974C272.458 101.974 271.818 102.179 271.253 102.569C271.576 103.322 272.091 103.932 272.724 104.31C273.357 104.689 274.075 104.816 274.773 104.673H277.901C277.119 104.205 276.533 102.802 274.968 102.569Z" fill="#FFDA00"/>
<path d="M159.561 244.64C159.561 244.64 159.561 246.099 159.561 246.391C160.851 246.758 162.259 246.758 163.55 246.391C162.488 245.489 161.336 244.659 160.104 243.91C160.104 243.91 159.742 244.056 159.561 244.64Z" fill="#FFDA00"/>
<path d="M115.682 60.2184C114.646 59.5844 113.509 59.2549 112.357 59.2549C111.206 59.2549 110.069 59.5844 109.033 60.2184C112.642 62.6084 112.642 62.6084 115.682 60.2184Z" fill="#FFDA00"/>
<path d="M151.765 246.699C151.578 246.65 151.383 246.655 151.198 246.715C151.013 246.775 150.845 246.888 150.709 247.041C150.573 247.195 150.474 247.386 150.421 247.595C150.368 247.804 150.363 248.025 150.406 248.237C150.294 248.504 150.242 248.798 150.254 249.094C150.267 249.39 150.344 249.677 150.478 249.931C150.613 250.185 150.801 250.397 151.025 250.549C151.25 250.7 151.504 250.787 151.765 250.8C151.765 250.8 152.898 250.8 152.898 249.262C152.898 247.724 153.124 246.956 151.765 246.699Z" fill="#FFDA00"/>
<path d="M160.89 57.8009C161.734 57.9024 162.584 57.9024 163.427 57.8009C163.508 57.5975 163.549 57.3751 163.549 57.15C163.549 56.9248 163.508 56.7025 163.427 56.499H161.977C161.977 56.499 161.071 57.3669 160.89 57.8009Z" fill="#FFDA00"/>
<path d="M280.561 255.913C280.561 255.913 280.561 255.913 280.561 254.934H279.231C279.231 256.304 279.231 256.696 280.561 255.913Z" fill="#FFDA00"/>
<path d="M25.2641 102.377C23.0753 101.839 20.8045 101.839 18.6157 102.377C19.6264 103.015 20.7729 103.352 21.9399 103.352C23.107 103.352 24.2534 103.015 25.2641 102.377Z" fill="#FFDA00"/>
<path d="M189.478 249.422C189.478 249.422 187.982 249.422 189.478 250.376C190.974 251.33 189.478 250.376 189.478 250.376V249.422Z" fill="#FFDA00"/>
<path d="M204.769 265.958C204.769 265.958 204.769 265.958 204.769 265.269L202.11 264.58C202.11 264.58 202.11 264.58 202.11 265.269C202.11 265.958 204.769 265.958 204.769 265.958Z" fill="#FFDA00"/>
<path d="M344.385 229.282C344.385 231.19 345.996 229.282 346.917 229.282H348.299C348.399 228.653 348.399 228.002 348.299 227.374C348.299 227.374 345.536 228.327 344.385 229.282Z" fill="#FFDA00"/>
<path d="M135.627 244.771C135.627 244.771 135.627 244.771 135.627 243.221C135.627 241.671 134.532 243.221 134.219 243.221C133.887 243.221 133.568 243.439 133.334 243.827C133.099 244.214 132.967 244.74 132.967 245.288H134.375L135.627 244.771Z" fill="#FFDA00"/>
<path d="M148.789 246.678C148.789 246.678 147.764 246.678 147.593 247.593C147.658 248.201 147.658 248.814 147.593 249.422H149.131C149.299 249.398 149.461 249.339 149.608 249.248C149.755 249.156 149.884 249.035 149.987 248.891C150.09 248.746 150.165 248.582 150.209 248.406C150.253 248.23 150.264 248.047 150.241 247.867C150.219 247.687 150.163 247.513 150.078 247.356C149.993 247.199 149.88 247.061 149.745 246.951C149.61 246.84 149.457 246.759 149.292 246.713C149.128 246.666 148.957 246.654 148.789 246.678Z" fill="#FFDA00"/>
<path d="M260.615 261.037C260.615 261.037 260.615 259.462 259.38 259.068L258.299 260.25C258.299 260.25 257.527 261.234 258.299 261.824H259.226C259.226 261.824 260.461 261.037 260.615 261.037Z" fill="#FFDA00"/>
<path d="M10.6377 438.211C11.7014 438.211 12.9425 438.211 13.297 435.455C12.7572 435.612 12.2434 435.938 11.7865 436.411C11.3295 436.885 10.9387 437.497 10.6377 438.211Z" fill="#FFDA00"/>
<path d="M26.5935 239.021C25.3157 238.19 23.8823 238.19 22.6045 239.021C23.2226 239.517 23.9059 239.775 24.599 239.775C25.2921 239.775 25.9754 239.517 26.5935 239.021Z" fill="#FFDA00"/>
<path d="M180.835 58.3739C180.835 58.3739 180.835 58.374 180.835 59.2023C181.276 59.2725 181.724 59.2725 182.165 59.2023V57.877L180.835 58.3739Z" fill="#FFDA00"/>
<path d="M111.829 56.499C111.74 56.7085 111.692 56.9461 111.692 57.188C111.692 57.4299 111.74 57.6676 111.829 57.877H113.022C113.022 57.877 113.022 57.8773 113.022 56.7289L111.829 56.499Z" fill="#FFDA00"/>
<path d="M146.929 251.176C148.175 249.652 146.929 249.144 146.929 248.383C146.929 247.621 146.929 248.383 146.929 248.383C146.929 248.383 145.433 251.176 146.929 251.938C148.424 252.699 146.929 251.43 146.929 251.176Z" fill="#FFDA00"/>
<path d="M278.559 110.242H279.143C279.26 109.799 279.26 109.307 279.143 108.864C279.143 108.864 278.442 108.864 278.209 108.864C277.975 108.864 277.508 110.07 278.559 110.242Z" fill="#FFDA00"/>
<path d="M279.231 253.556V250.8H277.901C278.049 251.842 278.515 252.808 279.231 253.556Z" fill="#FFDA00"/>
<path d="M224.548 241.154L223.385 242.532L224.714 241.326L224.548 241.154Z" fill="#FFDA00"/>
<path d="M238.011 533.953C237.75 533.464 237.402 533.041 236.989 532.708C236.575 532.375 236.105 532.139 235.607 532.016C235.109 531.892 234.593 531.884 234.092 531.991C233.591 532.097 233.115 532.317 232.692 532.636C232.953 533.125 233.301 533.549 233.715 533.882C234.128 534.215 234.598 534.45 235.097 534.573C235.595 534.697 236.11 534.705 236.611 534.598C237.113 534.492 237.589 534.272 238.011 533.953Z" fill="#FFDA00"/>
</svg>
