<svg width="395" height="448" viewBox="0 0 395 448" fill="none" xmlns="http://www.w3.org/2000/svg">
<path d="M131.389 143.391C117.862 143.391 106.099 143.391 94.2192 144.189C73.4781 146.293 52.6343 145.598 31.9945 142.113C25.4074 140.676 18.7027 140.197 11.9979 139.399C11.9979 139.399 11.0569 139.399 11.2922 138.281C11.5274 137.164 11.2922 137.004 12.1156 137.004C13.6032 136.844 15.0977 136.844 16.5854 137.004C26.8189 138.122 37.0525 139.718 47.286 140.676C53.6379 140.676 60.1073 140.676 66.5768 140.676C73.0463 140.676 78.3395 140.676 85.0443 140.676C93.9839 140.676 102.924 138.282 111.981 138.601C108.76 136.879 105.326 136.011 101.865 136.046C90.0657 135.942 78.2818 134.875 66.5768 132.853C58.4606 131.735 50.2267 131.097 41.9928 130.618C33.7589 130.139 26.7013 128.063 18.4674 128.382C18.4674 128.382 16.703 128.382 17.2911 126.945C17.4843 126.419 17.8224 126.018 18.2321 125.828C22.1444 125.329 26.0825 125.329 29.9948 125.828L60.6955 128.702C67.165 128.702 73.5168 129.819 79.8686 131.097C85.2566 131.924 90.6833 132.19 96.1012 131.895C93.2126 130.563 90.2064 129.758 87.1616 129.5C69.8704 126.147 52.8145 122.475 35.8762 116.887C27.2894 114.013 18.4674 111.777 9.76297 109.223L5.29318 107.946C3.52877 107.946 1.64675 107.946 0.705733 105.072C-0.235283 102.198 2.47013 102.038 5.29318 101.24H9.05724C14.7033 101.24 20.82 102.357 25.9956 103.315C50.9948 106.935 76.1506 108.162 101.277 106.987C114.921 106.987 128.449 104.752 142.093 105.391H147.269C147.895 105.264 148.534 105.376 149.116 105.715C149.698 106.053 150.198 106.604 150.562 107.307C151.621 110.979 154.209 110.82 156.797 111.139C165.769 111.777 174.761 111.777 183.733 111.139C199.731 111.139 215.61 111.139 231.49 111.139H239.136C238.3 109.84 237.269 108.798 236.113 108.082C234.957 107.366 233.702 106.993 232.431 106.987C226.902 106.03 220.668 105.231 215.61 104.752L182.557 103.156C171.971 103.156 161.502 101.719 150.915 100.761C148.134 100.521 145.345 100.521 142.564 100.761L121.038 102.038L97.5127 104.114C94.4544 104.114 91.3962 104.114 88.2202 104.114L39.7579 102.038C31.9945 102.038 24.3488 101.08 16.2325 100.122C11.8803 100.122 7.64574 98.2061 3.29354 98.0464C2.66419 98.0653 2.04005 97.8881 1.46908 97.5282C0.898113 97.1684 0.395537 96.6357 0 95.971C1.17101 95.3398 2.4754 95.3398 3.64641 95.971C27.0962 99.1842 50.6538 100.73 74.2226 100.601H85.9853C97.0583 101.006 108.133 99.8826 119.038 97.2481C109.275 97.2481 99.6301 97.2481 89.867 97.2481C71.9218 97.0933 54.0036 95.3334 36.229 91.9794L19.6437 87.828C19.4538 87.718 19.2886 87.5421 19.1647 87.3179C19.0408 87.0937 18.9626 86.829 18.9379 86.5507C18.9379 85.4331 19.526 84.7946 20.3494 84.9542C22.4044 85.2237 24.4465 85.6501 26.4661 86.2316C43.8742 90.3695 61.4928 92.6648 79.1629 93.0969C98.2185 93.0969 117.156 93.0969 136.212 91.8196C141.229 91.4404 146.221 90.5867 151.151 89.265C150.83 88.4316 150.335 87.7451 149.728 87.2909C149.122 86.8366 148.43 86.6348 147.739 86.7105C137.039 85.086 126.276 84.3396 115.51 84.4753C100.101 84.4753 84.6914 84.4753 69.1646 84.4753C55.841 84.4995 42.5273 83.4866 29.2891 81.4417C26.8189 81.4417 24.1135 81.4417 21.6433 81.4417C19.1732 81.4417 19.4084 81.4416 19.2908 79.6854C19.1335 78.9371 19.1636 78.1391 19.3765 77.4167C19.5894 76.6943 19.973 76.0883 20.4671 75.6938C22.3546 74.5467 24.398 73.9484 26.4661 73.9375H38.2288L49.9915 74.8954L106.923 78.2485C116.451 78.2485 125.978 78.2485 135.506 78.2485C136.246 78.3976 137 78.3168 137.713 78.0126C138.427 77.7084 139.08 77.1886 139.623 76.4922C139.623 75.3745 138.565 73.9374 135.624 73.6181C129.154 73.6181 122.803 72.0216 116.451 71.7022C105.629 71.7022 94.8074 71.7022 83.9857 71.7022C73.164 71.7022 65.0477 70.4249 55.6375 69.467C49.7562 69.467 43.8748 67.7107 37.9935 67.2317C27.5247 66.4334 17.2912 62.6014 6.70473 62.6014H5.99891C5.99891 62.6014 5.29318 61.6434 5.29318 61.1644C5.30966 60.8627 5.38329 60.5718 5.50694 60.32C5.6306 60.0683 5.80004 59.8643 5.99891 59.7275C9.02757 58.9102 12.1451 58.9102 15.1738 59.7275C19.4667 60.5263 23.8199 60.5263 28.1128 59.7275C35.2977 59.1369 42.5079 59.5111 49.6385 60.8451C67.2826 63.5593 84.9266 64.677 102.571 66.1139C113.147 66.98 123.753 66.98 134.33 66.1139C126.9 64.4137 119.394 63.4001 111.863 63.0803C106.923 63.0803 102.1 62.1225 97.2775 61.4838C82.4565 59.4082 67.6355 57.6518 52.9321 55.0972C40.7889 52.1169 28.4056 51.3651 16.1148 52.8619C15.7672 53.0067 15.3941 52.9914 15.0536 52.8181C14.7132 52.6448 14.4246 52.3233 14.2329 51.904C14.2329 50.1477 15.0562 49.8285 15.9972 49.5092C18.2953 48.9794 20.6116 48.6063 22.9372 48.3914C24.9723 48.1511 27.0188 48.1511 29.0538 48.3914L55.9904 49.9881C66.2239 49.9881 76.4575 51.1057 86.8087 51.425C88.5305 51.8388 90.3033 51.3232 91.749 49.9881C91.3626 49.8596 90.9591 49.8596 90.5727 49.9881L45.9921 47.7529C39.9931 47.7529 34.2294 46.1562 28.3481 45.5176L17.8793 42.9629C17.8793 42.9629 17.1735 42.9629 17.1735 41.6856C17.1735 40.4083 17.1735 40.7277 18.1145 40.7277C22.0126 39.9166 25.979 39.9166 29.8772 40.7277C35.288 41.6857 40.6989 41.526 45.9921 42.005C62.4599 43.6016 78.9277 43.921 95.2778 44.0807C105.394 44.0807 115.392 44.0807 125.39 44.0807C133.408 43.9697 141.376 45.8081 148.916 49.5092C151.117 50.4656 153.44 50.7918 155.738 50.4671L194.202 47.9124C203.954 47.0344 213.739 47.0344 223.491 47.9124C227.414 48.6633 231.406 48.3923 235.254 47.1141C237.775 46.3948 240.379 46.3948 242.9 47.1141L268.072 50.9461C282.658 53.1813 297.126 55.5763 311.829 56.215H319.475C326.379 57.3836 333.344 57.7574 340.295 57.3325C344.621 57.4802 348.921 58.2837 353.116 59.7275C353.595 59.8077 354.032 60.134 354.338 60.639C354.645 61.1439 354.797 61.7892 354.763 62.4418C354.679 63.0758 354.432 63.6487 354.066 64.0582C353.699 64.4677 353.238 64.6871 352.763 64.677C351.708 64.8365 350.643 64.8365 349.587 64.677L316.77 60.2065C308.536 59.2485 300.302 60.2065 292.185 57.9713C281.481 55.8956 270.66 55.2569 260.073 52.8619C258.272 52.6971 256.464 52.6971 254.662 52.8619C252.075 52.8619 252.075 52.862 252.545 57.1729C252.597 57.5672 252.584 57.9723 252.508 58.3591C252.431 58.7459 252.292 59.1048 252.1 59.4101C251.909 59.7154 251.671 59.9594 251.402 60.1247C251.133 60.29 250.841 60.3724 250.545 60.3661C247.487 60.3661 244.429 60.3661 241.371 60.3661C219.641 57.4396 197.787 56.5859 175.97 57.8114C186.674 58.7694 197.378 60.0467 208.082 61.324C215.24 62.2836 222.45 62.2836 229.608 61.324C234.69 60.6827 239.815 61.1683 244.782 62.7612C258.222 67.1029 271.856 70.2495 285.598 72.1812C300.454 74.0713 315.38 74.7644 330.297 74.2569C336.399 74.7659 342.525 74.2293 348.529 72.6602H349.352C351.587 72.6602 353.351 73.7777 353.587 75.534C353.822 77.2903 352.293 78.5676 349.705 78.5676H325.003C300.638 78.7965 276.319 75.6401 252.428 69.1476C248.212 67.6287 243.83 67.1422 239.488 67.7107C238.24 67.9509 236.973 67.9509 235.724 67.7107C222.668 66.114 209.494 65.9545 196.555 64.0385C188.086 62.9209 179.616 62.4417 171.147 61.6434C169.645 61.2803 168.096 61.6781 166.795 62.7612C162.357 66.0333 157.474 68.0432 152.445 68.6686C153.738 70.7442 155.62 70.2652 157.385 70.4249C169.148 71.2232 181.969 72.1812 194.32 72.6602C201.73 72.6602 209.141 74.2569 216.551 75.2148C235.842 77.7694 255.251 80.9627 274.659 83.1979C285.363 84.4752 296.185 84.7944 307.006 85.2734C317.828 85.7524 332.179 85.2734 344.765 85.2734C348.293 85.2734 351.94 85.2734 355.469 85.2734C356.357 85.1644 357.251 85.3553 358.072 85.8289C358.893 86.3024 359.615 87.0441 360.174 87.9879C360.318 88.3567 360.393 88.7678 360.393 89.1853C360.393 89.6028 360.318 90.0139 360.174 90.3827C359.752 91.1217 359.179 91.6769 358.527 91.9794C357.747 92.1345 356.954 92.1345 356.174 91.9794C343.682 90.0099 331.108 89.1565 318.534 89.4248C301.36 89.4248 284.187 87.828 267.013 86.0718C263.602 86.0718 260.426 84.9541 257.015 84.7944C253.098 83.7541 249.05 84.0837 245.252 85.7524C243.548 86.6369 241.663 86.6369 239.959 85.7524C232.217 83.3536 224.353 81.7527 216.434 80.9627C196.672 77.4501 176.558 77.4499 156.561 75.534C154.562 75.534 151.974 73.9374 150.327 76.8113L154.562 81.6012C156.755 83.4067 159.292 84.2952 161.855 84.1559C172.088 84.1559 182.322 85.7524 192.555 86.0718C200.319 86.0718 207.964 87.1895 216.081 88.1474C224.197 89.1054 233.019 90.223 241.253 92.2986C251.251 94.6935 261.485 96.6096 271.601 97.8869C290.774 100.282 309.829 103.475 329.12 104.752C337.589 104.752 346.059 106.349 354.528 107.147C357.805 107.776 361.131 107.776 364.408 107.147C367.732 106.764 371.079 107.197 374.289 108.425C375.018 108.603 375.681 109.109 376.171 109.862C376.411 110.166 376.599 110.538 376.721 110.952C376.843 111.366 376.896 111.811 376.877 112.256C376.877 112.256 375.936 113.693 375.348 114.013C374.621 114.33 373.839 114.33 373.113 114.013C364.744 112.168 356.297 111.049 347.823 110.66C329.238 108.425 310.535 106.828 291.833 104.433C279.129 102.836 266.425 100.601 253.721 98.6852C252.205 98.3001 250.65 98.3001 249.134 98.6852C246.006 100.121 242.617 100.121 239.488 98.6852C230.201 96.1507 220.815 94.338 211.376 93.2565C199.613 91.5002 187.85 91.3407 176.793 90.8617C172.441 90.8617 168.089 89.9037 163.737 89.5843C161.516 89.1064 159.253 89.1064 157.032 89.5843C155.973 99.0044 157.738 98.685 163.619 99.0044C183.145 100.122 202.671 100.761 222.433 101.719C229.608 101.719 236.783 103.315 243.841 104.114C244.88 104.21 245.907 104.478 246.899 104.912C256.049 108.157 265.441 109.978 274.894 110.341C291.009 112.097 307.124 114.172 323.239 115.45C332.179 115.45 341.118 117.046 350.176 118.004C351.938 118.164 353.706 118.164 355.469 118.004C356.975 117.767 358.501 118.004 359.929 118.697C361.357 119.389 362.648 120.518 363.703 121.996C363.87 122.354 363.959 122.769 363.959 123.193C363.959 123.617 363.87 124.033 363.703 124.391C363.486 124.752 363.218 125.051 362.915 125.27C362.612 125.489 362.28 125.625 361.938 125.668C361.198 125.824 360.444 125.824 359.703 125.668C349.66 122.873 339.476 121.112 329.238 120.399L290.068 115.929L267.837 113.534L254.192 112.256C255.721 114.971 257.485 114.172 259.015 114.492C262.426 114.492 265.602 115.929 266.66 120.718C266.66 122.954 269.131 123.433 270.895 123.752C277.012 124.71 282.658 125.988 289.245 126.626C311.006 128.861 332.767 131.895 354.645 131.256H364.644C366.173 131.256 367.231 132.853 366.879 134.13C366.798 134.78 366.556 135.373 366.191 135.809C365.827 136.245 365.364 136.498 364.879 136.525H361.821C354.938 135.701 348.025 135.434 341.118 135.727C329.356 135.727 317.593 133.811 305.83 132.374C294.067 130.937 285.363 130.139 275.247 128.063L269.248 126.786C268.524 126.421 267.742 126.318 266.979 126.486C266.216 126.653 265.499 127.087 264.896 127.744C263.132 130.298 260.779 129.66 258.544 129.5C248.546 128.223 238.548 128.382 228.549 128.382H163.737H150.68C149.161 128.054 147.612 128.054 146.093 128.382C144.211 129.181 146.093 131.576 145.269 133.172L142.799 137.164C147.532 137.788 152.299 137.788 157.032 137.164C160.063 137.033 163.096 137.3 166.089 137.962C171.441 138.84 176.852 138.84 182.204 137.962C198.437 137.164 214.552 135.886 230.784 134.928C237.371 134.928 244.076 134.928 250.781 134.928C255.126 135.037 259.439 135.95 263.602 137.643C271.111 139.855 278.745 141.19 286.422 141.634C298.184 142.912 309.947 144.349 321.004 144.987C332.061 145.626 341.471 144.987 351.822 144.987C354.617 144.916 357.374 144.102 359.939 142.592C360.641 142.16 361.403 141.937 362.174 141.937C362.944 141.937 363.706 142.16 364.408 142.592C364.697 142.814 364.95 143.111 365.152 143.468C365.354 143.824 365.501 144.232 365.585 144.668C365.538 145.144 365.42 145.602 365.238 146.014C365.056 146.426 364.814 146.783 364.526 147.063C363.866 147.515 363.146 147.786 362.409 147.861C359.35 147.861 356.292 148.66 353.234 148.819C336.006 149.406 318.768 148.713 301.596 146.744C290.892 145.626 280.187 144.029 269.483 142.592C268.743 142.437 267.989 142.437 267.248 142.592C267.248 142.592 266.425 143.391 266.307 143.87C266.19 144.349 266.307 145.307 266.307 145.466H269.366C279.717 147.701 290.303 148.181 300.772 149.298C316.534 151.214 332.414 152.97 347.823 154.567C353.962 155.444 360.151 155.444 366.29 154.567C369.296 153.744 372.419 154.546 374.995 156.802C375.818 157.601 376.406 158.559 376.171 159.836C375.936 161.113 374.877 161.592 373.818 161.592L366.996 160.475C364.696 159.997 362.38 159.678 360.056 159.517C345.118 159.517 330.414 156.483 315.593 154.886C303.242 153.609 291.009 152.012 278.776 150.576C277.548 150.079 276.24 150.079 275.012 150.576C273.731 151.327 272.349 151.714 270.954 151.714C269.558 151.714 268.177 151.327 266.896 150.576C263.875 149.743 260.802 149.315 257.721 149.298C243.135 149.298 228.432 149.298 213.846 149.298C192.438 149.298 171.147 149.298 149.857 148.5C142.682 148.5 135.506 147.222 128.331 147.382C127.272 147.382 125.978 147.382 125.743 146.105C125.508 144.828 126.567 144.029 127.508 143.55L131.389 143.391ZM260.779 144.189C257.194 141.323 253.167 139.628 249.016 139.239C239.047 137.963 229.024 137.643 219.021 138.281C201.377 139.878 183.733 140.197 165.972 140.197C159.737 140.197 154.209 140.197 147.504 140.197H145.152C144.446 140.197 143.74 140.197 143.975 142.113C144.053 142.594 144.244 143.026 144.521 143.343C144.797 143.661 145.143 143.846 145.505 143.87H148.563C157.503 145.307 166.56 143.87 175.499 145.147C192.673 146.424 209.846 145.147 227.02 145.147C238.665 145.785 249.369 144.828 261.367 144.189H260.779ZM260.779 118.962C258.899 118.073 256.973 117.379 255.015 116.887C249.446 115.72 243.828 115.027 238.195 114.811C221.845 114.811 205.377 114.811 189.027 114.811C184.674 114.811 180.322 114.811 175.97 115.609C174.676 115.609 174.441 116.887 174.676 118.324C174.911 119.761 175.617 121.198 177.146 121.357H183.263H247.84C252.493 121.594 257.144 120.785 261.602 118.962H260.779ZM123.744 113.693C118.15 111.101 112.229 110.069 106.335 110.66H62.5776C61.5189 110.66 60.225 110.66 59.4016 111.618C73.2718 114.928 87.3132 116.743 101.394 117.046C108.93 117.663 116.489 116.529 123.744 113.693ZM64.9301 119.92V121.038C67.1021 121.777 69.3007 122.363 71.5171 122.794C86.3381 125.189 100.924 128.382 115.863 129.34C120.921 129.34 126.096 129.34 131.272 129.34C132.519 129.197 133.746 128.82 134.918 128.223C135.117 128.086 135.286 127.882 135.41 127.63C135.534 127.378 135.607 127.087 135.624 126.786C135.549 126.507 135.424 126.258 135.259 126.062C135.095 125.867 134.897 125.731 134.683 125.668C132.92 125.51 131.152 125.51 129.39 125.668C119.876 125.591 110.372 124.792 100.924 123.273C89.9846 121.517 78.9277 121.038 67.8707 120.08L64.9301 119.92ZM135.506 116.887C136.153 117.277 136.822 117.597 137.506 117.845C144.801 119.151 152.145 119.897 159.502 120.08C161.251 119.954 162.986 119.579 164.678 118.962C165.384 118.962 166.089 118.962 165.972 117.046C165.914 116.566 165.723 116.135 165.439 115.838C165.155 115.542 164.799 115.403 164.442 115.45L138.565 114.332C138.072 114.496 137.615 114.811 137.227 115.254C136.839 115.698 136.532 116.256 136.33 116.887H135.506ZM110.216 57.6519H115.863C118.921 57.6519 122.097 57.6519 125.037 58.4502C133.916 59.6603 142.861 59.6603 151.739 58.4502C138.257 55.7593 124.573 55.4908 111.04 57.6519H110.216ZM25.525 77.6097H38.2288C34.2971 76.6983 30.2801 76.6983 26.3484 77.6097H25.525ZM51.7558 78.7274H61.4012H51.7558ZM47.8742 109.862H39.6402H47.8742ZM230.666 53.5007H236.195H230.666ZM25.8779 108.105C27.9952 108.105 29.7596 109.223 31.4064 108.105C29.8724 107.475 28.2352 107.475 26.7013 108.105H25.8779ZM107.511 49.1898C107.511 50.3074 108.57 50.3074 109.393 50.1477C110.216 49.988 110.216 50.1477 109.393 48.8704C108.93 48.7081 108.444 48.7081 107.982 48.8704C108.57 48.2317 108.334 48.5511 108.334 49.1898H107.511ZM93.8663 55.0972C93.8663 55.0972 95.3955 57.1728 96.4541 55.0972H93.8663Z" fill="#FFDA00"/>
<path d="M37.9668 419.881C38.3946 419.261 38.9384 418.813 39.5392 418.586C40.14 418.36 40.7748 418.363 41.3744 418.595L55.9448 420.203L78.0352 423.739C81.3253 423.739 84.733 423.739 88.0231 424.865C104.875 426.793 121.815 426.793 138.667 424.865H125.741H122.686C122.686 424.865 122.686 423.578 123.391 423.578L135.142 422.775H202.118C211.636 422.775 220.919 420.524 230.436 420.203H220.449C204.468 420.203 188.605 418.595 172.743 417.631C170.181 417.494 167.629 417.118 165.105 416.505C161.226 415.453 157.234 415.453 153.355 416.505C149.493 417.607 145.545 418.039 141.604 417.791C122.921 417.791 104.238 417.791 85.438 417.791C76.0378 417.791 66.52 415.862 57.1198 415.058C50.1871 415.058 43.2545 414.255 36.4393 412.808C35.7343 412.808 34.9118 412.808 34.2068 412.808C34.0014 412.706 33.8183 412.535 33.6744 412.31C33.5306 412.085 33.4307 411.814 33.3842 411.522C33.3842 411.522 33.3842 410.236 34.2068 410.236C35.1782 409.998 36.1728 409.998 37.1443 410.236C48.8946 411.2 59.7048 412.165 70.9851 413.451C79.6803 414.416 88.3755 414.737 97.0707 414.737H135.612C136.928 414.768 138.239 414.496 139.489 413.933C134.041 411.935 128.442 410.802 122.804 410.557C110.231 410.557 97.6583 409.432 85.0855 408.467C73.5878 407.449 62.1358 405.625 50.7746 403.002C44.4802 402.077 38.2384 400.573 32.0917 398.501L30.0942 397.215C30.0942 397.215 30.0942 396.25 30.0942 395.607C30.0942 394.964 30.0942 395.607 30.0942 395.607H31.5042C44.3155 399.156 57.2606 401.732 70.2801 403.323C87.083 405.735 104.003 406.378 120.924 406.538C122.646 406.662 124.372 406.662 126.094 406.538C124.504 404.16 122.584 402.239 120.445 400.886C118.307 399.534 115.993 398.777 113.639 398.661C104.356 398.661 95.1907 397.375 86.0254 396.25C69.9276 394.16 53.7122 393.196 37.8493 389.338C30.5641 387.409 23.1615 386.605 15.8763 385.319H13.5262C13.4512 385.228 13.3911 385.117 13.35 384.992C13.3088 384.867 13.2876 384.732 13.2876 384.595C13.2876 384.458 13.3088 384.323 13.35 384.199C13.3911 384.074 13.4512 383.962 13.5262 383.872C13.5262 383.872 13.5262 382.586 14.3488 382.586H19.6364C38.6719 385.962 57.7073 389.177 76.8602 390.945C85.5554 391.91 94.2507 392.392 102.946 393.196C104.356 393.196 106.001 393.999 106.823 391.427C107.646 388.855 108.586 390.624 109.526 391.427L133.027 394.803C150.064 397.215 167.102 399.787 184.258 400.43C201.413 401.073 217.159 400.43 233.491 399.465C234.742 399.632 236.001 399.632 237.252 399.465C237.252 399.465 237.252 399.465 237.252 398.018C233.095 396.942 228.898 396.191 224.679 395.768C211.401 395.768 198.006 394.321 184.728 392.392C176.911 391.534 169.066 391.266 161.227 391.588H125.036C123.011 391.912 120.959 391.581 119.044 390.624C118.854 390.513 118.689 390.336 118.565 390.11C118.442 389.884 118.363 389.618 118.339 389.338C118.364 389.051 118.458 388.784 118.607 388.58C118.757 388.376 118.952 388.246 119.161 388.212H123.039C128.027 388.184 133.01 387.755 137.962 386.926C126.211 386.926 114.461 386.926 102.711 386.122C84.028 385.158 65.2275 384.193 46.5446 382.747C38.6719 382.747 30.7992 380.496 23.044 379.21C22.3004 379.194 21.5721 378.917 20.929 378.406C20.7303 378.269 20.561 378.063 20.4374 377.81C20.3139 377.556 20.2404 377.263 20.2239 376.959C20.4765 376.469 20.8535 376.125 21.2815 375.995C25.1591 375.995 29.0367 375.995 33.0317 377.281C47.2496 379.692 61.7024 380.175 76.0377 380.818C84.9679 380.818 94.0157 380.818 102.946 380.818C106.236 380.818 109.644 381.782 112.346 378.085C112.346 378.085 114.226 378.085 115.166 378.085L125.036 379.853C125.976 379.853 127.034 379.853 127.621 379.853C128.209 379.853 126.681 378.567 125.976 378.406C122.921 378.406 119.866 377.12 116.811 376.959C113.756 376.799 108.116 376.959 103.651 376.959C84.7064 376.295 65.801 374.256 47.0145 370.851L28.6841 367.796C27.4294 367.811 26.2006 367.307 25.159 366.349C25.0962 366.088 25.0962 365.807 25.159 365.546C25.159 365.546 25.1591 364.42 25.8641 364.42H29.9766C44.4295 366.35 58.9998 368.761 73.5702 370.208C84.4979 371.333 95.4257 372.94 106.588 372.619C110.884 371.969 115.218 371.969 119.514 372.619C123.852 373.184 128.219 373.184 132.557 372.619C135.624 372.905 138.695 372.131 141.487 370.368C136.552 369.404 132.322 368.6 128.209 367.475C121.331 366.736 114.499 365.339 107.764 363.295C106.517 363.042 105.25 363.042 104.003 363.295C92.4697 363.405 80.9393 362.707 69.4576 361.205C55.8986 360.143 42.4222 357.617 29.1541 353.65C27.9462 353.26 26.7664 352.722 25.629 352.042C25.629 352.042 25.629 351.239 25.629 350.595C25.629 349.952 25.629 350.595 25.629 350.595C28.0966 350.595 30.6816 350.596 33.1492 351.882C45.7681 354.964 58.5283 356.844 71.3376 357.508C79.7978 357.508 88.1405 359.598 96.6007 359.276C99.3615 359.996 102.219 359.248 104.591 357.187C105.648 356.061 107.059 357.187 108.234 357.187C115.256 359.245 122.454 359.948 129.619 359.276C130.901 358.953 132.215 358.953 133.497 359.276C142.041 361.607 150.786 362.257 159.465 361.205C162.703 361.336 165.941 360.904 169.1 359.919L125.271 357.829H118.456C118.207 357.829 117.968 357.694 117.792 357.453C117.615 357.211 117.516 356.884 117.516 356.543C117.516 356.202 117.615 355.875 117.792 355.634C117.968 355.393 118.207 355.257 118.456 355.257C120.217 355.098 121.983 355.098 123.744 355.257L168.277 357.99C180.028 357.99 192.483 357.99 204.468 357.99C215.479 357.777 226.469 356.596 237.369 354.453C239.836 354.171 242.255 353.358 244.537 352.042C244.537 350.113 243.244 349.953 242.304 349.631C235.451 348.343 228.541 347.698 221.624 347.702C205.643 347.702 189.78 347.702 173.918 347.702C164.635 347.702 155.47 345.934 146.187 345.13C142.192 345.13 138.079 345.13 134.437 345.13L110.936 342.879H108.703C107.998 342.879 107.293 342.075 107.411 340.95C107.664 340.46 108.041 340.116 108.469 339.986C110.268 339.825 112.074 339.825 113.874 339.986C116.415 340.453 119.001 339.835 121.276 338.217C122.959 337.49 124.764 337.49 126.446 338.217L154.06 340.146C164.4 340.146 174.623 340.146 184.845 341.111C202.118 342.236 219.274 341.111 236.429 342.075H238.779C242.911 343.842 247.338 343.842 251.469 342.075C251.963 341.83 252.504 341.83 252.997 342.075C253.479 342.156 253.938 342.405 254.329 342.799C254.721 343.194 255.031 343.72 255.229 344.326C255.229 345.612 255.23 346.577 254.054 347.38C252.879 348.184 251.939 347.38 251.587 348.827C262.397 351.239 273.442 352.203 284.37 353.168C297.296 354.454 310.103 354.775 322.911 354.453C332.429 354.453 341.829 353.328 351.347 352.685C353.896 352.455 356.398 351.639 358.749 350.274C362.543 348.613 366.574 348.227 370.5 349.149C371.557 349.149 372.38 350.274 372.38 351.56C372.323 352.206 372.124 352.813 371.809 353.301C371.494 353.789 371.079 354.135 370.617 354.293C369.664 354.714 368.678 354.984 367.68 355.097L341.477 357.508C337.982 357.507 334.503 358.156 331.136 359.437C343.709 359.437 356.164 360.723 368.62 359.437C371.679 359.249 374.695 358.38 377.55 356.865C379.701 355.632 382.05 355.189 384.365 355.579C385.658 355.579 386.715 356.543 386.833 358.312C386.884 358.629 386.888 358.957 386.844 359.276C386.8 359.595 386.71 359.899 386.578 360.169C386.446 360.44 386.276 360.671 386.078 360.849C385.879 361.027 385.656 361.148 385.423 361.205C381.755 362.206 378.251 364.112 375.082 366.832C371.315 368.854 367.36 370.152 363.332 370.69C340.218 375.244 316.795 376.107 293.535 373.262C287.19 372.458 280.728 372.458 274.383 371.494C263.69 370.047 253.114 367.475 242.539 364.903C239.191 363.839 235.74 363.514 232.316 363.938C232.693 364.735 233.218 365.378 233.838 365.802C234.458 366.226 235.15 366.415 235.842 366.349C246.597 369.301 257.463 371.448 268.39 372.78C281.55 373.905 294.475 375.673 307.518 376.959C312.923 376.959 318.328 376.959 323.734 376.959C335.484 376.959 347.822 376.959 359.925 376.959C362.725 376.715 365.511 376.232 368.267 375.513C372.052 373.549 376.232 373.549 380.017 375.513C381.226 376.158 382.569 376.158 383.778 375.513C384.749 375.282 385.743 375.282 386.715 375.513C388.595 375.513 390.358 375.513 391.18 378.406C392.003 381.3 390.123 381.782 387.655 382.264C384.35 383.047 381.015 383.584 377.667 383.872C350.759 385.801 323.851 387.248 296.943 385.962C285.193 385.962 274.382 383.872 263.22 382.747C260.139 382.187 257.018 382.187 253.937 382.747C253.52 383.004 253.185 383.462 252.997 384.033C253.032 384.329 253.113 384.611 253.234 384.861C253.356 385.111 253.515 385.322 253.702 385.479C258.228 389.879 263.661 392.188 269.212 392.07C283.216 394.375 297.294 395.716 311.396 396.089C318.093 396.089 324.791 396.089 331.371 395.125C341.124 394 350.877 395.125 360.63 393.357C364.155 393.357 367.915 393.356 370.5 389.498C370.962 389.335 371.447 389.335 371.91 389.498H385.775C386.243 389.518 386.693 389.75 387.055 390.157C387.416 390.564 387.669 391.124 387.773 391.749C387.773 393.678 386.95 394.482 385.658 394.964H382.955L389.653 397.697C390.828 397.697 391.298 399.304 391.063 400.43C390.828 401.555 390.005 401.716 389.418 402.198C388.91 402.275 388.398 402.275 387.89 402.198C365.095 402.198 342.182 403.323 319.386 402.198C302.466 401.073 285.545 399.787 268.742 398.34H260.282C259.107 398.34 258.285 398.34 258.167 400.591C258.104 401.186 258.171 401.793 258.359 402.336C258.547 402.879 258.848 403.335 259.225 403.645C259.886 404.158 260.599 404.537 261.34 404.77C282.373 407.021 303.053 411.522 324.204 412.004C335.954 412.004 347.704 412.004 359.454 412.004C366.101 412.561 372.756 411.135 378.96 407.824C382.198 406.688 385.592 406.688 388.83 407.824C389.308 407.865 389.757 408.154 390.084 408.632C390.412 409.11 390.594 409.741 390.593 410.397C390.6 411.045 390.439 411.676 390.137 412.177C389.836 412.677 389.414 413.015 388.948 413.129C387.03 413.911 385.063 414.449 383.073 414.737C360.546 416.933 337.942 417.202 315.391 415.541C300.233 414.415 285.31 411.2 270.27 409.271C265.922 409.271 261.692 407.342 257.345 406.538C254.308 405.895 251.216 405.895 248.179 406.538C241.388 408.146 234.508 408.953 227.616 408.95C211.401 408.95 195.186 410.075 179.088 408.95C169.805 408.95 160.64 407.985 151.474 406.217C150.496 406.137 149.515 406.137 148.537 406.217V407.664C151.245 408.554 153.992 409.198 156.762 409.593C178.265 411.522 199.886 412.165 221.389 411.843C224.223 411.707 227.049 411.331 229.849 410.718C235.148 409.672 240.53 409.672 245.829 410.718C252.762 411.522 259.225 414.415 266.157 415.541C277.908 417.47 289.658 419.077 301.408 420.042C313.158 421.006 326.554 420.846 339.126 421.167C352.19 421.012 365.228 419.562 378.137 416.827C380.101 416.118 382.166 416.118 384.13 416.827C384.359 416.925 384.56 417.115 384.707 417.374C384.854 417.633 384.94 417.946 384.953 418.274C385.035 418.498 385.078 418.746 385.078 418.997C385.078 419.248 385.035 419.496 384.953 419.72C383.436 421.006 381.684 421.675 379.9 421.649C360.788 424.596 341.544 425.617 322.324 424.704C309.751 424.704 297.178 424.704 284.605 421.971L261.105 418.113C259.342 417.469 257.474 417.622 255.78 418.549C254.086 419.476 252.656 421.128 251.704 423.257C251.704 424.222 251.704 425.025 252.527 425.508C253.009 426.059 253.59 426.425 254.209 426.566C254.829 426.707 255.465 426.619 256.052 426.311C256.704 425.756 257.457 425.461 258.226 425.461C258.994 425.461 259.747 425.756 260.4 426.311C262.409 427.818 264.696 428.489 266.98 428.241C293.3 430.652 319.739 430.652 346.177 429.848C357.927 429.848 369.677 428.723 382.25 426.633C384.244 425.829 386.366 425.829 388.36 426.633C388.36 426.633 388.948 427.597 389.065 428.08C389.176 428.605 389.176 429.162 389.065 429.687C388.16 430.209 387.214 430.587 386.245 430.812C357.316 433.787 328.294 434.753 299.293 433.706C290.363 433.706 281.433 432.099 272.502 430.973C267.698 429.965 262.787 430.516 258.167 432.581C256.992 432.581 255.7 433.385 254.524 433.867C253.349 434.349 250.882 433.867 251.117 436.117C251.352 438.368 253.349 438.207 254.877 438.368H257.11C257.11 438.368 257.11 439.654 257.11 439.815C254.597 441.502 251.784 442.171 249.002 441.744C235.752 439.538 222.34 439.917 209.168 442.869C201.019 444.183 192.816 444.774 184.61 444.637C171.283 444.622 157.987 442.9 144.894 439.493C141.844 439.167 138.78 439.167 135.729 439.493C130.794 439.493 125.976 439.493 121.041 439.493C100.795 439.364 80.5788 437.377 60.5274 433.545L43.7245 431.134C41.7269 421.649 39.0244 422.132 37.9668 419.881ZM135.729 396.893C133.121 395.848 130.348 395.848 127.739 396.893H135.729C135.729 398.019 135.024 399.626 136.434 399.787C137.996 399.982 139.552 399.349 140.782 398.018L135.729 396.893ZM251.587 353.168C284.977 360.734 318.938 362.408 352.639 358.151C356.705 358.253 360.731 357.041 364.39 354.614C363.45 354.614 363.097 353.65 362.745 353.65C342.229 353.92 321.717 352.739 301.291 350.113C288.835 348.827 276.38 347.22 263.925 344.969C261.457 344.969 258.872 344.969 256.287 344.004C255.835 343.754 255.329 343.754 254.877 344.004C254.289 344.808 254.877 345.451 254.877 346.094C256.875 349.631 256.757 349.792 253.114 351.399L251.587 353.168ZM230.319 374.548C221.399 372.121 212.37 370.51 203.293 369.725C187.9 368.279 172.625 366.51 157.35 364.903C156.481 364.555 155.566 364.475 154.672 364.669C153.778 364.864 152.927 365.328 152.18 366.028C149.723 368.438 146.738 369.629 143.719 369.404L133.849 370.368C133.849 371.976 135.494 372.137 136.434 372.458C141.346 374.197 146.329 375.539 151.357 376.477C166.422 378.648 181.591 379.132 196.713 377.924C207.876 377.12 219.156 375.673 230.319 374.548ZM151.24 357.669C159.322 359.726 167.481 361.175 175.68 362.009C179.569 362.875 183.493 363.412 187.43 363.617H217.394C227.727 362.894 238.081 362.894 248.414 363.617C244.161 361.426 239.75 359.863 235.254 358.955C232.707 358.707 230.207 357.892 227.851 356.543C223.224 353.64 218.07 352.689 213.046 353.811L201.296 354.775C193.188 354.775 184.963 356.222 176.738 356.704C168.512 357.187 159.935 357.347 151.24 357.669ZM235.254 422.775H227.616C211.518 422.775 195.421 425.025 179.323 422.775C178.618 422.775 177.795 422.775 178.03 424.222C178.408 424.42 178.827 424.42 179.205 424.222C188.37 425.025 197.536 425.829 206.701 426.151C212.929 426.151 218.451 426.151 225.149 425.347C228.632 426.023 232.182 425.12 235.254 422.775ZM200.943 430.33C186.373 430.33 172.743 428.883 157.585 430.33C169.254 432.642 181.06 433.395 192.836 432.581C195.64 432.918 198.456 432.136 200.943 430.33ZM377.197 386.926C373.316 385.914 369.329 385.914 365.447 386.926C353.697 388.695 342.652 388.051 330.784 389.177H342.534H353.227C357.104 389.177 360.864 389.177 364.977 389.177C369.317 389.98 373.735 389.204 377.785 386.926H377.197ZM306.696 370.851L276.38 366.993C273.795 366.993 271.21 366.993 268.625 366.993C268.625 366.993 266.862 366.993 266.862 367.957C266.862 368.922 268.037 369.565 268.977 369.725C278.613 370.529 288.248 372.298 298 371.976C301.119 372.395 304.267 372.014 307.283 370.851H306.696ZM206.231 410.236H197.066H187.783L177.913 409.432L168.747 408.628C165.794 407.913 162.771 407.913 159.817 408.628C175.184 411.724 190.769 412.264 206.231 410.236ZM162.05 423.257C160.124 423.13 158.201 423.569 156.41 424.543C156.41 424.543 156.41 425.508 156.41 425.99C156.41 426.472 156.41 426.794 156.41 426.794C159.685 428.325 163.239 428.325 166.515 426.794C166.515 426.794 166.515 426.794 166.515 425.99C166.515 425.186 166.515 424.865 165.692 424.704L162.05 423.257ZM184.61 405.413H172.86H184.61ZM219.861 384.837H231.611H219.861ZM246.769 391.427C248.142 391.765 249.559 391.423 250.764 390.463C251.102 390.091 251.348 389.586 251.469 389.016C250.496 388.246 249.36 387.954 248.249 388.188C247.138 388.422 246.118 389.168 245.359 390.302C245.359 390.302 245.359 391.427 245.359 391.588L246.769 391.427ZM263.455 385.479H264.865H263.455C263.455 385.479 262.28 385.479 261.927 385.479H263.455Z" fill="#FFDA00"/>
<path d="M127.728 239.817C131.91 244.931 137.25 247.929 142.855 248.31C150.008 248.31 157.044 250.072 164.198 251.354C175.924 253.598 187.651 253.918 199.378 256.161C205.236 256.644 211.11 256.644 216.968 256.161C217.789 256.161 218.492 256.162 218.844 255.04C219.196 253.918 220.72 253.437 222.01 253.758C229.002 255.821 236.097 257.16 243.236 257.764C244.505 257.79 245.751 258.229 246.871 259.046C250.256 261.304 253.91 262.714 257.659 263.212C279.502 269.032 301.667 272.302 323.915 272.986C332.945 272.986 341.857 272.986 350.769 272.986C358.14 272.439 365.392 270.219 372.229 266.417C372.928 266.252 373.642 266.252 374.34 266.417C375.395 266.417 376.451 266.417 376.685 268.179C376.83 268.578 376.905 269.016 376.905 269.461C376.905 269.906 376.83 270.345 376.685 270.743C374.272 273.685 371.229 275.483 368.007 275.87C365.897 275.87 365.662 277.152 366.6 279.556C367.538 281.96 366.6 284.844 363.551 284.043C358.47 282.973 353.328 282.544 348.189 282.761C339.512 282.761 330.834 282.761 322.156 281.479C311.25 280.197 300.11 280.037 289.204 279.075C278.298 278.114 267.744 276.351 257.073 274.909C254.845 274.909 252.734 273.787 250.858 276.672C248.982 279.556 247.457 277.633 245.698 276.672C224.356 273.948 202.896 272.986 181.319 273.146C172.122 273.44 162.921 273.012 153.761 271.865C151.298 271.865 149.188 271.865 148.132 274.909C147.077 277.954 146.139 276.511 144.849 276.511C127.61 276.511 110.489 276.511 93.3685 276.511C78.7102 276.511 64.1691 274.909 49.6281 273.307C42.3742 273.171 35.1626 271.771 28.1682 269.141C33.53 267.996 38.9892 267.996 44.351 269.141C49.1589 269.141 54.0841 269.942 58.8921 270.262L74.2541 271.224L88.7951 272.345H104.157C109.082 272.345 113.89 271.384 118.698 271.384C124.373 271.724 130.058 271.456 135.702 270.583L129.721 269.301L108.496 264.814C107.089 264.814 105.095 264.814 104.274 262.891C102.164 258.565 98.7628 259.206 95.4793 259.366H70.9706C59.951 259.662 48.9317 258.751 38.0186 256.642C33.797 255.681 29.3408 256.642 25.1192 254.559C23.8857 254.157 22.6003 254.157 21.3667 254.559C20.5703 255 19.6946 255.097 18.8564 254.84C18.0183 254.582 17.2576 253.981 16.676 253.117C15.2688 251.514 12.689 251.835 11.399 249.592C12.1026 247.669 13.5099 248.63 14.448 249.592C37.0995 255.303 60.1646 257.347 83.1663 255.681C96.5347 254.719 109.786 255.681 123.037 254.399H128.431C128.755 254.559 129.048 254.814 129.292 255.146C129.535 255.479 129.721 255.88 129.839 256.322C129.91 256.617 129.932 256.931 129.903 257.24C129.874 257.548 129.794 257.844 129.671 258.105C129.547 258.367 129.382 258.587 129.188 258.749C128.993 258.912 128.775 259.014 128.549 259.046C127.304 259.283 126.041 259.283 124.796 259.046C120.926 259.046 117.056 259.046 113.069 259.046C117.282 261.449 121.763 262.858 126.32 263.212C139.337 264.814 152.354 266.096 165.37 267.538C168.419 267.538 171.468 267.538 174.517 267.538H211.456C217.789 267.538 224.121 267.538 230.571 268.66C232.299 269.3 234.12 269.3 235.848 268.66C235.848 267.057 233.854 266.897 232.682 266.737C228.538 266.055 224.544 264.199 220.955 261.289C219.036 259.718 216.858 258.836 214.622 258.725C198.791 257.924 182.96 255.681 167.716 253.437C154.465 251.515 141.213 249.752 128.197 246.868C122.333 245.586 116.47 245.105 110.607 244.304C108.731 244.304 107.089 244.304 106.268 241.42C105.974 240.682 105.529 240.076 104.988 239.678C104.446 239.28 103.832 239.105 103.219 239.176H95.4793C79.6483 239.176 63.7 239.176 48.5726 236.773C36.8459 235.491 25.1193 233.248 14.3307 231.485C14.3307 231.485 13.6271 231.485 13.2753 230.363C13.587 229.868 13.9933 229.501 14.4489 229.303C14.9044 229.105 15.3913 229.084 15.8551 229.242C19.9595 229.242 24.0638 229.242 27.5818 230.524C47.0491 233.541 66.6232 235.093 86.2152 235.17H100.991C99.2626 233.504 97.2366 232.508 95.1276 232.286L89.1469 230.844C86.9145 230.064 84.6401 229.528 82.3454 229.242C75.7785 229.242 69.0943 229.242 62.4101 229.242C53.1881 229.328 43.9869 228.038 34.9697 225.396C30.279 224.114 25.471 223.153 20.7803 221.711C17.2972 220.854 13.852 219.73 10.4609 218.346C8.35008 217.384 5.06656 218.346 4.83203 213.859C7.17737 212.577 9.17092 213.859 11.1645 215.141C30.6807 222.189 50.7842 225.744 70.9706 225.717L111.662 224.915H131.598C133.145 224.691 134.704 225.139 136.054 226.197C136.511 226.791 136.801 227.585 136.875 228.441C136.875 229.402 136.171 230.203 135.467 230.203C133.436 230.365 131.4 230.365 129.369 230.203C123.272 230.203 117.643 230.203 110.959 231.004L117.291 232.126L124.092 233.568C136.406 235.651 148.953 236.773 161.501 237.894C174.048 239.016 184.016 238.856 195.273 238.696C201.903 239.575 208.579 239.575 215.209 238.696C217.47 238.68 219.722 239.112 221.893 239.978L226.466 240.779C226.466 240.779 226.466 239.497 226.466 239.337C226.466 239.176 221.776 239.336 220.486 235.811C221.307 234.369 222.479 235.811 223.535 235.811L231.626 238.696C235.035 240.164 238.613 240.762 242.18 240.458C243.02 240.187 243.899 240.255 244.71 240.653C245.522 241.051 246.232 241.763 246.754 242.702C248.069 244.755 249.922 246.021 251.913 246.227C260.122 248.63 268.213 251.835 276.539 253.277C292.97 256.913 309.638 258.149 326.26 256.963L347.603 254.239C349.861 254.139 352.07 253.315 354.053 251.835C347.017 251.835 340.567 250.713 334.117 249.912C317.583 247.829 300.931 245.906 284.396 243.503C272.67 241.74 260.943 239.497 249.216 237.414C245.128 236.888 241.149 235.311 237.49 232.767C232.551 229.207 226.999 227.546 221.424 227.96C202.192 227.96 182.96 227.96 163.846 226.678C153.644 225.717 143.324 225.075 133.122 224.595C122.92 224.114 110.372 220.429 98.9974 218.346C98.2823 218.084 97.6071 217.65 97.0038 217.064C96.8876 216.596 96.8876 216.089 97.0038 215.622C99.0211 215.14 101.084 215.14 103.102 215.622C127.554 221.207 152.305 223.994 177.097 223.954C187.182 223.954 197.15 223.954 207.117 223.954C214.505 223.954 221.776 222.832 229.164 222.191C231.626 222.191 233.854 222.191 234.792 225.396C235.73 228.601 237.489 228.12 239.131 228.601C246.488 231.284 253.972 233.265 261.529 234.53C275.012 237.015 288.632 237.82 302.221 236.933C310.898 236.933 319.576 236.933 328.254 234.85L331.303 233.728C326.847 233.728 323.563 231.966 320.28 231.805C308.553 231.805 295.771 229.722 283.575 228.12C263.888 225.546 244.316 221.534 224.942 216.102C215.169 213.611 205.304 211.846 195.391 210.814L143.324 205.046H134.881C134.056 204.782 133.189 204.907 132.422 205.402C131.656 205.896 131.034 206.731 130.659 207.77C130.073 209.853 128.666 210.173 126.907 210.013C115.196 208.819 103.437 208.819 91.7268 210.013C83.2959 210.894 74.828 210.894 66.3971 210.013C62.8439 209.693 59.2791 209.693 55.7259 210.013C42.9278 209.833 30.1541 208.441 17.4969 205.847C16.676 205.847 15.9725 205.847 16.0897 204.245C16.2858 204.09 16.5083 204.009 16.7347 204.009C16.9611 204.009 17.1836 204.09 17.3797 204.245C19.9173 204.001 22.4643 204.001 25.0019 204.245C42.0606 206.728 59.2106 207.852 76.3649 207.61H77.1857C91.7268 206.168 106.268 205.687 120.809 205.046C115.294 203.841 109.735 203.038 104.157 202.642C103.425 202.887 102.661 202.887 101.929 202.642C96.5395 200.406 90.8649 199.751 85.2771 200.72C69.1419 201.069 53.0064 200.052 36.9632 197.675C28.6373 196.393 20.1941 195.752 11.8681 193.669C10.2264 193.669 8.35005 193.669 7.41192 190.945C6.47378 188.221 9.17096 189.984 10.1091 190.945C21.8358 193.669 32.8588 194.791 44.351 196.073C55.8431 197.355 69.4461 197.675 81.9936 197.355L102.633 196.233C107.465 195.513 112.341 195.513 117.174 196.233C117.913 196.496 118.685 196.532 119.435 196.338C120.186 196.144 120.895 195.725 121.513 195.111C121.513 193.349 120.223 193.99 119.519 193.509L117.291 192.708C114.272 192.496 111.37 191.044 108.965 188.542C107.95 187.53 106.696 187.073 105.447 187.26C101.812 187.26 98.1765 187.26 94.6585 187.26C77.2628 188.624 59.8159 188.141 42.4748 185.818C34.3834 185.818 26.4091 182.292 18.3177 180.37C17.6141 180.37 16.7933 180.37 16.9106 178.607C17.0279 176.844 18.2005 177.165 19.1386 177.325L34.9697 180.85C53.7918 184.107 72.8039 184.805 91.7268 182.933C99.1146 182.933 106.502 182.933 113.89 182.933C117.822 183.088 121.754 182.658 125.617 181.651C129.487 180.733 133.421 180.411 137.344 180.69C153.761 180.69 170.178 180.69 186.478 182.453C193.632 182.453 200.902 182.453 208.055 182.453C215.476 182.536 222.882 183.339 230.219 184.856C233.471 185.737 236.818 185.737 240.069 184.856C243.321 183.975 246.668 183.975 249.92 184.856C258.128 186.939 266.337 189.343 274.663 190.945C292.186 194.279 309.858 195.939 327.55 195.913H360.502C364.457 196.273 368.427 195.676 372.229 194.15C373.739 193.74 375.293 193.74 376.802 194.15C378.092 194.15 379.148 195.592 379.031 197.355C378.913 199.117 377.741 199.758 376.451 199.758C367.421 199.758 358.509 199.758 349.479 199.758C342.795 199.758 336.228 199.758 329.544 199.758C306.255 199.716 283.018 196.766 260.122 190.945C259.227 190.35 258.244 190.041 257.249 190.041C256.253 190.041 255.271 190.35 254.376 190.945C253.806 191.305 253.186 191.49 252.558 191.49C251.931 191.49 251.311 191.305 250.741 190.945C232.564 187.26 214.153 185.657 195.86 184.055C177.566 182.453 157.983 181.972 138.985 181.972H136.64C136.169 181.807 135.679 181.778 135.199 181.885C134.72 181.993 134.262 182.235 133.854 182.596C133.447 182.958 133.098 183.43 132.831 183.985C132.563 184.539 132.383 185.163 132.301 185.818C132.301 186.939 131.246 187.74 130.659 189.022C131.549 189.595 132.498 189.974 133.474 190.144C145.2 191.586 156.927 195.111 169.357 195.111C181.788 195.111 192.811 196.553 205.476 195.111C207.741 194.952 210.011 194.952 212.277 195.111C214.622 195.111 216.968 195.111 218.375 192.708C219.782 190.304 220.134 191.586 221.072 191.907C226.395 192.731 231.68 193.962 236.903 195.592C249.74 200.002 262.855 202.738 276.07 203.764C289.087 205.046 302.103 206.168 315.237 206.488C328.371 206.809 344.437 204.886 358.978 204.405C362.781 203.949 366.504 202.65 370.001 200.559C370.781 200.011 371.645 199.725 372.522 199.725C373.399 199.725 374.264 200.011 375.044 200.559C375.747 200.559 375.864 203.123 375.044 203.604C373.937 204.45 372.754 205.096 371.526 205.527C367.773 206.328 364.02 207.449 359.799 207.77C343.499 208.571 327.081 210.334 310.664 209.693C300.11 209.693 289.673 208.09 279.236 207.129C266.253 206.178 253.349 203.766 240.656 199.918C239.917 199.769 239.166 199.769 238.428 199.918C231.597 200.639 224.736 200.639 217.906 199.918C211.228 200.479 204.531 200.479 197.853 199.918C181.788 198.476 165.605 198.797 149.539 196.553H147.311C145.435 196.553 143.911 197.675 144.145 199.277C144.38 200.88 145.67 201.521 146.959 201.681L161.383 203.283L204.303 207.45C208.628 207.818 212.934 208.513 217.202 209.533C224.238 211.295 231.509 209.533 238.545 212.577C239.952 212.577 241.828 212.577 242.766 214.179C245.84 217.186 249.541 218.759 253.321 218.666L309.843 226.037C326.026 228.12 342.092 226.998 358.157 226.998C359.126 227.239 360.119 227.239 361.089 226.998C361.294 226.897 361.476 226.726 361.62 226.502C361.764 226.278 361.863 226.008 361.91 225.717C361.862 225.407 361.763 225.116 361.621 224.866C361.479 224.616 361.297 224.414 361.089 224.274C360.119 224.044 359.127 224.044 358.157 224.274C341.857 226.358 325.44 225.236 309.022 225.236C302.69 225.236 296.24 224.114 289.908 223.313C272.403 221.014 255.042 216.997 237.959 211.295C237.02 211.295 235.965 211.295 235.379 209.853C234.792 208.411 237.607 208.892 238.779 209.853C254.141 213.699 269.386 217.064 284.983 219.307C294.833 220.589 304.801 221.871 314.768 222.031C329.192 222.031 343.499 222.031 357.805 220.589C364.959 220.589 371.995 218.506 379.148 217.544H383.721C384.068 217.536 384.41 217.669 384.702 217.926C384.994 218.182 385.224 218.552 385.363 218.987C385.363 220.108 385.363 220.749 384.425 221.23C382.079 222.529 379.568 223.182 377.037 223.153C374.797 222.978 372.557 223.47 370.47 224.595C371.174 227.319 373.519 226.678 374.809 227.96C376.099 229.242 376.803 230.043 376.333 231.645C375.864 233.248 376.334 235.491 378.562 235.331L384.542 234.53H387.591C388.881 234.53 390.288 235.491 390.288 236.773C390.322 237.428 390.17 238.075 389.865 238.582C389.559 239.089 389.123 239.416 388.647 239.497C386.618 239.738 384.577 239.738 382.549 239.497C377.741 239.497 372.815 239.497 368.007 239.497C356.738 238.589 345.431 239.126 334.235 241.099C322.747 242.815 311.197 243.618 299.641 243.503C308.852 245.868 318.183 247.26 327.55 247.669C338.712 249.565 349.965 250.262 361.206 249.752C362.027 249.752 362.965 249.752 362.848 248.47C362.73 247.188 362.848 246.868 362.027 246.066C361.943 245.431 361.943 244.78 362.027 244.144C364.49 243.79 366.969 244.58 369.063 246.387C373.362 249.393 378.236 250.512 383.018 249.592C385.029 249.03 387.104 249.03 389.116 249.592C390.523 249.592 391.578 251.034 391.344 252.636C391.109 254.239 389.936 255.2 388.412 254.719C385.168 253.863 381.865 253.487 378.562 253.598C376.524 253.447 374.487 253.884 372.581 254.879C370.939 255.841 370.118 256.963 370.822 259.046C370.901 259.628 370.901 260.226 370.822 260.808C370.822 263.052 370.001 264.333 368.359 264.654H366.835C353.232 264.654 339.746 266.577 326.143 265.615C312.54 264.654 296.475 263.693 281.699 261.289C264.226 258.565 246.519 254.719 229.75 249.752C226.504 248.876 223.208 248.393 219.899 248.31C197.032 246.868 174.283 245.586 151.533 243.983C143.09 242.221 135.702 240.939 127.728 239.817ZM281.582 273.627C284.123 274.862 286.898 274.862 289.439 273.627H281.465C280.329 272.95 279.152 272.414 277.947 272.025C271.966 270.583 266.22 269.781 260.005 267.859C250.272 264.654 240.304 264.814 230.571 262.891C229.633 262.891 228.577 262.891 226.935 262.891C229.385 264.621 232.05 265.708 234.792 266.096C246.961 269.627 259.311 271.877 271.731 272.826C274.945 273.973 278.292 274.245 281.582 273.627Z" fill="#FFDA00"/>
<path d="M18.6855 299.189C21.3157 297.413 24.3289 297.065 27.1345 298.212C38.8692 301.632 51.8947 302.773 64.3334 304.564C74.4916 306.299 84.7337 306.898 94.961 306.356C105.522 306.356 115.966 306.356 126.41 306.356C131.808 306.356 137.206 306.356 142.604 306.356C145.42 306.356 148.002 305.053 150.349 308.311C151.66 309.213 153.11 309.661 154.573 309.614C162.777 310.428 171.012 310.428 179.216 309.614C185.587 309.125 191.973 309.125 198.344 309.614H202.92C214.655 309.614 226.389 309.614 238.124 309.614C238.124 307.333 236.129 307.659 235.19 307.496C228.704 305.627 222.101 304.645 215.476 304.564C198.226 304.564 181.094 302.447 163.961 302.447C155.525 302.287 147.102 301.471 138.731 300.004C132.043 299.026 125.354 299.189 118.782 297.397L105.288 293.814C104.114 293.814 102.706 293.814 101.884 292.022C101.063 290.231 99.4202 290.231 97.8946 290.068C87.2161 290.068 76.4202 289.091 65.7416 287.787C53.514 286.619 41.3593 284.278 29.3641 280.783C27.8386 280.783 26.3131 279.969 24.9049 279.318C23.4967 278.666 19.507 279.318 18.3335 276.06C20.9151 274.268 23.2621 276.06 25.609 276.06C48.8709 281.584 72.4179 284.471 96.0171 284.693H109.043C109.043 284.693 109.043 284.693 109.043 283.715L105.874 281.435C105.782 281.212 105.733 280.959 105.733 280.702C105.733 280.445 105.782 280.192 105.874 279.969C105.975 279.694 106.125 279.459 106.31 279.288C106.495 279.117 106.709 279.015 106.93 278.992L113.032 280.132C118.078 281.435 123.124 282.249 128.17 283.39C144.423 286.431 160.834 287.521 177.221 286.647C185.67 286.647 194.119 285.344 202.568 286.647C211.017 287.95 219.466 286.647 227.798 286.647C231.755 287.053 235.733 286.446 239.532 284.855C233.192 283.101 227.012 280.37 221.109 276.711C224.278 276.618 227.441 277.167 230.497 278.34C248.032 283.113 265.737 286.592 283.537 288.765C287.644 288.765 291.752 288.765 295.272 288.765C311.349 289.905 327.542 288.765 343.619 288.765C351.463 288.744 359.299 288.091 367.088 286.81C369.815 286.312 372.492 285.383 375.068 284.041C376.499 283.212 378.035 282.786 379.586 282.786C381.137 282.786 382.672 283.212 384.104 284.041C384.925 284.041 385.746 285.507 385.746 286.81C385.746 288.113 384.808 288.928 383.751 289.091C376.007 289.091 368.496 291.371 360.869 292.511C356.879 292.511 352.655 292.511 349.134 292.511C329.889 292.511 310.645 292.511 291.4 292.511C280.911 291.834 270.454 290.421 260.068 288.276L250.915 286.81C249.272 286.81 247.981 286.81 247.277 288.928C246.881 289.818 246.296 290.515 245.602 290.924C244.909 291.332 244.141 291.431 243.405 291.208C240.317 290.966 237.222 290.966 234.134 291.208C242.251 293.709 250.486 295.397 258.777 296.257C282.246 299.841 304.777 299.678 327.777 300.329C335.991 300.329 344.206 300.329 352.42 299.026C354.439 299.304 356.457 298.487 358.053 296.746C360.399 292.674 362.981 293.488 366.032 294.954C369.083 296.42 369.553 294.954 371.313 296.094C373.073 297.235 373.777 297.397 373.777 299.189C373.777 300.981 372.604 301.632 371.195 301.795C364.389 301.795 357.466 303.098 350.542 303.424C333.879 304.401 317.216 303.424 300.553 303.424C288.818 303.424 278.022 301.795 266.874 300.329C261.56 299.185 256.136 299.517 250.915 301.307C247.329 302.517 243.68 303.334 240.002 303.75C246.783 305.999 253.694 307.417 260.655 307.985C282.12 310.428 303.666 311.244 325.195 310.428C339.394 310.428 353.241 307.333 367.323 305.867C370.338 305.383 373.32 304.566 376.241 303.424C378.255 302.854 380.33 302.854 382.343 303.424C383.282 303.424 384.338 304.238 384.456 305.704C384.573 307.17 383.752 307.822 382.695 308.148H378.94C365.68 309.939 352.537 312.22 339.277 313.686C331.884 314.5 324.374 313.686 316.981 313.686C306.655 313.686 296.445 313.686 286.236 313.686C276.027 313.686 266.757 311.731 257.134 310.591C254.553 310.591 253.145 310.591 253.027 314.663C259.108 317.02 265.374 318.333 271.685 318.572C284.906 320.635 298.167 321.938 311.466 322.481C327.894 323.296 344.323 322.481 360.752 322.481C365.328 322.481 369.905 321.341 374.364 320.69C375.652 320.542 376.878 319.861 377.884 318.735C380.818 313.848 383.751 317.758 386.685 318.735C386.685 318.735 387.624 320.201 387.741 321.015C387.859 321.83 387.037 323.296 385.981 323.459L372.956 325.25C370.602 325.308 368.268 325.857 366.032 326.879C367.206 329.648 370.257 326.879 371.548 329.811C372.838 332.743 372.486 331.603 372.369 332.254C372.251 332.906 371.547 333.72 370.961 334.209C370.455 334.319 369.941 334.319 369.435 334.209C344.639 336.733 319.758 337.223 294.92 335.675C282.442 334.477 270.022 332.301 257.721 329.159C253.731 328.182 249.624 327.531 245.986 326.716C244.781 326.16 243.501 325.989 242.241 326.214C240.982 326.44 239.775 327.057 238.711 328.019C237.895 328.503 237.017 328.752 236.129 328.752C235.242 328.752 234.364 328.503 233.548 328.019C228.521 326.689 223.409 326.088 218.293 326.228C208.318 326.228 198.344 324.925 188.369 323.459C178.395 321.993 166.425 321.341 155.512 320.364C154.221 320.364 152.578 320.364 151.874 321.178C151.17 321.993 146.828 323.458 144.012 323.296C125.589 323.296 107.282 320.852 88.7416 321.341C75.1726 321.397 61.6136 320.309 48.1396 318.084C39.2213 316.78 30.4203 315.477 21.5019 313.523L13.2876 311.243C14.109 308.799 15.5172 309.451 16.5733 309.614C17.6294 309.776 21.0325 310.754 23.3794 311.079C34.058 312.871 44.7366 314.011 55.4152 315.477C63.5121 316.618 71.7263 316.455 79.9406 317.432C83.461 317.432 86.9814 317.432 90.6192 317.432H119.839H125.941C120.777 316.129 117.492 313.686 113.502 313.36C121.646 312.405 129.843 312.842 137.91 314.663C146.594 314.663 155.277 316.943 163.961 317.92C172.645 318.898 178.747 319.712 186.14 320.201C196.555 321.533 207.012 322.131 217.471 321.993C227.393 321.397 237.334 322.106 247.16 324.11C261.593 327.205 276.027 329.648 290.578 331.766C302.049 333.151 313.567 333.641 325.078 333.231C332.471 333.231 339.981 333.232 347.374 332.091C351.091 332.151 354.774 331.095 358.17 328.997C358.17 326.716 356.527 327.368 355.588 327.368H334.818C314.849 327.558 294.893 325.871 275.088 322.318C270.277 321.504 265.466 321.341 260.655 320.527L222.752 313.36C219.442 312.791 216.112 312.465 212.777 312.383H172.762L134.39 311.243C121.833 311.243 109.277 309.777 96.7212 309.451C84.1651 309.125 71.7264 307.822 59.1702 306.356C46.6141 304.89 35.7008 303.098 25.0223 300.166L18.6855 299.189ZM241.645 298.212C235.929 297.541 230.247 296.399 224.629 294.791C221.38 293.821 218.087 293.168 214.772 292.837C207.145 292.837 199.4 292.837 191.303 292.837C174.874 292.837 158.446 292.837 142.134 291.371C134.562 290.394 126.941 290.394 119.369 291.371H113.502C113.679 291.9 113.96 292.349 114.313 292.666C114.666 292.983 115.076 293.155 115.497 293.163C130.752 295.606 145.89 298.538 161.262 298.863C168.42 298.863 175.696 298.863 182.736 298.863C199.634 300.329 216.532 300.004 233.43 300.004C236.442 300.637 239.518 299.771 242.114 297.56L241.645 298.212Z" fill="#FFDA00"/>
<path d="M198.163 4.94478C178.903 3.14401 159.577 3.14401 140.317 4.94478C130.823 5.76356 121.301 5.76356 111.807 4.94478C111.074 4.82481 110.358 4.5486 109.686 4.12594C109.686 1.50583 111.453 2.16103 112.514 1.99727H134.898C148.8 1.99727 162.584 -0.295492 176.486 0.0320214C186.5 0.0320214 196.514 0.0321413 206.528 1.17844C215.79 1.83464 225.069 1.83464 234.331 1.17844C238.297 1.08732 242.256 1.69255 246.113 2.97977C251.871 4.67146 257.692 5.9287 263.549 6.74611C276.744 9.52997 290.056 10.5126 303.369 11.9864C316.682 13.4603 326.932 14.934 339.42 16.7353C343.364 16.5912 347.309 16.9751 351.201 17.8817C351.908 17.8817 352.497 18.8641 352.379 20.0104C352.362 20.5139 352.225 20.9953 351.991 21.3802C351.757 21.765 351.438 22.0319 351.083 22.1393H348.845C345.546 22.1393 342.129 22.1392 338.831 20.9929C321.63 17.554 304.194 15.589 286.758 13.4602C278.629 12.4777 270.5 11.0038 262.371 9.36628L255.42 8.54745C254.687 8.39703 253.939 8.54989 253.269 8.98672C252.598 9.42355 252.035 10.1249 251.65 11.0037C250.589 13.7876 248.587 13.7876 246.466 12.805C245.957 12.8809 245.443 12.8809 244.934 12.805C238.264 9.22121 231.079 7.87487 223.964 8.87503C208.53 8.87503 192.979 8.87497 177.546 10.3488C168.121 11.1676 158.578 10.3488 149.035 10.3488C146.995 10.1865 144.95 10.1865 142.909 10.3488C142.909 10.3488 142.202 11.1676 142.202 11.6589C142.202 12.1501 142.202 12.8052 142.909 12.9689C143.862 13.4154 144.852 13.6906 145.854 13.7878C149.742 13.7878 153.512 14.7703 157.636 14.7703H212.418C219.134 14.7703 225.731 14.7702 232.446 15.9165C237.327 16.2436 242.22 15.9146 247.055 14.9339C249.095 14.7665 251.141 14.7665 253.181 14.9339C253.501 15.061 253.783 15.3295 253.983 15.6988C254.184 16.0681 254.292 16.5183 254.292 16.9809C254.292 17.4435 254.184 17.8937 253.983 18.263C253.783 18.6323 253.501 18.9008 253.181 19.0279C250.312 20.4747 247.28 21.1958 244.228 21.1568C242.625 21.0347 241.021 21.369 239.515 22.1393C247.408 23.6131 255.302 25.0869 263.078 26.2332C276.39 28.0345 289.821 28.1983 303.134 28.5258L344.014 29.9995C347.63 30.2142 351.221 30.9273 354.735 32.1285C355.796 32.1285 356.385 33.6022 356.149 35.076C355.913 36.5498 354.853 37.5325 353.439 37.5325C352.984 37.7713 352.481 37.7713 352.026 37.5325C345.563 35.2146 338.906 34.1131 332.233 34.2574L294.415 32.7834C278.995 32.5709 263.603 30.8748 248.351 27.707C247.061 27.4622 245.753 27.4622 244.463 27.707C243.773 27.7299 243.109 28.0761 242.578 28.6895C241.871 29.9995 242.578 29.9995 243.521 30.4908C247.506 33.5551 251.934 35.3454 256.48 35.7311C282.656 40.4676 309.018 42.9287 335.414 43.1001C343.661 43.1001 351.908 43.1001 360.155 43.1001C361.642 42.8575 363.144 42.8575 364.632 43.1001C366.517 43.1001 367.577 45.5566 367.106 47.0304C366.825 47.8186 366.347 48.4367 365.761 48.7685C365.175 49.1003 364.522 49.1229 363.925 48.8317C351.405 46.9751 338.803 46.4276 326.225 47.1941C312.559 47.1941 298.892 46.2115 285.344 44.5739C273.026 43.5083 260.756 41.5404 248.587 38.6786C245.072 37.9375 241.498 37.9375 237.984 38.6786C229.321 40.3963 220.579 41.2175 211.829 41.1351C200.755 41.1351 189.681 41.1351 178.606 41.1351C167.532 41.1351 157.047 40.1526 146.208 38.8426C144.205 38.8426 142.202 38.8426 140.082 38.8426H99.2008C86.8353 38.8718 74.4805 37.8326 62.2078 35.7311C58.4378 35.7311 54.55 34.9123 50.4266 34.421L19.6776 31.4733C16.617 31.2278 13.5488 31.2278 10.4883 31.4733C10.4883 31.4733 9.66357 30.6547 9.66357 30.1635C9.66357 29.6722 9.66357 28.6895 9.66357 28.5258C10.5521 27.9497 11.512 27.6162 12.491 27.5433C18.8693 26.4794 25.3162 26.4794 31.6945 27.5433C35.592 28.4161 39.5287 28.9085 43.4757 29.017C60.9119 30.1633 78.8194 33.766 95.7843 33.6022C97.8225 33.8487 99.8723 33.8487 101.91 33.6022C109.726 32.0678 117.658 32.0678 125.473 33.6022C127.772 34.1722 130.125 34.1722 132.424 33.6022C136.665 33.6022 140.906 30.982 144.205 35.076C144.205 35.076 146.208 35.076 147.15 35.076C170.713 37.2048 194.275 37.0411 217.838 36.8773C221.173 36.6493 224.486 35.9916 227.734 34.9123C225.443 33.3689 222.967 32.4252 220.429 32.1285C217.955 32.1285 215.364 32.1283 213.361 29.672C211.358 27.2156 211.005 29.672 209.709 29.672H184.261H175.779C166.707 29.672 157.753 29.672 148.8 29.672C139.846 29.672 133.366 28.5257 125.237 27.707C120.118 26.8356 114.961 26.4528 109.804 26.5608C108.791 26.8192 107.753 26.8192 106.741 26.5608C102.378 24.5533 97.7386 23.9924 93.1924 24.9231C69.63 24.9231 46.0676 24.9232 22.5051 22.9581L18.8529 22.1393C18.8529 22.1393 18.8529 21.1566 18.8529 20.5016C19.5253 20.079 20.2406 19.803 20.9735 19.683C23.289 19.5194 25.609 19.5194 27.9245 19.683C51.4869 21.8119 75.0493 21.8117 98.6118 20.8292C101.927 20.5805 105.23 20.0886 108.508 19.3555C108.906 19.054 109.234 18.599 109.45 18.0454C109.49 17.8926 109.501 17.7287 109.483 17.5684C109.466 17.4081 109.42 17.2563 109.35 17.1266C109.28 16.9969 109.188 16.8933 109.082 16.825C108.976 16.7567 108.86 16.7259 108.744 16.7353C107.214 16.5729 105.678 16.5729 104.149 16.7353C96.8446 16.7353 89.658 16.7353 82.4715 16.7353H19.9133H13.787C13.787 16.7353 13.0801 16.7353 12.9623 15.7528C12.8445 14.7702 12.9624 14.6065 13.6692 14.279C16.6131 13.0436 19.666 12.3821 22.7407 12.3138H103.795C106.574 12.3722 109.345 11.9319 112.042 11.0037C117.269 9.10985 122.667 8.28251 128.065 8.54745C146.797 8.54745 165.647 9.52999 184.379 8.54745L198.163 4.94478ZM165.765 24.7595L201.108 23.4494L214.185 22.6305C214.399 22.5657 214.598 22.4267 214.763 22.2262C214.928 22.0258 215.053 21.7703 215.128 21.4841C215.128 21.4841 215.128 20.1743 214.421 20.1743H208.295C187.089 20.1743 165.765 20.993 144.441 18.5366H142.909C141.26 18.5366 140.906 20.0103 140.671 21.4841C140.435 22.9579 140.671 24.5955 142.673 24.5955L165.765 24.7595Z" fill="#FFDA00"/>
<path d="M267.551 163.835C281.776 167.274 296.171 169.214 310.611 169.636C316.713 169.636 322.345 169.636 329.032 169.636H359.773C361.529 169.534 363.266 169.1 364.936 168.347C365.945 168.106 366.977 168.106 367.986 168.347C368.218 168.367 368.444 168.45 368.652 168.591C368.859 168.732 369.045 168.928 369.198 169.167C369.35 169.407 369.467 169.685 369.541 169.987C369.615 170.289 369.645 170.607 369.629 170.925C369.56 171.372 369.418 171.793 369.215 172.155C369.012 172.517 368.753 172.813 368.456 173.019C367.21 173.264 365.946 173.264 364.701 173.019C343.977 174.389 323.212 174.066 302.516 172.053C289.26 170.813 276.061 168.608 262.975 165.446C259.981 164.953 257.032 164.035 254.175 162.707C249.115 160.29 243.809 158.985 238.453 158.84L191.521 157.873H172.396C167.105 156.593 161.658 157.374 156.674 160.129C155.448 160.622 154.145 160.622 152.919 160.129C144.593 158.144 136.118 157.602 127.693 158.518C110.563 158.518 93.4323 159.646 76.1846 158.518C60.4599 158.548 44.7609 156.769 29.2523 153.201L22.4471 151.75C22.2488 151.613 22.0797 151.406 21.9564 151.152C21.8331 150.898 21.7596 150.605 21.7432 150.3C21.7432 150.3 22.4471 149.333 22.6817 149.333C27.023 149.333 31.3642 149.333 35.7055 150.945C49.1071 153.633 62.6418 154.872 76.1846 154.651C80.0565 154.651 83.9285 154.651 87.9177 154.651H94.1362L112.557 154.49C118.448 154.489 124.318 153.516 130.039 151.589C134.297 150.382 138.689 150.382 142.946 151.589C169.521 154.568 196.189 155.697 222.848 154.973C232.821 154.973 242.794 155.94 252.767 156.423H268.842H273.418C274.474 156.423 275.412 157.551 275.412 158.84C275.412 160.129 274.239 161.257 272.948 161.418C271.658 161.579 269.428 162.063 267.551 163.835Z" fill="#FFDA00"/>
<path d="M43.3454 164.163C64.0619 167.055 84.8961 166.091 105.73 166.252C110.861 166.837 116.027 166.294 121.032 164.645C123.057 164.159 125.128 164.159 127.153 164.645C135.275 165.77 143.514 166.734 151.636 168.019C163.36 169.78 175.159 170.424 186.948 169.947C202.25 169.947 217.67 168.501 233.09 168.019C238.975 168.019 244.86 168.019 250.863 168.019C252.869 168.049 254.842 168.709 256.631 169.947C259.871 172.036 263.406 173.132 266.989 173.161C279.937 175.571 293.003 176.535 306.068 177.499C319.134 178.463 329.61 178.785 341.38 179.106C349.217 179.885 357.085 179.885 364.922 179.106C365.386 178.95 365.87 178.95 366.334 179.106C366.697 179.412 366.985 179.86 367.158 180.392C367.211 180.624 367.229 180.868 367.21 181.11C367.191 181.352 367.135 181.586 367.047 181.797C366.958 182.008 366.839 182.192 366.696 182.337C366.553 182.482 366.39 182.586 366.217 182.641C365.2 182.808 364.173 182.808 363.156 182.641H354.681L303.949 179.267C290.06 178.303 276.288 176.214 262.516 174.286C252.425 172.03 242.246 170.581 232.03 169.947H202.015C188.645 170.912 175.247 170.912 161.877 169.947C158.89 169.065 155.8 169.065 152.813 169.947C151.569 170.269 150.291 170.269 149.047 169.947C133.98 168.019 118.796 167.055 103.612 167.055C88.4274 167.055 75.9504 167.055 62.0609 165.448C50.2902 164.163 39.4611 164.324 28.1612 163.681C27.1444 163.84 26.1177 163.84 25.1009 163.681C24.8871 163.617 24.6885 163.481 24.5239 163.284C24.3592 163.088 24.2337 162.837 24.1592 162.556C24.1592 162.556 24.7477 161.592 25.1009 161.592C31.224 161.758 37.3265 162.618 43.3454 164.163Z" fill="#FFDA00"/>
<path d="M18.1191 331.133C20.2182 329.806 22.5746 329.515 24.8058 330.308C39.3524 331.628 53.8989 333.609 68.3281 334.764C77.2437 334.764 86.1593 335.919 95.1922 335.919C107.627 335.919 120.179 336.909 132.614 337.734C134.887 338.059 137.128 338.723 139.301 339.714C139.301 339.714 140.122 341.199 140.122 342.024C139.868 342.916 139.415 343.669 138.832 344.169C138.1 344.421 137.335 344.421 136.603 344.169C121.65 341.722 106.609 340.51 91.5556 340.539C81.8188 340.539 72.1993 339.219 62.4625 338.229L24.3366 333.774C22.1031 334.008 19.8873 333.067 18.1191 331.133Z" fill="#FFDA00"/>
<path d="M309.235 445.896C317.772 445.896 326.426 445.896 334.962 445.896C343.947 445.236 352.892 443.784 361.742 441.549C355.003 441.047 348.25 441.047 341.511 441.549C335.947 442.193 330.353 442.193 324.788 441.549C324.788 441.549 323.97 440.744 323.97 440.261C323.97 439.778 323.97 439.134 324.905 439.134C327.361 439.134 329.934 439.134 332.506 439.134C343.992 439.293 355.473 438.487 366.887 436.72C372.968 435.754 378.581 434.788 385.13 434.627C385.831 434.627 386.65 434.627 386.533 436.237C386.345 436.808 386.013 437.266 385.597 437.524L379.517 438.973C378.347 438.973 376.944 438.973 376.476 441.066C376.008 443.159 373.319 444.608 370.98 444.769L340.458 447.666C330.034 448.448 319.578 447.855 309.235 445.896Z" fill="#FFDA00"/>
<path d="M266.957 427.931C271.751 426.707 276.666 426.707 281.459 427.931C282.716 428.02 283.975 428.02 285.232 427.931C303.507 429.075 321.782 430.871 340.057 430.708C352.121 430.682 364.172 429.591 376.135 427.442C380.181 426.648 384.141 425.167 387.926 423.032C389.879 422.147 391.985 422.147 393.939 423.032C393.939 423.032 395 423.849 395 424.175C395 424.502 395 426.298 395 426.788C394.216 427.656 393.281 428.219 392.288 428.421C383.681 430.054 375.192 432.177 366.467 433.157C348.495 435.117 330.44 435.117 312.468 433.157C298.437 431.851 284.289 430.218 270.258 428.585L266.957 427.931Z" fill="#FFDA00"/>
<path d="M259.709 437.43C262.832 436.664 266.019 436.664 269.141 437.43C281.833 439.303 294.525 439.133 307.101 439.473C317.348 439.473 319.56 440.495 318.745 441.346C314.926 442.788 310.92 442.788 307.101 441.346C297.087 441.346 286.957 441.346 276.826 439.984C271.121 439.644 265.415 437.77 259.709 437.43Z" fill="#FFDA00"/>
</svg>
