<svg width="583" height="65" viewBox="0 0 583 65" fill="none" xmlns="http://www.w3.org/2000/svg">
<path d="M36.3641 3.23365C31.7387 2.24599 27.0604 1.57727 22.3572 1.23173C19.5993 1.52618 16.8214 1.52618 14.0635 1.23173C12.534 0.732866 10.9262 0.582172 9.34064 0.788833C7.75505 0.995494 6.22577 1.55502 4.84837 2.43276C3.74255 2.43276 4.84837 3.83403 4.84837 4.63474L6.32276 5.6357C7.61288 5.6357 7.61288 7.83766 6.32276 8.4382C4.22441 10.7661 2.42649 13.3924 0.978027 16.2452C0.978027 16.2452 0.978027 17.246 0.978027 17.4462C1.69858 17.8496 2.32862 18.4203 2.82356 19.1176C3.3185 19.8149 3.66623 20.622 3.84208 21.4815C4.01794 22.341 4.01761 23.2319 3.84117 24.0912C3.66472 24.9506 3.31645 25.7576 2.82103 26.4545C2.17545 28.1879 2.17545 30.1257 2.82103 31.8591C3.09853 32.4834 3.24265 33.1678 3.24265 33.861C3.24265 34.5543 3.09853 35.2387 2.82103 35.863C2.82103 37.4644 2.82105 38.4651 3.92687 39.466C6.6717 42.1203 10.2045 43.6126 13.8792 43.6699C25.8785 44.7693 37.8143 46.5733 49.634 49.0745C59.5863 51.0763 69.5386 51.6769 79.6753 52.878C81.1369 53.1762 82.6369 53.1762 84.0986 52.878C88.3055 52.0778 92.6085 52.0778 96.8155 52.878C111.56 54.6796 126.304 55.4805 141.048 56.4814C148.605 56.4814 156.161 56.4813 163.533 58.2829C170.905 60.0845 172.564 58.2829 176.987 58.2829L218.087 61.4859L249.603 62.887L278.538 64.088C296.968 64.088 316.689 62.687 335.856 63.0873C342.307 63.0873 348.757 62.0862 354.287 61.886C368.415 61.4555 382.508 60.1187 396.492 57.8825C409.577 55.8807 422.479 53.8791 435.38 51.4769C448.281 49.0748 460.629 46.6725 473.346 43.87C486.063 41.0675 496.753 38.4653 508.548 35.863C513.893 34.6619 519.238 34.2614 524.398 33.2605C532.936 31.647 541.37 29.4404 549.648 26.6546C556.35 25.182 562.896 22.9684 569.184 20.0486C570.023 19.7574 570.925 19.7574 571.764 20.0486C574.344 20.0486 577.293 20.0488 579.32 23.0515C581.348 26.0542 580.979 23.0515 581.716 23.0515C582.453 23.0515 581.716 21.2498 581.716 20.4491C580.633 18.4726 579.113 16.8211 577.293 15.6447L566.972 9.63922C564.78 8.13283 562.175 7.49639 559.6 7.83768C557.713 8.2372 555.773 8.2372 553.887 7.83768C547.514 5.68023 540.796 4.99847 534.166 5.83607C530.942 6.10974 527.699 5.77097 524.582 4.83512C517.301 2.76218 509.809 1.68614 502.282 1.63218H477.217C470.766 1.63218 464.315 1.63218 458.786 1.63218C447.728 1.63218 436.854 2.83324 425.98 4.43467C415.106 6.03611 403.864 7.03714 392.806 8.63857L380.089 11.0406C367.925 12.4419 355.761 14.0433 343.228 15.0441C325.904 16.4454 308.579 17.4463 291.071 17.8466C280.209 18.6473 269.31 18.6473 258.449 17.8466H254.026H250.155C244.571 17.4464 238.968 17.4464 233.384 17.8466C229.954 18.2502 226.493 18.2502 223.063 17.8466C217.733 17.2438 212.359 17.2438 207.029 17.8466C200.053 19.0454 192.915 18.428 186.202 16.0451C185.353 15.8382 184.472 15.8382 183.622 16.0451C177.877 15.1444 172.043 15.1444 166.298 16.0451C165.076 16.2516 163.833 16.2516 162.612 16.0451H134.966C129.606 16.1224 124.248 15.7878 118.932 15.0441C111.086 13.5495 103.118 12.9458 95.1567 13.2426C91.0872 13.2197 87.068 12.2648 83.3614 10.4401C80.7054 9.25005 77.7237 9.25005 75.0677 10.4401C73.005 10.9472 70.8641 10.9472 68.8014 10.4401C57.7432 6.63671 46.8694 6.63669 36.3641 3.23365Z" fill="#FFDA00"/>
</svg>
