<svg width="529" height="81" viewBox="0 0 529 81" fill="none" xmlns="http://www.w3.org/2000/svg">
<path d="M469.573 0.805563C462.704 0.595837 455.85 1.59821 449.284 3.77225C438.033 7.13429 426.413 9.70523 415.347 14.2539H412.764C399.669 17.6159 386.573 21.3734 373.293 24.3399C356.509 28.0975 339.724 31.6574 322.756 35.0195C305.787 38.3815 291.585 40.5568 275.722 42.93C265.394 44.5122 255.065 46.4899 244.551 47.2809C229.427 48.4675 214.118 50.0497 198.994 51.0385C183.869 52.0274 169.298 51.0385 154.543 52.8184L145.689 53.8073C127.245 53.8073 110.092 56.5759 92.2007 56.1804C84.8229 56.1804 77.2607 56.1804 69.6985 56.1804H28.5675C27.0022 55.6859 25.3372 55.6859 23.772 56.1804C24.8786 57.367 26.1697 57.1692 27.4608 57.3669C28.9918 57.1601 30.5409 57.1601 32.0719 57.3669C34.888 58.5334 37.9281 58.9408 40.9253 58.5535C41.7539 58.465 42.5906 58.5599 43.3838 58.832C44.1769 59.1042 44.9096 59.5477 45.5364 60.1357C45.7646 60.298 45.9518 60.5184 46.0814 60.7772C46.2109 61.036 46.2787 61.3254 46.2787 61.6192C46.2787 61.9129 46.2109 62.202 46.0814 62.4608C45.9518 62.7196 45.7646 62.94 45.5364 63.1023C43.7263 65.0328 41.5621 66.5394 39.181 67.5266C36.7998 68.5138 34.2535 68.9601 31.7031 68.8375H29.3053C30.5335 68.747 31.766 68.747 32.9942 68.8375C33.1916 68.7452 33.3597 68.5931 33.4777 68.3999C33.5957 68.2067 33.6585 67.9808 33.6585 67.7499C33.6585 67.5189 33.5957 67.2928 33.4777 67.0996C33.3597 66.9064 33.1916 66.7543 32.9942 66.662C31.0526 64.6075 28.8848 62.8146 26.5386 61.3225C25.5936 60.5204 24.4238 60.0838 23.2186 60.0838C22.0134 60.0838 20.8435 60.5204 19.8986 61.3225C18.423 62.9047 16.9475 62.9047 16.0253 61.3225C14.9835 60.3384 13.7324 59.6434 12.3818 59.2986C11.0311 58.9537 9.62226 58.9696 8.27867 59.3447C6.81485 59.6389 5.30142 59.4116 3.96934 58.6974C2.63726 57.9833 1.55966 56.8216 0.900879 55.3894C0.900879 55.3894 0.900879 55.3894 0.900879 54.4006V80.7036C2.13723 80.3703 3.31892 79.8367 4.40529 79.1214C5.47862 77.9934 6.83484 77.2246 8.30857 76.9086C9.7823 76.5925 11.3099 76.743 12.7053 77.3416C18.0067 79.4695 23.7607 79.9492 29.3053 78.7258C29.9062 78.5275 30.5488 78.5275 31.1497 78.7258C34.7515 79.3223 38.4358 78.9137 41.8475 77.5393C42.338 77.2923 42.8733 77.1642 43.4152 77.1642C43.9572 77.1642 44.4924 77.2923 44.983 77.5393C46.3172 78.599 47.9337 79.1709 49.5941 79.1709C51.2545 79.1709 52.871 78.599 54.2052 77.5393C54.2052 77.5393 56.7874 77.5393 58.0785 77.5393H72.2807C76.3337 77.2429 80.4009 77.2429 84.454 77.5393C91.8671 78.3619 99.3206 78.6922 106.772 78.5281C112.417 77.1468 118.28 77.1468 123.925 78.5281C129.695 79.0226 135.493 79.0226 141.263 78.5281C144.952 78.5281 149.009 78.5282 152.145 75.7594H153.436H164.872H171.327C176.149 74.8701 181.077 74.8701 185.898 75.7594C186.738 76.0471 187.641 76.0471 188.48 75.7594C190.201 75.6622 191.925 75.6622 193.645 75.7594C201.76 75.7594 209.876 75.7594 217.991 74.7705C220.561 74.3783 223.169 74.3783 225.738 74.7705C229.275 75.4649 232.899 75.4649 236.436 74.7705H242.891C244.793 74.9665 246.708 74.9665 248.609 74.7705C255.449 72.7368 262.545 71.8691 269.636 72.1995C270.674 72.3839 271.733 72.3839 272.771 72.1995C278.838 70.6994 285.005 69.7077 291.216 69.2331L310.767 65.6731L330.502 62.5091C334.28 61.8502 337.987 60.7902 341.569 59.3447C342.419 59.1404 343.301 59.1404 344.151 59.3447C348.434 59.3063 352.7 58.7759 356.878 57.7626C370.896 54.7961 384.913 51.4339 398.931 48.0719C412.949 44.7098 425.675 41.348 439.14 38.3815C447.503 35.7113 456.09 33.9229 464.777 33.0417L486.357 28.2952C488.739 27.871 491.169 27.871 493.551 28.2952L489.309 31.4595C489.206 31.8474 489.206 32.2582 489.309 32.6461C489.61 32.7395 489.93 32.7395 490.231 32.6461C493.673 32.4755 497.053 31.6031 500.191 30.0753C501.297 30.0753 501.113 28.8885 500.191 27.1086C501.851 24.9332 504.433 24.9332 506.646 24.3399L520.48 21.1755C521.946 20.9243 523.373 20.4587 524.722 19.7913C526.013 19.7913 527.857 19.7914 528.595 18.6048C529.333 17.4182 527.673 17.6159 526.935 17.6159C522.698 17.3138 518.53 16.3134 514.577 14.6495L490.231 5.9477C484.384 3.43005 478.053 2.47967 471.786 3.17897L469.573 0.805563ZM227.398 56.576C226.218 57.5765 224.814 58.2302 223.327 58.4729C221.839 58.7156 220.318 58.5389 218.914 57.9602C221.512 56.2709 224.568 55.5741 227.583 55.9827L227.398 56.576Z" fill="#FFDA00"/>
</svg>
