<svg width="310" height="62" viewBox="0 0 310 62" fill="none" xmlns="http://www.w3.org/2000/svg">
<path d="M263.173 7.5649L264.238 7.59569C267.632 8.12407 270.753 7.06698 274.662 11.9126C276.253 11.9233 277.811 12.4609 279.199 13.478C280.578 14.235 282.036 14.7121 283.526 14.8938C284.161 15.0556 284.583 15.2112 284.652 16.5039C284.721 17.7967 283.763 17.7689 283.763 17.7689L283.018 17.7473C283.059 18.001 283.163 18.2267 283.313 18.3874C283.464 18.5482 283.651 18.6343 283.845 18.6317L292.043 18.8687C292.776 18.6893 293.527 18.7358 294.239 19.0049C294.951 19.2739 295.606 19.7585 296.153 20.4218C296.359 20.5914 296.595 20.6843 296.838 20.6913C297.081 20.6983 297.322 20.6192 297.537 20.4618C298.844 19.4957 300.023 19.2428 299.945 21.9654C299.945 21.9654 300.895 22.2797 300.903 21.9931L300.94 20.7035C300.992 20.616 301.059 20.5456 301.134 20.498C301.209 20.4504 301.292 20.4268 301.374 20.4292C301.457 20.4316 301.538 20.4599 301.61 20.5117C301.683 20.5636 301.745 20.6378 301.792 20.7282C301.857 21.0084 301.848 21.3119 301.767 21.5879C302.283 22.1765 301.607 23.4477 302.246 23.4662C304.424 22.6685 306.717 22.7348 308.846 23.657L307.536 24.7665C306.522 25.8961 305.278 26.5794 303.975 26.7216C302.673 26.8639 301.377 26.4579 300.267 25.5601C300.191 25.4358 300.095 25.3354 299.987 25.2653C299.879 25.1952 299.76 25.157 299.639 25.1535C299.519 25.15 299.398 25.1813 299.286 25.245C299.174 25.3088 299.073 25.4035 298.989 25.5231C298.912 25.9951 298.898 26.4805 298.948 26.9562C299.025 27.9623 300.291 28.4292 299.725 29.5602C299.16 30.691 297.989 30.6571 297.031 30.6294L297.03 30.6294C291.152 31.8153 285.221 32.3634 279.295 32.2679C278.659 32.1809 278.018 32.1624 277.378 32.2125C272.423 33.5997 267.413 34.5565 262.378 35.0772L259.056 35.6983C253.959 37.1745 248.804 38.2229 243.622 38.8374C243.043 38.5475 242.406 38.529 241.812 38.785C238.048 41.4711 233.879 42.9236 229.648 43.0225C226.118 43.4941 222.568 44.6823 218.919 45.5807C215.27 46.4791 212.792 47.4112 208.193 47.9953C203.594 48.5794 198.217 50.2884 194.478 50.6105C190.74 50.9326 186.346 51.8096 183.79 51.7357L176.018 51.511C173.574 52.0429 171.109 52.3547 168.639 52.4447C166.897 52.6082 165.151 52.5577 163.422 52.2939C163.079 52.1402 162.708 52.1295 162.357 52.2631C159.251 53.3963 156.024 53.7409 152.844 53.2789L145.818 53.0758C144.081 53.4542 142.313 53.4031 140.601 52.9249C139.527 52.5353 138.395 52.5026 137.3 52.8295C134.211 53.3191 131.094 53.229 128.038 52.5617C125.483 52.0987 122.878 52.2664 120.351 53.0566L117.796 52.9827L99.5902 52.4563C96.8807 52.3081 94.1623 52.5177 91.4739 53.0821C88.8793 53.2957 86.2797 53.2206 83.7018 52.8574C81.1508 52.6402 78.7712 53.8621 76.3225 53.7913L65.6758 53.4835L64.9305 53.4619C62.5622 54.8851 59.9056 55.1139 57.4529 54.1062C56.604 54.0127 55.7507 53.9881 54.8977 54.0323L39.395 52.1499C30.1572 51.0223 20.9443 49.0351 11.6817 48.7672C9.44999 48.5593 7.23903 47.6348 5.00322 47.5701C4.75956 47.5455 4.5291 47.4188 4.34411 47.2077C4.15912 46.9966 4.0289 46.7117 3.97172 46.393C3.89839 45.2436 4.96307 45.2743 4.96307 45.2743C5.52188 44.9087 5.98561 44.3209 6.29037 43.5918L2.62205 41.478C2.55728 39.3741 2.18212 37.3159 1.51842 35.4227C1.02386 34.2894 0.729174 33.0151 0.656552 31.6963C0.58393 30.3774 0.735294 29.0486 1.09923 27.8097C1.54581 27.1056 1.77115 26.6818 2.71693 27.1394C3.6627 27.597 3.6917 26.594 3.71242 25.8775C3.49204 25.1215 3.30097 24.3501 3.13993 23.5663C3.06481 23.3243 3.04115 23.058 3.07162 22.7966C3.10209 22.5353 3.18548 22.2889 3.31259 22.085C3.43971 21.881 3.60563 21.7272 3.79204 21.6406C3.97845 21.554 4.17815 21.5379 4.36908 21.594C6.37952 22.0824 8.74666 21.2904 10.5968 23.6385C11.3684 24.4672 12.336 24.9011 13.3318 24.865C17.1977 23.8294 20.5715 25.0743 23.9785 25.1728C25.7639 24.4369 27.6683 24.4919 29.4083 25.3298C30.3416 26.2172 31.5376 25.3913 32.7087 25.4252C37.0945 24.2608 41.5995 24.391 45.9107 25.8069L47.2947 25.8469C52.9706 24.8637 58.1544 26.1609 63.5842 26.3179C64.6859 26.2085 65.7911 26.2405 66.8846 26.4133C66.8846 26.4133 66.9621 27.4194 66.8556 27.4163L66.0039 27.3917L65.025 28.0805C65.9682 28.3452 66.9427 28.3734 67.8996 28.1636C68.7043 27.8262 69.5645 27.851 70.3484 28.2344C71.429 28.4954 72.55 28.1666 73.4649 27.3205C73.9389 26.7384 74.5594 26.4232 75.1952 26.4416C75.831 26.46 76.4323 26.8105 76.8719 27.419C77.1766 27.8313 77.5892 28.068 78.0249 28.0806C78.4605 28.0932 78.8861 27.8807 79.2141 27.4867C79.845 27.0178 80.4976 26.6055 81.1678 26.2525C81.7882 25.8432 82.4704 25.6398 83.1562 25.6597C83.8421 25.6795 84.5114 25.9219 85.1071 26.3664L86.6668 27.7022C86.8542 27.9094 87.0752 28.0551 87.3129 28.1281C87.5505 28.2011 87.7984 28.1995 88.0373 28.1232C88.2763 28.047 88.5001 27.8983 88.6913 27.6885C88.8826 27.4787 89.0362 27.2135 89.1404 26.9133C89.3551 26.3926 89.6733 25.9611 90.0586 25.668C90.4439 25.3748 90.8808 25.2319 91.3195 25.2554L100.902 25.5324C101.273 25.5486 101.634 25.678 101.96 25.911C102.286 26.144 102.566 26.4745 102.781 26.8774L103.739 26.9051C105.112 23.6463 105.484 25.5215 106.188 26.9759C106.376 27.2926 106.614 27.5502 106.884 27.7311C107.155 27.9121 107.452 28.0124 107.756 28.0253L111.056 28.1207C112.097 25.2825 113.989 26.1975 115.504 25.3809C116.815 24.3756 118.313 23.9194 119.804 24.0712L133.432 24.4652L133.395 25.7548C133.37 26.6146 132.862 25.7394 133.37 26.6145C133.877 27.4897 135.929 26.5452 136.056 25.8318C136.184 25.1184 136.204 24.4018 136.843 24.4203L138.653 24.4726L151.642 24.8482C152.573 25.223 153.566 25.2517 154.517 24.9313C155.115 24.7214 155.742 24.7395 156.326 24.9836C159.643 25.9364 163.075 26.0356 166.441 25.2761C169.234 24.4964 171.895 24.5733 174.663 24.6534L174.664 24.6534C182.067 24.2244 189.456 23.2894 196.802 21.8517C202.691 20.8746 208.408 18.4584 214.157 18.6246C216.137 18.435 218.092 17.8638 219.96 16.9281C222.358 15.8722 224.803 15.0325 227.279 14.4149L234.155 12.4623C236.975 11.1061 239.995 10.7488 242.922 11.4252C244.273 12.6115 245.478 11.499 246.862 11.5391C248.346 11.7227 249.84 11.7659 251.333 11.6684C251.653 11.6776 251.066 13.525 252.398 11.6991C253.729 9.87326 256.137 11.3769 257.243 9.97478C258.349 8.57262 259.151 10.3168 260.437 10.0671C261.723 9.81748 262.002 7.53104 263.173 7.5649Z" fill="#FFDA00"/>
</svg>
