<svg width="269" height="43" viewBox="0 0 269 43" fill="none" xmlns="http://www.w3.org/2000/svg">
<path d="M124.533 42.3812C126.606 42.7618 128.724 42.7618 130.796 42.3812C131.808 41.9918 132.916 41.9918 133.928 42.3812C136.24 42.8575 138.617 42.8575 140.929 42.3812L184.036 41.0082C188.265 41.398 192.518 41.398 196.747 41.0082C200.55 40.7157 204.367 40.7157 208.169 41.0082C215.906 41.0082 223.644 41.0085 231.197 40.0279H238.934C244.092 40.0279 249.619 41.0083 254.593 37.6743C254.797 37.5826 255.016 37.5354 255.237 37.5354C255.459 37.5354 255.678 37.5826 255.882 37.6743C259.198 39.6355 262.883 37.6743 266.383 37.6743C269.883 37.6743 267.672 37.6744 267.304 35.9093C266.935 34.1442 267.304 33.7521 268.593 32.9677C268.593 31.2026 266.567 30.8102 265.646 29.4374C264.876 29.8384 264.282 30.5414 263.988 31.3987H262.514C262.514 29.6336 260.672 29.8297 259.382 31.3987C257.956 32.1735 256.378 32.5774 254.777 32.5774C253.176 32.5774 251.597 32.1735 250.171 31.3987C249.103 30.8718 247.94 30.5988 246.763 30.5988C245.586 30.5988 244.423 30.8718 243.355 31.3987C240.31 33.5504 236.687 34.5833 233.039 34.3403C228.433 34.3403 225.117 38.0665 220.88 36.6936C219.407 39.6354 216.827 38.851 214.617 38.2626C212.71 37.9897 210.951 37.019 209.643 35.517C209.643 34.1442 207.616 33.948 206.511 35.517C206.164 35.7879 205.744 35.9338 205.314 35.9338C204.883 35.9338 204.464 35.7879 204.116 35.517C203.622 35.0868 203.004 34.8517 202.366 34.8517C201.728 34.8517 201.11 35.0868 200.616 35.517C200.071 35.9049 199.43 36.1119 198.774 36.1119C198.118 36.1119 197.477 35.9049 196.932 35.517C195.669 35.1192 194.326 35.1192 193.063 35.517C182.032 36.4326 170.965 36.7599 159.903 36.4976C158.245 36.4976 156.035 36.4976 157.877 33.3597C159.719 30.2218 157.877 32.1829 156.956 31.7907C154.304 31.0046 151.502 31.0046 148.85 31.7907C148.33 31.8843 147.858 32.173 147.52 32.6047C147.182 33.0363 147.001 33.5825 147.008 34.1443C147.008 37.2822 147.008 37.4783 144.245 37.4783C141.481 37.4783 139.086 37.4783 136.507 37.4783C134.017 38.0336 131.445 38.0336 128.954 37.4783C127.103 36.8059 125.095 36.8059 123.243 37.4783C118.27 39.2433 113.48 42.9694 107.769 39.4393C104.269 39.4393 103.532 39.4394 102.979 35.321C102.849 33.0645 102.005 30.9216 100.584 29.2414C100.189 28.8084 99.7169 28.4643 99.1948 28.2293C98.6727 27.9943 98.1116 27.8732 97.5447 27.8732C96.9778 27.8732 96.4168 27.9943 95.8946 28.2293C95.3725 28.4643 94.9 28.8084 94.5051 29.2414C93.0313 31.0064 91.5576 30.6142 89.8996 30.418C88.2416 30.2219 86.7679 27.6724 85.2941 26.1034C83.8203 24.5345 87.5047 26.1033 87.6889 24.7305C87.8731 23.3576 87.6889 22.5734 87.6889 22.1811C87.6889 21.7889 89.1627 23.1616 90.0838 23.5538C91.0049 23.946 91.1891 23.5538 91.7418 23.5538C96.8687 25.2126 102.246 25.812 107.585 25.3191H109.427C109.427 25.3191 109.427 25.3188 109.427 24.1421H107.585C103.466 22.8339 99.1641 22.3028 94.8735 22.5732C92.2944 22.5732 90.6365 21.3965 89.8996 18.0625H93.3998C96.3473 18.0625 98.5579 20.4159 101.505 19.8275C104.169 19.1448 106.947 19.1448 109.611 19.8275C110.84 20.1371 112.13 20.0184 113.291 19.4888C114.452 18.9592 115.422 18.0468 116.059 16.8859C116.313 16.5161 116.451 16.0695 116.451 15.6111C116.451 15.1526 116.313 14.7061 116.059 14.3363C115.783 13.8248 115.378 13.4063 114.889 13.1288C114.4 12.8513 113.848 12.726 113.296 12.7673H108.874C107.396 13.0461 105.874 12.6941 104.637 11.7869C103.725 9.73596 102.329 7.97157 100.585 6.66555C98.8421 5.35953 96.8108 4.5563 94.6893 4.33438C90.2091 4.47897 85.7511 3.6099 81.6097 1.78476C78.9573 0.711503 76.1558 0.115095 73.3197 0.0197754C68.9061 0.410877 64.4695 0.410877 60.0558 0.0197754H59.1347C59.0204 0.111114 58.9275 0.22955 58.8636 0.36571C58.7996 0.50187 58.7663 0.652181 58.7663 0.804413C58.7663 0.956644 58.7996 1.10666 58.8636 1.24282C58.9275 1.37898 59.0204 1.49741 59.1347 1.58875L61.1612 2.96142C57.1462 4.46552 52.8675 5.00144 48.6342 4.53039C48.4615 4.44317 48.2727 4.39812 48.0815 4.39812C47.8904 4.39812 47.7016 4.44317 47.5288 4.53039C47.1268 4.75267 46.7923 5.09178 46.564 5.50835C46.3358 5.92491 46.2232 6.40205 46.2393 6.884C46.2101 7.34298 46.3195 7.79974 46.5515 8.18784C46.7835 8.57595 47.1259 8.87508 47.5288 9.04131H49.3711C55.4504 9.04131 60.977 11.7869 67.7931 11.3946C68.0032 11.3929 68.2111 11.4391 68.4031 11.5299C68.5951 11.6207 68.7666 11.7539 68.9062 11.921C69.0458 12.0882 69.1501 12.2853 69.2123 12.4989C69.2745 12.7125 69.2931 12.9377 69.2669 13.1596C69.2669 13.1596 69.2669 13.1597 69.2669 14.5326C68.1615 18.4549 73.6882 19.4353 72.5828 23.5538C72.5828 23.5538 72.5829 23.5539 73.6882 24.9268C75.2646 26.1239 77.1049 26.867 79.0306 27.0841L89.8996 28.653H92.2944C92.2944 28.653 92.2944 29.8296 92.2944 30.614C92.2944 31.3985 92.2944 31.9868 91.0049 31.7907C89.7153 31.5946 84.0045 31.7907 81.2412 29.6334C80.2177 29.3227 79.1329 29.3227 78.1094 29.6334C73.4539 30.1237 68.7643 30.1237 64.1087 29.6334H62.8192C60.0559 31.9868 56.5556 30.614 53.7923 32.379C52.663 33.09 51.3433 33.3799 50.0419 33.2023C48.7406 33.0247 47.532 32.39 46.6077 31.3987C45.7692 30.6733 44.7806 30.1704 43.7236 29.9318C42.6666 29.6931 41.5715 29.7252 40.5285 30.0257C37.7685 29.8231 34.9986 29.8231 32.2386 30.0257H30.7648C28.7384 30.0257 28.0015 27.0839 25.9751 26.8878C23.9487 26.6916 23.5802 26.8878 23.2117 26.8878C22.8433 26.8878 21.3696 30.0258 19.1589 28.8491C16.9483 27.6724 14.0007 26.6918 11.7901 29.8297C9.57945 32.9676 9.57949 29.8297 8.65838 29.8297C5.94898 28.504 2.97777 27.8984 0 28.0647V32.183C6.17005 31.8654 12.3537 32.3263 18.422 33.556C24.5366 34.4086 30.7295 34.4086 36.8441 33.556H45.8709C48.2657 33.556 50.4764 33.556 52.8713 33.556C65.1962 33.9053 77.495 34.9525 89.7153 36.6936C101.203 39.3327 112.83 41.2321 124.533 42.3812ZM152.166 31.987H153.824C153.824 31.987 153.824 33.1636 152.903 33.3597C151.982 33.5558 152.35 32.7715 152.166 31.987ZM61.7138 4.33438C62.2883 4.03909 62.9181 3.8858 63.5561 3.8858C64.194 3.8858 64.8237 4.03909 65.3982 4.33438C65.3982 4.33438 66.5036 4.33453 65.3982 5.70735C64.2929 7.08017 65.3983 6.884 63.9245 6.884C62.9562 6.30004 62.1833 5.40861 61.7138 4.33438ZM75.8988 23.5538H82.7149C82.7149 23.5538 83.8203 23.5538 84.3729 25.1228C81.7938 25.1228 79.0306 25.1228 76.6357 26.6918L75.8988 23.5538ZM77.7411 26.1034V24.9268H78.8463C78.8463 24.9268 80.6885 24.9268 81.057 24.9268C81.0932 25.1586 81.0863 25.3957 81.0365 25.6246C80.9867 25.8536 80.8951 26.0696 80.7668 26.2608C80.6385 26.4521 80.4761 26.6146 80.2888 26.739C80.1015 26.8634 79.8931 26.9473 79.6754 26.9859C79.4576 27.0246 79.2349 27.0171 79.0198 26.9641C78.8048 26.9111 78.6016 26.8137 78.422 26.6771C78.2424 26.5405 78.0898 26.3674 77.973 26.1681C77.8561 25.9687 77.7773 25.7469 77.7411 25.5151V26.1034ZM30.949 33.1637H32.0543C32.0543 33.1637 31.3175 32.9676 30.949 32.5753V33.1637Z" fill="#FFDA00"/>
</svg>
