<svg width="569" height="72" viewBox="0 0 569 72" fill="none" xmlns="http://www.w3.org/2000/svg">
<path d="M411.166 10.4862L364.283 19.2031C360.591 19.2031 357.084 21.1841 353.577 22.1746C349.025 25.5856 343.623 27.4493 338.072 27.5237C336.57 27.8025 335.09 28.1998 333.642 28.7123C330.689 30.4953 327.366 28.7123 324.413 30.8915C321.46 33.0707 321.829 30.8915 320.537 30.8915C316.915 30.8951 313.332 31.7045 310.016 33.2687C306.524 35.7028 302.302 36.6234 298.203 35.8443C297.238 35.547 296.214 35.547 295.249 35.8443C293.849 36.5157 292.35 36.918 290.82 37.0329C286.854 36.2425 282.787 36.2425 278.822 37.0329C278.822 37.0329 276.976 37.0329 275.868 37.0329L276.976 39.8064C277.804 40.4965 278.548 41.295 279.191 42.1836C279.191 42.1836 279.191 43.9666 279.191 44.3629C277.109 45.6561 274.777 46.4181 272.377 46.5899C269.976 46.7616 267.571 46.3386 265.347 45.3535L270.885 43.5706C270.885 43.5706 270.885 42.382 270.885 41.7876C270.972 41.4641 270.972 41.1206 270.885 40.797C265.234 39.277 259.275 39.7634 253.903 42.1836C252.427 42.1836 250.212 43.3723 251.873 45.9478C253.534 48.5232 251.873 46.9383 251.873 47.1364C247.376 49.7992 242.179 50.7756 237.107 49.9102C235.261 49.9102 232.861 49.91 231.015 48.127C234.656 45.9204 238.923 45.2161 243.013 46.1461H245.044C246.151 46.1461 247.997 46.146 247.997 44.1649C247.997 42.1838 246.151 43.1743 245.228 43.1743C244.305 43.1743 242.644 43.1743 241.352 43.1743C240.06 43.1743 233.6 43.1742 231.015 39.4101C229.41 38.438 227.598 37.9274 225.755 37.9274C223.912 37.9274 222.1 38.438 220.494 39.4101C218.881 40.014 217.124 40.014 215.511 39.4101C214.463 39.1358 213.363 39.1959 212.347 39.583C211.33 39.9702 210.441 40.6674 209.789 41.5893C209.17 42.2038 208.443 42.6784 207.65 42.9847C206.858 43.291 206.016 43.4231 205.174 43.3726C203.144 43.3726 201.298 43.3726 199.268 43.3726H193.546C191.515 43.3726 189.3 45.1555 187.455 43.3726C185.609 41.5896 184.317 44.7593 182.102 43.3726C179.472 42.3913 176.61 42.3913 173.98 43.3726C171.851 43.8654 169.649 43.8654 167.52 43.3726C165.011 42.9711 162.461 42.9711 159.952 43.3726C155.658 43.8718 151.326 43.8718 147.031 43.3726C145.568 43.0774 144.065 43.0774 142.601 43.3726C140.452 43.5752 138.29 43.5752 136.141 43.3726C129.378 43.7684 122.6 43.7684 115.837 43.3726C114.716 43.2982 113.605 43.6485 112.699 44.3629C108.609 46.4453 104.12 47.4636 99.5942 47.3347C99.0519 47.1641 98.4754 47.1641 97.9331 47.3347C97.9331 47.3347 97.9331 47.3347 97.9331 48.5233C97.9331 49.712 97.933 50.3063 96.6409 49.7119C95.1627 48.895 93.4969 48.5511 91.8419 48.7213C89.4824 48.5993 87.1364 48.2683 84.8278 47.731C84.2823 47.811 83.7268 47.7441 83.2113 47.5366C82.6958 47.3291 82.2365 46.9873 81.8745 46.5421C80.2133 43.1742 77.4446 43.5704 74.6759 43.7686C73.2129 44.0732 71.709 44.0732 70.246 43.7686C68.3935 43.074 66.3764 43.074 64.524 43.7686C62.6715 44.4631 60.6544 44.4631 58.802 43.7686C56.7716 43.7686 55.6641 43.7687 54.3721 45.7498L50.4958 43.5706L44.4047 41.3913C41.636 43.1743 39.6056 41.3913 37.2061 39.8064L34.2528 38.8158C27.4233 37.429 20.5938 37.0328 13.9489 35.448C11.5494 35.448 9.33442 35.448 8.41152 32.0801C7.48862 28.7123 8.41156 32.0801 6.93492 32.0801C5.45827 32.0801 5.27365 33.467 5.08907 34.6557C4.63476 36.3209 4.53159 38.0737 4.787 39.7871C5.04242 41.5004 5.65003 43.1312 6.56575 44.5612C6.56575 45.5517 6.56575 45.948 6.56575 46.7404L0.65918 52.0892C3.15915 54.4701 6.08572 56.2781 9.25963 57.4022C12.4335 58.5264 15.788 58.9431 19.1172 58.6268C21.2665 58.4242 23.4282 58.4242 25.5775 58.6268C31.6687 58.6268 37.5752 60.608 44.0355 60.608C45.3205 60.4018 46.6268 60.4018 47.9117 60.608C51.7017 62.2201 55.674 63.286 59.7248 63.7779C65.4428 64.9276 71.2619 65.3925 77.0754 65.1645C80.0839 64.8681 83.1114 64.8681 86.1199 65.1645C93.7395 66.5526 101.466 67.1496 109.192 66.9474C113.253 66.9474 117.314 66.9474 121.375 66.9474L141.309 69.1266C144.714 69.3937 148.103 69.8567 151.461 70.5136C154.885 71.1057 158.374 71.1057 161.798 70.5136C166.043 70.5136 170.289 70.5136 174.718 70.5136H193.177C202.036 70.5136 211.635 70.5136 219.756 70.5136C230.014 71.4021 240.323 71.4021 250.581 70.5136C252.298 70.3091 254.032 70.3091 255.749 70.5136C266.455 70.5136 277.161 69.1268 287.866 68.9286C294.511 68.9286 301.156 68.9288 307.801 67.542L359.668 61.0044C366.497 61.0044 373.327 59.2213 380.156 57.8345C392.708 55.2591 405.444 53.0798 418.18 51.2968C429.57 50.0851 440.861 47.9663 451.958 44.9575L463.033 41.7876C474.662 39.2122 486.29 36.6366 497.55 33.2687C508.809 29.9009 517.115 26.335 527.082 23.1652C531.142 20.4743 535.788 18.9716 540.557 18.8068C543.547 18.4252 546.369 17.1172 548.678 15.0426C549.616 13.9466 550.835 13.1734 552.182 12.8208C553.529 12.4682 554.943 12.5522 556.246 13.0617C560.077 13.6761 563.846 14.6708 567.505 16.0332H568.428C568.428 16.0332 568.428 14.8445 567.505 14.4483C564.466 12.7107 561.771 10.3556 559.569 7.51435C558.835 6.49776 557.878 5.69381 556.782 5.17491C555.686 4.65601 554.487 4.43867 553.293 4.54282C550.739 4.82525 548.166 4.27277 545.91 2.9579C543.71 2.05923 541.28 2.05923 539.08 2.9579C533.768 3.83976 528.396 4.23735 523.022 4.14651C515.965 3.35184 508.851 3.35184 501.795 4.14651C497.768 5.18556 493.521 4.4736 489.982 2.16559C488.946 1.94147 487.879 1.94147 486.844 2.16559C479.047 0.479308 471.015 0.479308 463.218 2.16559C444.944 3.75047 428.147 7.31642 411.166 10.4862ZM219.756 49.5139C218.649 49.5139 217.172 49.5139 215.88 49.5139C216.385 49.2009 216.958 49.036 217.541 49.036C218.124 49.036 218.697 49.2009 219.202 49.5139H219.756ZM112.515 49.5139C112.515 49.5139 112.33 50.3064 111.961 49.9102L112.515 49.5139ZM123.221 49.5139C123.221 49.5139 123.221 48.3253 123.221 47.731C123.221 47.1367 123.221 47.731 124.143 47.731C125.066 47.731 124.143 47.7307 124.143 49.3156C124.143 50.9005 123.22 50.7026 122.667 50.1082L123.221 49.5139ZM147.585 48.127C140.94 49.91 140.94 49.91 137.433 48.127C140.387 47.7308 143.155 49.1175 147.216 48.7213L147.585 48.127ZM164.382 51.0988C161.247 50.9035 158.104 50.9035 154.968 51.0988C154.968 51.0988 153.492 51.0988 153.492 50.1082C153.492 49.1177 153.492 48.7213 155.153 48.7213H171.027C171.027 48.7213 172.319 48.7214 172.503 49.7119C171.357 50.8493 169.946 51.6338 168.42 51.9824C166.893 52.3311 165.307 52.2312 163.828 51.6931L164.382 51.0988ZM188.377 49.5139L193.361 47.3347C194.151 47.1398 194.971 47.1398 195.761 47.3347C196.033 47.4028 196.289 47.5304 196.513 47.7095C196.737 47.8887 196.924 48.1155 197.063 48.3758C197.201 48.6361 197.288 48.9244 197.318 49.2225C197.348 49.5206 197.321 49.8221 197.237 50.1082C197.076 50.525 196.786 50.87 196.417 51.0861C196.048 51.3023 195.621 51.3766 195.207 51.2968C192.438 51.6931 190.223 50.7026 187.824 50.1082L188.377 49.5139ZM204.99 50.9005C204.99 50.9005 203.882 50.9008 203.698 49.9102C203.547 49.6777 203.466 49.401 203.466 49.1176C203.466 48.8343 203.547 48.5578 203.698 48.3253H207.02H208.497C208.578 48.4759 208.62 48.6466 208.62 48.8205C208.62 48.9943 208.578 49.165 208.497 49.3156C207.071 49.8768 205.709 50.6078 204.436 51.4948L204.99 50.9005ZM257.041 46.3441H258.149C258.149 46.3441 256.488 47.7308 256.488 46.9384L257.041 46.3441ZM288.051 41.5893H294.696C291.927 44.1648 288.974 43.1742 286.39 43.7686C283.805 44.3629 286.759 42.1836 287.497 42.1836L288.051 41.5893ZM303.002 41.5893C303.002 41.5893 303.002 41.5896 303.002 40.599C303.002 39.6085 302.448 41.9857 302.448 42.3819L303.002 41.5893Z" fill="#FFDA00"/>
</svg>
