<svg width="587" height="80" viewBox="0 0 587 80" fill="none" xmlns="http://www.w3.org/2000/svg">
<path d="M464.476 0.380583C458.388 0.380583 452.117 1.97065 446.03 2.76557C442.37 2.92078 438.864 4.38962 436.069 6.93878C433.117 9.52229 429.428 8.52884 426.108 9.32377H425.001C422.603 7.13772 421.496 6.93898 419.836 9.32377C419.625 9.92397 419.293 10.4666 418.866 10.9134C418.438 11.3601 417.924 11.6999 417.361 11.9086C416.797 12.1173 416.198 12.1895 415.606 12.1206C415.013 12.0516 414.442 11.8433 413.933 11.5098C411.904 11.5098 409.506 8.92632 408.03 11.5098C406.555 14.0934 406.739 11.5098 406.37 11.5098C405.222 10.6894 403.874 10.2517 402.496 10.2517C401.119 10.2517 399.771 10.6894 398.623 11.5098C396.778 11.5098 395.302 13.8945 393.273 13.2984C392.61 12.9618 391.885 12.7874 391.152 12.7874C390.419 12.7874 389.694 12.9618 389.031 13.2984C386.448 14.6895 383.681 15.4845 381.099 17.0743C378.516 18.6642 375.381 18.4652 373.351 20.2538C371.699 22.6083 370.393 25.2223 369.478 28.0043C368.371 28.0043 367.449 30.9853 366.157 28.0043C365.95 27.7506 365.694 27.5474 365.408 27.4082C365.122 27.269 364.811 27.1971 364.497 27.1971C364.183 27.1971 363.873 27.269 363.587 27.4082C363.3 27.5474 363.045 27.7506 362.837 28.0043C361.766 28.7423 360.775 29.6091 359.886 30.5879C358.989 31.7522 357.746 32.5464 356.367 32.8362C354.989 33.1259 353.56 32.8934 352.323 32.1778C352.323 32.1778 350.109 32.1778 349.371 32.1778C348.978 31.8692 348.523 31.6637 348.042 31.5774C347.562 31.4911 347.07 31.5266 346.604 31.6808C346.139 31.8351 345.713 32.104 345.361 32.4662C345.009 32.8284 344.74 33.274 344.575 33.7677C343.762 35.6295 342.484 37.2117 340.886 38.3385C340.886 38.3385 338.673 37.146 336.828 37.3448C334.983 37.5435 332.77 37.345 331.294 39.1336C329.818 40.9222 331.294 39.1336 330.187 39.1336C329.081 39.1336 330.187 39.1336 330.187 39.1336C330.187 39.1336 330.187 37.9412 330.187 36.9475C330.187 35.9539 325.76 36.9474 324.469 38.736C323.178 40.5246 319.857 39.9283 317.644 40.127C315.43 40.3257 316.353 38.7359 316.722 37.9409C317.067 37.2109 317.596 36.6002 318.249 36.1785C318.901 35.7568 319.65 35.5413 320.411 35.5562C322.255 35.5562 324.1 35.5562 325.945 35.5562C327.789 35.5562 323.916 33.569 322.993 32.5754L321.702 31.1841C318.751 31.1841 316.168 33.3701 313.032 32.9726C311.809 32.6058 310.501 32.7764 309.395 33.4469C308.288 34.1174 307.474 35.2334 307.13 36.55C306.592 38.1895 305.547 39.5791 304.169 40.4842C302.791 41.3894 301.165 41.7547 299.567 41.5183H295.877C294.402 41.5183 293.848 43.7043 292.188 43.3068H290.897C289.237 42.3131 287.392 41.5182 285.916 43.3068C285.651 43.7168 285.469 44.1821 285.381 44.6726C285.294 45.1631 285.302 45.6681 285.406 46.1548C285.511 46.6416 285.708 47.0994 285.987 47.4988C286.265 47.8982 286.618 48.2305 287.023 48.474L289.421 49.6664C287.392 52.0511 284.81 51.4548 282.227 51.6535C279.645 51.8522 280.936 51.6535 280.567 50.0636C278.942 52.3274 276.666 53.9462 274.096 54.6656C271.525 55.385 268.805 55.1644 266.363 54.0385C266.363 51.6537 265.441 49.4675 265.072 47.0827C262.75 47.4805 260.385 47.4805 258.063 47.0827C256.402 47.0827 256.034 48.2751 256.218 49.865H257.878C257.934 50.2602 257.934 50.6621 257.878 51.0573C256.956 52.8459 255.665 54.4359 256.587 56.8207C257.509 59.2055 255.665 56.8207 255.111 56.8207C249.946 54.2372 248.655 54.2372 244.966 56.8207C242.516 58.1644 239.778 58.7817 237.034 58.6092C237.034 58.6092 237.034 58.6092 237.034 57.6155C237.034 56.6219 237.034 53.6408 239.616 53.8396C240.526 54.1602 241.504 54.1802 242.425 53.8969C243.345 53.6135 244.166 53.0398 244.781 52.2497C242.978 52.8474 241.05 52.8474 239.247 52.2497C235.743 49.6662 232.422 51.0573 228.918 52.2497C228.697 52.2964 228.487 52.3911 228.302 52.5277C228.116 52.6644 227.958 52.84 227.837 53.0445C227.716 53.2489 227.635 53.4779 227.599 53.7171C227.563 53.9562 227.572 54.2006 227.626 54.4357C227.626 55.4294 229.286 56.4232 227.626 57.4169C225.966 58.4106 225.782 57.4167 224.859 58.8079L223.568 60.1991C223.568 60.1991 222.277 60.1991 221.724 60.1991C220.143 61.0255 218.408 61.4549 216.651 61.4549C214.894 61.4549 213.159 61.0255 211.578 60.1991C211.578 60.1991 210.102 60.1991 209.365 60.1991C207.383 61.5515 205.147 62.4134 202.818 62.7227C200.49 63.032 198.126 62.7808 195.899 61.9877C195.338 61.6388 194.702 61.4552 194.054 61.4552C193.407 61.4552 192.77 61.6388 192.21 61.9877C189.074 64.7699 186.307 63.3788 183.724 61.9877C183.543 63.1294 182.966 64.1545 182.11 64.8554C181.254 65.5563 180.183 65.881 179.113 65.7636C176.534 65.5686 173.945 65.5686 171.365 65.7636C169.477 66.1602 167.535 66.1602 165.647 65.7636C164.645 65.2217 163.54 64.9394 162.419 64.9394C161.298 64.9394 160.193 65.2217 159.191 65.7636C157.346 65.7636 155.502 62.7825 157.162 60.3978C158.822 58.013 158.269 58.6092 157.162 57.6155C155.871 55.4295 155.871 55.4295 158.269 54.2371H159.375V53.0448H158.269C155.325 53.7153 152.631 55.305 150.521 57.6155C149.414 58.6754 149.414 59.868 150.521 61.1929C150.521 61.1929 152.366 62.385 152.55 63.7762C152.735 65.1673 152.55 65.7635 152.55 65.9622C152.261 66.1051 151.946 66.179 151.628 66.179C151.31 66.179 150.995 66.1051 150.706 65.9622C149.807 64.9942 149.003 63.9285 148.308 62.7824C148.308 62.7824 146.832 60.9939 145.725 60.9939C145.192 61.0486 144.654 60.9889 144.142 60.8184C143.63 60.6478 143.155 60.3697 142.743 60.0002C142.331 59.6307 141.992 59.177 141.744 58.6653C141.496 58.1537 141.344 57.5944 141.298 57.0193C141.298 55.6282 139.822 55.6282 138.716 57.0193L135.58 59.2054C138.531 63.5775 138.531 63.975 134.288 65.1674C132.849 65.6688 131.3 65.6688 129.861 65.1674C128.852 64.5395 127.707 64.2089 126.541 64.2089C125.375 64.2089 124.23 64.5395 123.221 65.1674C122.744 65.464 122.203 65.6199 121.653 65.6199C121.102 65.6199 120.562 65.464 120.085 65.1674C116.898 64.7663 113.679 64.7663 110.493 65.1674C107.738 65.6618 104.908 65.2461 102.376 63.9751C102.083 63.6318 101.726 63.3577 101.329 63.1703C100.933 62.9829 100.504 62.8862 100.071 62.8862C99.6374 62.8862 99.2088 62.9829 98.812 63.1703C98.4151 63.3577 98.0586 63.6318 97.7649 63.9751C97.2792 64.5474 96.676 64.9893 96.0033 65.2654C95.3307 65.5415 94.6073 65.6438 93.8912 65.5647C92.2764 65.4897 90.6923 65.0639 89.2341 64.3126C87.7759 63.5613 86.4738 62.5002 85.406 61.1929C84.4109 60.2946 83.6989 59.0855 83.3685 57.7329C83.0381 56.3802 83.1056 54.9506 83.5614 53.6409C83.5614 52.4485 83.5614 52.2499 82.639 51.8524C80.0234 51.2629 77.3228 51.2629 74.7072 51.8524C75.8139 53.8397 78.0275 51.8524 78.7654 54.6347H73.2315C72.1714 54.5264 71.106 54.7738 70.1815 55.343C69.2569 55.9122 68.5182 56.7752 68.0666 57.8141C69.3578 57.8141 71.3869 57.8142 71.018 60.0002C70.6491 62.1863 68.9889 61.1927 67.8821 61.3915C66.4292 61.7868 64.9079 61.7868 63.455 61.3915C59.9671 60.2528 56.2441 60.2528 52.7562 61.3915C52.4627 61.3915 52.1811 61.5172 51.9736 61.7408C51.766 61.9644 51.6494 62.2676 51.6494 62.5838L57.7367 64.5713C58.5419 64.9507 59.211 65.6013 59.6435 66.4256C60.0759 67.2499 60.2483 68.2031 60.1347 69.142C60.1347 70.3344 58.4745 70.3343 57.3677 70.533C56.5803 70.3226 55.7571 70.3226 54.9697 70.533C54.1143 71.2109 53.0802 71.5767 52.0183 71.5767C50.9564 71.5767 49.9223 71.2109 49.0669 70.533L31.9119 69.142C28.2876 68.7941 24.7041 68.0618 21.2132 66.956C17.8929 66.956 13.8347 66.956 11.0678 64.1737C11.0678 64.1737 10.1454 64.1737 9.96097 64.1737C9.1088 64.6609 8.15874 64.9157 7.19401 64.9157C6.22928 64.9157 5.2793 64.6609 4.42712 64.1737C3.00373 63.5751 1.42339 63.5751 0 64.1737V69.7382C4.61155 69.7382 8.85421 72.9181 13.6502 73.3155C18.3039 74.0997 22.8351 75.5706 27.116 77.6874C28.4072 77.6874 30.2518 79.2775 31.3586 78.88C33.8247 78.0787 36.4554 78.0787 38.9215 78.88C40.5817 78.88 41.6884 78.8798 42.4263 77.0912C43.1641 75.3026 44.0865 75.7002 45.1932 75.7002H54.7853C59.9502 75.7002 65.1151 75.7001 70.0956 77.0912C78.2119 77.0912 86.5128 77.0912 94.6291 77.0912C98.0359 77.1829 101.43 77.582 104.775 78.2838C106.91 79.3649 109.24 79.9253 111.6 79.9253C113.959 79.9253 116.289 79.3649 118.425 78.2838C119.699 77.9691 121.024 77.9691 122.298 78.2838C126.541 78.2838 130.784 78.2838 135.026 78.2838H153.473H173.394C180.773 78.2838 187.967 77.0913 195.161 76.2964H200.326C208.127 74.8704 216.024 74.1392 223.937 74.1103H225.044C227.968 72.602 231.239 72.0493 234.451 72.5204C237.453 72.9196 240.489 72.9196 243.49 72.5204C245.363 71.9965 247.278 71.6637 249.208 71.5267C257.557 70.9574 265.87 69.8961 274.111 68.3472C282.965 66.9561 292.557 65.1675 300.858 63.9751C306.398 63.7556 311.873 62.6158 317.09 60.5964C318.19 60.4069 319.311 60.4069 320.411 60.5964C333.508 57.8141 347.158 57.218 360.255 53.2434H361.546L387.739 49.0702C390.714 48.7979 393.574 47.7026 396.04 45.8904C397.672 44.7881 399.49 44.045 401.39 43.7043L411.72 42.512C424.263 40.7234 436.806 39.7298 448.612 36.9475C458.02 34.7615 467.058 34.1652 477.388 32.5754C489.591 30.466 501.922 29.3367 514.281 29.197C522.483 28.938 530.614 27.4669 538.445 24.8248C540.527 24.5358 542.635 24.5358 544.717 24.8248C545.824 24.8248 547.115 24.8248 547.853 24.8248C552.095 22.8375 556.707 22.6387 560.949 21.0489C566.434 18.8916 572.281 18.0109 578.104 18.4653C579.328 18.6583 580.57 18.6583 581.794 18.4653C582.473 18.4099 583.134 18.2049 583.737 17.863C584.34 17.5212 584.872 17.05 585.298 16.4781C587.143 14.4908 586.59 12.3046 584.007 11.3109C578.766 9.88918 573.353 9.35281 567.959 9.72102C561.134 9.72102 553.94 12.3045 547.115 9.72102C542.688 10.7147 538.076 9.72116 533.649 11.1123C528.31 11.6146 522.94 11.6146 517.601 11.1123C515.059 11.2198 512.53 10.6748 510.222 9.52239C506.718 6.74014 505.242 11.5096 502.659 11.3109H500.446C495.742 11.9407 491.108 13.0724 486.611 14.6893C484.349 15.5865 481.864 15.5865 479.602 14.6893C476.135 13.4023 472.369 13.4023 468.903 14.6893C467.612 14.6893 466.505 14.6894 465.398 13.497C465.301 13.3157 465.25 13.1101 465.25 12.9008C465.25 12.6915 465.301 12.4859 465.398 12.3046H467.243C473.589 12.0857 479.843 10.6034 485.689 7.9325C485.689 7.9325 486.796 7.93266 486.611 6.54153C486.438 6.45315 486.249 6.4072 486.058 6.4072C485.866 6.4072 485.677 6.45315 485.504 6.54153C478.679 -0.612823 471.485 -0.414345 464.476 0.380583ZM311.926 34.5625C311.926 35.7549 311.926 36.5499 310.265 36.7486C308.605 36.9473 310.265 35.1588 310.265 34.3639C310.265 33.569 311.557 34.1651 311.926 34.5625ZM308.79 38.1399C308.958 38.0352 309.149 37.9801 309.343 37.9801C309.537 37.9801 309.728 38.0352 309.896 38.1399C309.896 38.1399 309.896 38.1399 308.974 38.1399H308.79ZM231.316 54.8333C231.316 54.8333 232.422 54.8334 232.238 56.2246L231.316 54.8333ZM208.996 58.4106C208.996 58.4106 209.18 58.6094 208.996 58.4106V58.4106ZM73.7849 58.4106C73.8052 58.073 73.9053 57.7464 74.0755 57.4621C74.2457 57.1778 74.4805 56.9451 74.7575 56.7859C75.0346 56.6266 75.3449 56.5463 75.6589 56.5524C75.9729 56.5585 76.2802 56.6508 76.5518 56.8207L78.3964 58.4106L79.6877 61.5901C79.0775 61.8803 78.4178 62.0304 77.7508 62.0304C77.0838 62.0304 76.4241 61.8803 75.814 61.5901C74.3383 61.9876 73.6004 60.0003 73.7849 58.2117V58.4106ZM63.0861 62.5838L64.1928 61.1929V62.9814L63.0861 62.5838ZM260.092 52.8458C259.894 52.2687 259.894 51.6345 260.092 51.0573C260.092 51.0573 260.092 49.8649 261.383 50.0636C262.674 50.2623 264.15 51.6536 265.994 51.4549C263.412 53.6409 261.567 54.2371 260.645 52.6472L260.092 52.8458ZM291.081 46.6852H289.421H291.081ZM370.031 28.9981V28.0043C370.031 28.0043 369.847 27.8058 369.662 28.7994L370.031 28.9981ZM380.545 25.0235L374.274 23.6325C375.36 22.5811 376.705 21.8907 378.147 21.6451C379.439 22.2413 380.177 22.2413 380.177 24.8248L380.545 25.0235ZM400.467 19.2604C400.467 20.6515 398.807 22.0426 397.885 23.235C396.963 24.4273 396.963 23.235 396.778 23.235C396.594 23.235 396.778 22.2413 396.778 21.6451C397.115 20.796 397.62 20.0361 398.257 19.4184C398.894 18.8006 399.648 18.3397 400.467 18.0677V19.2604ZM418.914 16.2792H421.127H419.098H418.914ZM424.263 15.0869H422.603L424.079 14.0931L424.263 15.0869ZM445.107 9.52239V8.52867C445.903 8.41624 446.709 8.41624 447.505 8.52867C447.752 8.91118 448.084 9.22096 448.471 9.4293C448.858 9.63763 449.287 9.7378 449.719 9.72102C448.187 10.1883 446.551 10.0475 445.107 9.32377V9.52239ZM460.602 7.1377C460.602 7.1377 460.602 7.13746 460.602 8.13112C460.602 9.12478 458.573 8.13112 457.835 8.13112C458.573 5.94507 459.495 6.54131 460.418 6.93878L460.602 7.1377ZM453.408 7.1377V8.13112H450.457C450.457 8.13112 451.563 6.14398 452.67 6.14398C452.907 6.27626 453.101 6.48453 453.224 6.74016L453.408 7.1377Z" fill="#FFDA00"/>
</svg>
