<svg width="555" height="74" viewBox="0 0 555 74" fill="none" xmlns="http://www.w3.org/2000/svg">
<path d="M465.343 3.10981H471.06C474.095 1.11575 477.734 0.475267 481.202 1.32466C480.649 2.91152 479.727 2.91156 478.621 2.91156L468.478 4.30021C467.556 4.49857 466.265 4.49841 466.265 5.68856C466.403 5.85741 466.574 5.99273 466.764 6.08536C466.955 6.17799 467.162 6.2258 467.371 6.2258C467.581 6.2258 467.788 6.17799 467.978 6.08536C468.169 5.99273 468.339 5.85741 468.478 5.68856C470.549 4.79476 472.861 4.79476 474.932 5.68856C479.543 8.66393 483.415 5.68861 487.657 4.49846C489.058 4.21392 490.497 4.21392 491.898 4.49846C493.764 5.08805 495.749 5.08805 497.615 4.49846C499.641 3.71065 501.859 3.71065 503.885 4.49846C504.807 4.89517 506.098 5.49015 504.807 6.87866C503.516 8.26716 504.807 8.26731 504.807 8.26731C509.59 9.4029 514.479 9.93548 519.376 9.85421C520.194 9.62848 521.048 9.6001 521.877 9.77158C522.706 9.94306 523.489 10.3099 524.171 10.8458C524.639 11.244 524.965 11.8049 525.093 12.4327C525.277 14.0195 523.986 14.0196 523.986 14.0196H515.134C515.134 15.0114 516.794 15.0114 516.794 15.0114C519.789 14.5186 522.836 14.5186 525.83 15.0114H535.42C539.284 15.1047 543.124 15.7041 546.853 16.7966C548.678 17.4799 550.414 18.4132 552.017 19.5736C555.152 22.1522 556.074 24.136 552.017 26.913C548.523 29.1698 544.729 30.8419 540.768 31.872C534.305 33.4887 527.65 34.0237 521.036 33.4586C513.55 32.7623 506.023 32.7623 498.537 33.4586C489.501 34.6487 480.096 35.6407 471.06 37.0292C457.966 38.616 445.057 40.5997 432.149 42.3849C422.559 43.7734 413.523 45.7569 404.118 46.9471L402.245 47.2048C387.023 49.2999 371.959 51.3735 356.724 52.8979C346.95 54.088 336.992 55.0798 327.218 55.0798L302.875 57.0632L271.894 59.0469L243.863 60.8321C234.484 61.7585 225.063 62.0898 215.648 61.8239C200.824 61.1546 185.977 62.2857 171.389 65.196C165.677 66.3553 159.862 66.8212 154.054 66.5846C153.264 66.3962 152.446 66.3962 151.657 66.5846C149.934 67.4722 148.032 67.8813 146.124 67.7747C137.193 69.0604 128.206 69.8547 119.2 70.1549C115.696 70.3533 112.377 71.345 109.057 71.345C102.234 72.7335 95.4106 72.7337 88.5873 72.7337C82.5394 74.4133 76.1939 74.4133 70.146 72.7337C61.6451 71.5028 53.579 70.7394 45.3053 69.2001C45.54 69.2781 45.7688 69.3354 45.988 69.3616C45.6638 69.8142 45.2434 70.1763 44.762 70.4179C44.2807 70.6596 43.7525 70.7735 43.2217 70.75L24.5961 66.9811C23.6307 67.2684 22.6109 67.2684 21.6455 66.9811C21.3478 66.8444 21.0888 66.6259 20.8946 66.3473C20.74 66.1256 20.6307 65.872 20.573 65.6034C16.7335 65.3211 12.9071 64.8543 9.10539 64.2041L9.10535 64.2041C7.44567 63.8074 7.44565 63.8074 4.49507 61.4271C6.70802 59.4435 10.5807 58.4517 10.5807 54.8813C8.09258 53.6398 5.39293 52.9647 2.6509 52.8979V45.9552V44.1701C3.27125 43.2234 3.82599 42.2291 4.31061 41.1948C3.57296 41.1948 2.83535 41.3932 1.54446 41.1948C0.253573 40.9965 0.253578 39.8062 0.253578 39.8062C0.244948 39.5851 0.285553 39.365 0.372044 39.1642C0.458535 38.9634 0.588403 38.7876 0.750797 38.6518C0.913192 38.5159 1.10342 38.4238 1.30563 38.383C1.50785 38.3423 1.7162 38.3541 1.9133 38.4175C3.75743 39.0126 2.83533 37.426 3.7574 36.2359C4.67946 35.0457 7.26122 35.0454 7.26122 33.4586C7.34323 33.2726 7.3858 33.0694 7.3858 32.8635C7.3858 32.6577 7.34323 32.4544 7.26122 32.2685H5.6015C4.49502 31.2767 5.6015 30.2851 5.6015 30.2851C9.89472 30.1798 14.1237 31.4202 17.7727 33.8554C19.4325 35.6406 21.8299 33.8554 22.1987 33.8554H24.5961H33.4479C38.9803 33.8554 44.6971 32.8636 49.8606 33.8554C55.0242 34.8472 60.0034 33.8554 65.1669 34.8472C78.9314 37.4245 92.972 37.8254 106.844 36.0373C108.314 35.8462 109.8 35.8462 111.27 36.0373C114.899 36.3075 118.541 35.7672 121.966 34.4504C127.051 32.5329 132.455 31.7894 137.826 32.2685C138.404 32.5537 139.033 32.7016 139.67 32.7016C140.306 32.7016 140.935 32.5537 141.514 32.2685C144.213 30.8471 147.176 30.1012 150.181 30.0865H152.025C153.501 31.0783 153.685 30.6816 156.636 30.0865C159.586 29.4914 159.586 29.6898 159.586 32.8635C160.877 31.2767 162.537 30.6818 164.012 31.2769C165.487 31.872 168.069 32.0703 168.069 29.095C168.327 28.9555 168.611 28.8828 168.899 28.8828C169.187 28.8828 169.472 28.9555 169.729 29.095C171.195 29.3469 172.622 29.8139 173.971 30.4833C176.183 31.4751 176.737 30.6817 177.474 29.2932C178.212 27.9047 179.503 26.5162 180.056 26.5162C180.609 26.5162 180.425 24.1359 181.716 26.5162C183.007 28.8964 185.22 28.8964 187.248 28.8964H187.248H191.674C192.596 29.8882 193.149 33.0619 193.703 28.8964C194.256 24.7311 196.469 24.7311 198.866 24.7311H198.866C205.45 23.4351 212.199 23.4351 218.783 24.7311C227.439 26.224 236.227 26.6233 244.969 25.9212C246.998 25.7228 248.289 24.3343 250.317 27.1113C252.346 29.8883 254.19 29.4916 256.587 28.1031C263.078 25.2384 270.042 23.8212 277.057 23.9375C282.405 22.7474 287.753 22.7474 293.101 22.7474H293.101H296.974C299.481 23.1436 302.028 23.1436 304.535 22.7474C308.159 22.5512 311.791 22.5512 315.415 22.7474C318.366 22.549 317.444 25.9212 318.366 25.9212H319.288C322.478 25.7235 325.578 24.7028 328.324 22.9456C330.193 21.3571 332.42 20.3305 334.779 19.9704C338.827 19.5638 342.902 19.5638 346.95 19.9704C350.361 19.9674 353.761 19.5684 357.092 18.7803C361.914 17.8921 366.778 17.2962 371.661 16.9951C379.832 16.5246 387.965 15.4642 396.004 13.8213C401.607 12.2917 407.373 11.5581 413.154 11.6394C415.482 11.5624 417.784 11.0937 419.977 10.2507C422.579 9.27202 425.352 8.93335 428.091 9.25916C430.394 9.85686 432.796 9.85686 435.099 9.25916C439.595 7.68881 444.23 6.62512 448.93 6.08536C454.462 5.29193 459.81 4.1016 465.343 3.10981Z" fill="#FFDA00"/>
</svg>
