<svg width="534" height="74" viewBox="0 0 534 74" fill="none" xmlns="http://www.w3.org/2000/svg">
<path d="M453.532 0.575928H455.377C461.28 1.16856 466.629 -0.411817 473.639 6.10714C476.395 6.0584 479.119 6.73697 481.571 8.0827C483.997 9.07051 486.545 9.66952 489.134 9.86053C490.241 10.0581 490.979 10.2556 491.163 12.0335C491.348 13.8114 489.688 13.8113 489.688 13.8113H488.396C488.48 14.1591 488.672 14.4658 488.94 14.6813C489.208 14.8967 489.537 15.0079 489.872 14.9966H504.076C505.337 14.7202 506.639 14.7544 507.886 15.0966C509.132 15.4389 510.289 16.0803 511.27 16.9721C511.635 17.1975 512.048 17.3161 512.469 17.3161C512.89 17.3161 513.304 17.1975 513.668 16.9721C515.882 15.5893 517.911 15.194 517.911 18.9474C517.911 18.9474 519.571 19.3425 519.571 18.9474V17.1696C519.657 17.0469 519.769 16.9473 519.897 16.8787C520.025 16.8101 520.166 16.7744 520.309 16.7744C520.452 16.7744 520.594 16.8101 520.722 16.8787C520.85 16.9473 520.961 17.0469 521.047 17.1696C521.174 17.553 521.174 17.9713 521.047 18.3548C521.969 19.145 520.863 20.9229 521.969 20.9229C525.701 19.7374 529.674 19.7374 533.406 20.9229L531.193 22.5033C529.495 24.0998 527.375 25.0905 525.127 25.3383C522.879 25.5861 520.615 25.0785 518.649 23.886C518.51 23.7178 518.34 23.5834 518.149 23.4911C517.958 23.3989 517.752 23.351 517.542 23.351C517.333 23.351 517.126 23.3989 516.935 23.4911C516.744 23.5834 516.574 23.7178 516.435 23.886C516.325 24.5391 516.325 25.2084 516.435 25.8616C516.62 27.2444 518.833 27.8372 517.911 29.4175C516.989 30.9976 514.96 30.9976 513.3 30.9976H513.299C503.183 32.8653 492.943 33.8564 482.678 33.9609C481.573 33.8664 480.463 33.8664 479.358 33.9609C470.849 36.069 462.223 37.5866 453.532 38.5044L447.814 39.4921C439.064 41.7286 430.192 43.378 421.251 44.4308C420.235 44.0544 419.131 44.0544 418.115 44.4308C411.734 48.2805 404.588 50.4473 397.27 50.752C391.183 51.5422 385.095 53.3203 378.823 54.7031C372.552 56.0859 368.309 57.4685 360.377 58.4562C352.445 59.4439 343.221 62.0121 336.765 62.6048C330.309 63.1974 322.746 64.5803 318.318 64.5803H304.852C300.647 65.4103 296.395 65.938 292.124 66.1604C289.118 66.4549 286.092 66.4549 283.085 66.1604C282.484 65.9624 281.842 65.9624 281.241 66.1604C275.92 67.845 270.351 68.4483 264.823 67.9386H252.648C249.661 68.529 246.597 68.529 243.61 67.9386C241.731 67.4447 239.769 67.4447 237.891 67.9386C232.567 68.736 227.166 68.736 221.842 67.9386C217.396 67.4025 212.896 67.7373 208.561 68.9263H204.134H172.59C167.892 68.8302 163.196 69.2271 158.571 70.1115C154.09 70.5092 149.585 70.5092 145.104 70.1115C140.677 69.914 136.619 71.6919 132.376 71.6919H113.93H112.638C108.61 73.7465 104.022 74.1676 99.7257 72.8772C98.2513 72.7822 96.7729 72.7822 95.2985 72.8772L68.3664 70.9016C52.3179 69.7163 36.2693 67.3459 20.2207 67.3459C16.3469 67.1484 12.4731 65.963 8.59929 65.963C8.17624 65.9388 7.77093 65.7735 7.44011 65.49C7.10929 65.2066 6.86959 64.8193 6.75465 64.3826C6.57018 62.8022 8.41485 62.8022 8.41485 62.8022C9.36394 62.2763 10.1373 61.4482 10.6284 60.4318L4.17213 57.6662C3.9547 54.7708 3.20222 51.9507 1.95848 49.3694C1.04558 47.8279 0.471651 46.0844 0.279918 44.2707C0.0881849 42.457 0.283706 40.6205 0.851731 38.8995C1.5896 37.9118 1.95849 37.3191 3.61869 37.9118C5.27888 38.5044 5.27889 37.1217 5.27889 36.1339C4.85953 35.1014 4.49015 34.0464 4.17213 32.9732C4.02996 32.6428 3.97569 32.277 4.01535 31.9157C4.05502 31.5545 4.18704 31.2119 4.39689 30.9259C4.60674 30.6398 4.88628 30.4214 5.20465 30.2947C5.52302 30.1679 5.86792 30.1378 6.20127 30.2075C9.70614 30.8002 13.7644 29.615 17.0848 32.7757C18.462 33.8864 20.1589 34.4455 21.8809 34.3561C28.5217 32.7758 34.4246 34.3561 40.3275 34.3561C43.3817 33.2713 46.6812 33.2713 49.7353 34.3561C51.3955 35.5414 53.4246 34.3561 55.4538 34.3561C62.9879 32.5775 70.7935 32.5775 78.3276 34.3561H80.7257C90.5024 32.7758 99.5413 34.3561 108.949 34.3561C110.851 34.1616 112.766 34.1616 114.667 34.3561C114.667 34.3561 114.852 35.7388 114.667 35.7388H113.192L111.532 36.7265C113.178 37.0536 114.866 37.0536 116.512 36.7265C117.888 36.2297 119.379 36.2297 120.755 36.7265C122.639 37.0431 124.563 36.5455 126.104 35.3436C126.896 34.5229 127.954 34.064 129.056 34.064C130.158 34.064 131.216 34.5229 132.007 35.3436C132.556 35.8993 133.282 36.209 134.037 36.209C134.791 36.209 135.517 35.8993 136.066 35.3436C137.134 34.6725 138.243 34.0787 139.386 33.5658C140.44 32.9772 141.61 32.6699 142.799 32.6699C143.987 32.6699 145.158 32.9772 146.211 33.5658L148.978 35.3436C149.313 35.6215 149.703 35.8135 150.118 35.9045C150.533 35.9956 150.962 35.9835 151.372 35.869C151.782 35.7545 152.162 35.5407 152.482 35.2441C152.803 34.9475 153.056 34.576 153.221 34.1584C153.567 33.4327 154.096 32.8256 154.748 32.4065C155.4 31.9873 156.15 31.773 156.91 31.7879H173.512C174.155 31.7954 174.788 31.9592 175.364 32.2672C175.939 32.5752 176.441 33.0193 176.833 33.5658H178.493C180.707 29.0222 181.444 31.5903 182.736 33.5658C183.078 33.9944 183.502 34.3397 183.979 34.5783C184.457 34.8168 184.976 34.9431 185.503 34.9487H191.221C192.881 30.9978 196.202 32.1829 198.784 30.9976C201.003 29.5607 203.574 28.8726 206.163 29.0223H229.775V30.8002C229.775 31.9854 228.852 30.8001 229.775 31.9854C230.697 33.1706 234.202 31.7879 234.386 30.8002C234.571 29.8124 234.571 28.8246 235.677 28.8246H238.813H261.318C262.948 29.3038 264.669 29.3038 266.299 28.8246C267.324 28.5117 268.41 28.5117 269.435 28.8246C275.224 30.0048 281.17 30.0048 286.959 28.8246C291.755 27.6394 296.367 27.6394 301.163 27.6394H301.163C313.958 26.7536 326.703 25.1714 339.348 22.8985C349.493 21.3182 359.27 17.7622 369.231 17.7622C372.649 17.4222 376.004 16.5575 379.192 15.1943C383.291 13.6443 387.481 12.3903 391.736 11.4409L403.542 8.47757C408.356 6.49708 413.567 5.88466 418.668 6.69975C421.066 8.2801 423.095 6.69975 425.493 6.69975C428.073 6.89358 430.662 6.89358 433.241 6.69975C433.794 6.69975 432.872 9.26782 435.086 6.69975C437.299 4.13167 441.542 6.10702 443.387 4.13158C445.231 2.15614 446.707 4.52667 448.921 4.13158C451.134 3.73649 451.503 0.575928 453.532 0.575928Z" fill="#FFDA00"/>
</svg>
